<?xml version="1.0" encoding="UTF-8" standalone="no"?>
<!-- Created with Inkscape (http://www.inkscape.org/) -->
<svg xmlns:inkscape="http://www.inkscape.org/namespaces/inkscape" xmlns:rdf="http://www.w3.org/1999/02/22-rdf-syntax-ns#" xmlns="http://www.w3.org/2000/svg" xmlns:xlink="http://www.w3.org/1999/xlink" xmlns:ns1="http://sozi.baierouge.fr" xmlns:cc="http://creativecommons.org/ns#" xmlns:sodipodi="http://sodipodi.sourceforge.net/DTD/sodipodi-0.dtd" xmlns:dc="http://purl.org/dc/elements/1.1/" id="svg2" xml:space="preserve" viewBox="0 0 37.05 79.414" version="1.1" inkscape:version="0.91 r13725">
  <defs id="defs6">
    <clipPath id="clipPath18">
      <path id="path20" d="m0-0.46848h30v64h-30v-64z" inkscape:connector-curvature="0"/>
    </clipPath>
    <mask id="mask22">
      <g id="g24">
        <g id="g26" clip-path="url(#clipPath18)">
          <path id="path28" style="fill:#000000;fill-opacity:.46880" d="m0-0.46848h30v64h-30v-64z" inkscape:connector-curvature="0"/>
        </g>
      </g>
    </mask>
    <clipPath id="clipPath34">
      <path id="path36" d="m0-0.46848h30v64h-30v-64z" inkscape:connector-curvature="0"/>
    </clipPath>
    <clipPath id="clipPath38">
      <path id="path40" d="m0 0h30v64h-30v-64z" inkscape:connector-curvature="0"/>
    </clipPath>
    <clipPath id="clipPath42">
      <path id="path44" d="m2 0h27v6h-27v-6z" inkscape:connector-curvature="0"/>
    </clipPath>
    <clipPath id="clipPath46">
      <path id="path48" d="m2 0h27v6h-27v-6z" inkscape:connector-curvature="0"/>
    </clipPath>
    <mask id="mask50">
      <g id="g52">
        <g id="g54" clip-path="url(#clipPath42)">
          <g id="g56">
            <g id="g60">
              <g id="g62" clip-path="url(#clipPath46)">
                <g id="g64">
                  <path id="path66" style="fill-rule:evenodd;fill:#0d5069" d="m28.719 3.027c0-0.691-1.293-1.293-3.879-1.797-2.586-0.507-5.707-0.761-9.36-0.761-3.652 0-6.773 0.254-9.359 0.761-2.59 0.504-3.883 1.106-3.883 1.797 0 0.723 1.297 1.336 3.883 1.84 2.586 0.508 5.707 0.762 9.359 0.762 3.653 0 6.774-0.254 9.36-0.762 2.586-0.504 3.879-1.117 3.879-1.84z" inkscape:connector-curvature="0"/>
                </g>
              </g>
            </g>
          </g>
        </g>
      </g>
    </mask>
    <clipPath id="clipPath68">
      <path id="path70" d="m2 0h27v6h-27v-6z" inkscape:connector-curvature="0"/>
    </clipPath>
    <clipPath id="clipPath72">
      <path id="path74" d="m2 0h27v6h-27v-6z" inkscape:connector-curvature="0"/>
    </clipPath>
    <linearGradient id="linearGradient124" y2="76.674" gradientUnits="userSpaceOnUse" x2="10.826" gradientTransform="matrix(.8 0 0 -.8 0 63.52)" y1="41.126" x1="9.6758">
      <stop id="stop126" style="stop-color:#6eb361" offset="0"/>
      <stop id="stop128" style="stop-color:#00697d" offset=".67450"/>
      <stop id="stop130" style="stop-color:#043840" offset="1"/>
    </linearGradient>
    <linearGradient id="linearGradient144" y2="-5.9063" gradientUnits="userSpaceOnUse" x2="83.874" gradientTransform="matrix(.00448 -.8 -.79968 -.06208 -.00019222 63.52)" y1="-5.9063" x1="48.349">
      <stop id="stop146" style="stop-color:#6eb361" offset="0"/>
      <stop id="stop148" style="stop-color:#00697d" offset=".67450"/>
      <stop id="stop150" style="stop-color:#043840" offset="1"/>
    </linearGradient>
    <linearGradient id="linearGradient164" y2="39.166" gradientUnits="userSpaceOnUse" x2="-41.262" gradientTransform="matrix(.15496 .78488 .80616 -.0472 -.00027082 63.52)" y1="39.166" x1="-63.203">
      <stop id="stop166" style="stop-color:#043840" offset="0"/>
      <stop id="stop168" style="stop-color:#00697d" offset=".32550"/>
      <stop id="stop170" style="stop-color:#6eb361" offset="1"/>
    </linearGradient>
    <linearGradient id="linearGradient184" y2="72.401" gradientUnits="userSpaceOnUse" x2="9.2313" gradientTransform="matrix(.8 0 0 -.8 0 63.52)" y1="17.076" x1="15.085">
      <stop id="stop186" style="stop-color:#043840" offset="0"/>
      <stop id="stop188" style="stop-color:#00562e" offset=".32550"/>
      <stop id="stop190" style="stop-color:#6eb360" offset="1"/>
    </linearGradient>
    <linearGradient id="linearGradient204" y2="21.755" gradientUnits="userSpaceOnUse" x2="-4.6966" gradientTransform="matrix(-.15112 .7856 .78008 .17984 .000091312 63.521)" y1="21.755" x1="-81.326">
      <stop id="stop206" style="stop-color:#002126" offset="0"/>
      <stop id="stop208" style="stop-color:#00562e" offset=".32550"/>
      <stop id="stop210" style="stop-color:#6eb360" offset="1"/>
    </linearGradient>
    <linearGradient id="linearGradient224" y2="61.046" gradientUnits="userSpaceOnUse" x2="17.51" gradientTransform="matrix(.8 0 0 -.8 0 63.52)" y1="-5.1035" x1="24.367">
      <stop id="stop226" style="stop-color:#6eb360" offset="0"/>
      <stop id="stop228" style="stop-color:#00562e" offset=".67450"/>
      <stop id="stop230" style="stop-color:#043840" offset="1"/>
    </linearGradient>
    <linearGradient id="linearGradient244" y2="71.057" gradientUnits="userSpaceOnUse" x2="15.188" gradientTransform="matrix(.8 0 0 -.8 0 63.52)" y1="-10.293" x1="23.787">
      <stop id="stop246" style="stop-color:#70a834" offset="0"/>
      <stop id="stop248" style="stop-color:#158434" offset=".2431"/>
      <stop id="stop250" style="stop-color:#187231" offset="0.349"/>
      <stop id="stop252" style="stop-color:#1e472a" offset=".63920"/>
      <stop id="stop254" style="stop-color:#222c26" offset=".86670"/>
      <stop id="stop256" style="stop-color:#242224" offset="1"/>
    </linearGradient>
    <clipPath id="clipPath264">
      <path id="path266" d="m3 26.532h26v37h-26v-37z" inkscape:connector-curvature="0"/>
    </clipPath>
    <mask id="mask268">
      <g id="g270">
        <g id="g272" clip-path="url(#clipPath264)">
          <path id="path274" style="fill:#000000;fill-opacity:.67970" d="m3 26.532h26v37h-26v-37z" inkscape:connector-curvature="0"/>
        </g>
      </g>
    </mask>
    <clipPath id="clipPath280">
      <path id="path282" d="m3 26.532h26v37h-26v-37z" inkscape:connector-curvature="0"/>
    </clipPath>
    <clipPath id="clipPath284">
      <path id="path286" d="m3 27h26v37h-26v-37z" inkscape:connector-curvature="0"/>
    </clipPath>
    <clipPath id="clipPath308">
      <path id="path310" d="m16 47.532h3v5h-3v-5z" inkscape:connector-curvature="0"/>
    </clipPath>
    <mask id="mask312">
      <g id="g314">
        <g id="g316" clip-path="url(#clipPath308)">
          <path id="path318" style="fill:#000000;fill-opacity:.67970" d="m16 47.532h3v5h-3v-5z" inkscape:connector-curvature="0"/>
        </g>
      </g>
    </mask>
    <clipPath id="clipPath324">
      <path id="path326" d="m16 47.532h3v5h-3v-5z" inkscape:connector-curvature="0"/>
    </clipPath>
    <clipPath id="clipPath328">
      <path id="path330" d="m16 48h3v5h-3v-5z" inkscape:connector-curvature="0"/>
    </clipPath>
    <clipPath id="clipPath352">
      <path id="path354" d="m14 51.532h4v4h-4v-4z" inkscape:connector-curvature="0"/>
    </clipPath>
    <mask id="mask356">
      <g id="g358">
        <g id="g360" clip-path="url(#clipPath352)">
          <path id="path362" style="fill:#000000;fill-opacity:.67970" d="m14 51.532h4v4h-4v-4z" inkscape:connector-curvature="0"/>
        </g>
      </g>
    </mask>
    <clipPath id="clipPath368">
      <path id="path370" d="m14 51.532h4v4h-4v-4z" inkscape:connector-curvature="0"/>
    </clipPath>
    <clipPath id="clipPath372">
      <path id="path374" d="m14 52h4v4h-4v-4z" inkscape:connector-curvature="0"/>
    </clipPath>
    <clipPath id="clipPath396">
      <path id="path398" d="m12 47.532h2v4h-2v-4z" inkscape:connector-curvature="0"/>
    </clipPath>
    <mask id="mask400">
      <g id="g402">
        <g id="g404" clip-path="url(#clipPath396)">
          <path id="path406" style="fill:#000000;fill-opacity:.67970" d="m12 47.532h2v4h-2v-4z" inkscape:connector-curvature="0"/>
        </g>
      </g>
    </mask>
    <clipPath id="clipPath412">
      <path id="path414" d="m12 47.532h2v4h-2v-4z" inkscape:connector-curvature="0"/>
    </clipPath>
    <clipPath id="clipPath416">
      <path id="path418" d="m12 48h2v4h-2v-4z" inkscape:connector-curvature="0"/>
    </clipPath>
    <clipPath id="clipPath440">
      <path id="path442" d="m13 42.532h5v4h-5v-4z" inkscape:connector-curvature="0"/>
    </clipPath>
    <mask id="mask444">
      <g id="g446">
        <g id="g448" clip-path="url(#clipPath440)">
          <path id="path450" style="fill:#000000;fill-opacity:.67970" d="m13 42.532h5v4h-5v-4z" inkscape:connector-curvature="0"/>
        </g>
      </g>
    </mask>
    <clipPath id="clipPath456">
      <path id="path458" d="m13 42.532h5v4h-5v-4z" inkscape:connector-curvature="0"/>
    </clipPath>
    <clipPath id="clipPath460">
      <path id="path462" d="m13 43h5v4h-5v-4z" inkscape:connector-curvature="0"/>
    </clipPath>
    <clipPath id="clipPath484">
      <path id="path486" d="m20 43.532h5v6h-5v-6z" inkscape:connector-curvature="0"/>
    </clipPath>
    <mask id="mask488">
      <g id="g490">
        <g id="g492" clip-path="url(#clipPath484)">
          <path id="path494" style="fill:#000000;fill-opacity:.67970" d="m20 43.532h5v6h-5v-6z" inkscape:connector-curvature="0"/>
        </g>
      </g>
    </mask>
    <clipPath id="clipPath500">
      <path id="path502" d="m20 43.532h5v6h-5v-6z" inkscape:connector-curvature="0"/>
    </clipPath>
    <clipPath id="clipPath504">
      <path id="path506" d="m20 44h5v6h-5v-6z" inkscape:connector-curvature="0"/>
    </clipPath>
    <clipPath id="clipPath528">
      <path id="path530" d="m20 51.532h4v6h-4v-6z" inkscape:connector-curvature="0"/>
    </clipPath>
    <mask id="mask532">
      <g id="g534">
        <g id="g536" clip-path="url(#clipPath528)">
          <path id="path538" style="fill:#000000;fill-opacity:.67970" d="m20 51.532h4v6h-4v-6z" inkscape:connector-curvature="0"/>
        </g>
      </g>
    </mask>
    <clipPath id="clipPath544">
      <path id="path546" d="m20 51.532h4v6h-4v-6z" inkscape:connector-curvature="0"/>
    </clipPath>
    <clipPath id="clipPath548">
      <path id="path550" d="m20 52h4v6h-4v-6z" inkscape:connector-curvature="0"/>
    </clipPath>
    <clipPath id="clipPath572">
      <path id="path574" d="m9 54.532h6v5h-6v-5z" inkscape:connector-curvature="0"/>
    </clipPath>
    <mask id="mask576">
      <g id="g578">
        <g id="g580" clip-path="url(#clipPath572)">
          <path id="path582" style="fill:#000000;fill-opacity:.67970" d="m9 54.532h6v5h-6v-5z" inkscape:connector-curvature="0"/>
        </g>
      </g>
    </mask>
    <clipPath id="clipPath588">
      <path id="path590" d="m9 54.532h6v5h-6v-5z" inkscape:connector-curvature="0"/>
    </clipPath>
    <clipPath id="clipPath592">
      <path id="path594" d="m9 55h6v5h-6v-5z" inkscape:connector-curvature="0"/>
    </clipPath>
    <clipPath id="clipPath616">
      <path id="path618" d="m5 42.532h4v8h-4v-8z" inkscape:connector-curvature="0"/>
    </clipPath>
    <mask id="mask620">
      <g id="g622">
        <g id="g624" clip-path="url(#clipPath616)">
          <path id="path626" style="fill:#000000;fill-opacity:.67970" d="m5 42.532h4v8h-4v-8z" inkscape:connector-curvature="0"/>
        </g>
      </g>
    </mask>
    <clipPath id="clipPath632">
      <path id="path634" d="m5 42.532h4v8h-4v-8z" inkscape:connector-curvature="0"/>
    </clipPath>
    <clipPath id="clipPath636">
      <path id="path638" d="m5 43h4v8h-4v-8z" inkscape:connector-curvature="0"/>
    </clipPath>
    <clipPath id="clipPath660">
      <path id="path662" d="m7 29.532h6v9h-6v-9z" inkscape:connector-curvature="0"/>
    </clipPath>
    <mask id="mask664">
      <g id="g666">
        <g id="g668" clip-path="url(#clipPath660)">
          <path id="path670" style="fill:#000000;fill-opacity:.67970" d="m7 29.532h6v9h-6v-9z" inkscape:connector-curvature="0"/>
        </g>
      </g>
    </mask>
    <clipPath id="clipPath676">
      <path id="path678" d="m7 29.532h6v9h-6v-9z" inkscape:connector-curvature="0"/>
    </clipPath>
    <clipPath id="clipPath680">
      <path id="path682" d="m7 30h6v9h-6v-9z" inkscape:connector-curvature="0"/>
    </clipPath>
    <clipPath id="clipPath704">
      <path id="path706" d="m12 20.532h4v5h-4v-5z" inkscape:connector-curvature="0"/>
    </clipPath>
    <mask id="mask708">
      <g id="g710">
        <g id="g712" clip-path="url(#clipPath704)">
          <path id="path714" style="fill:#000000;fill-opacity:.67970" d="m12 20.532h4v5h-4v-5z" inkscape:connector-curvature="0"/>
        </g>
      </g>
    </mask>
    <clipPath id="clipPath720">
      <path id="path722" d="m12 20.532h4v5h-4v-5z" inkscape:connector-curvature="0"/>
    </clipPath>
    <clipPath id="clipPath724">
      <path id="path726" d="m12 21h4v5h-4v-5z" inkscape:connector-curvature="0"/>
    </clipPath>
    <clipPath id="clipPath748">
      <path id="path750" d="m14 11.532h2v4h-2v-4z" inkscape:connector-curvature="0"/>
    </clipPath>
    <mask id="mask752">
      <g id="g754">
        <g id="g756" clip-path="url(#clipPath748)">
          <path id="path758" style="fill:#000000;fill-opacity:.67970" d="m14 11.532h2v4h-2v-4z" inkscape:connector-curvature="0"/>
        </g>
      </g>
    </mask>
    <clipPath id="clipPath764">
      <path id="path766" d="m14 11.532h2v4h-2v-4z" inkscape:connector-curvature="0"/>
    </clipPath>
    <clipPath id="clipPath768">
      <path id="path770" d="m14 12h2v4h-2v-4z" inkscape:connector-curvature="0"/>
    </clipPath>
  </defs>
  <g id="g10" transform="matrix(1.25 0 0 -1.25 0 79.414)">
    <g id="g12">
      <g id="g14">
        <g id="g30" mask="url(#mask22)">
          <g id="g76">
            <g id="g78" clip-path="url(#clipPath34)">
              <g id="g80" transform="translate(0 -.46848)">
                <g id="g84">
                  <g id="g86" clip-path="url(#clipPath38)">
                    <g id="g88">
                      <g id="g90">
                        <g id="g94" mask="url(#mask50)">
                          <g id="g98">
                            <g id="g100" clip-path="url(#clipPath68)">
                              <g id="g102">
                                <g id="g106">
                                  <g id="g108" clip-path="url(#clipPath72)">
                                    <g id="g110">
                                      <path id="path112" style="fill-rule:evenodd;fill:#0d5069" d="m28.719 3.027c0-0.691-1.293-1.293-3.879-1.797-2.586-0.507-5.707-0.761-9.36-0.761-3.652 0-6.773 0.254-9.359 0.761-2.59 0.504-3.883 1.106-3.883 1.797 0 0.723 1.297 1.336 3.883 1.84 2.586 0.508 5.707 0.762 9.359 0.762 3.653 0 6.774-0.254 9.36-0.762 2.586-0.504 3.879-1.117 3.879-1.84z" inkscape:connector-curvature="0"/>
                                    </g>
                                  </g>
                                </g>
                              </g>
                            </g>
                          </g>
                        </g>
                      </g>
                    </g>
                  </g>
                </g>
              </g>
            </g>
          </g>
        </g>
      </g>
      <g id="g114">
        <g id="g116">
          <g id="g122">
            <path id="path132" style="fill-rule:evenodd;fill:url(#linearGradient124)" d="m7.48 24c2.907-6.238 4.758-13.574 5.559-22-1.117-0.082-2.504 0.067-4.16 0.442 0.082 3.093-0.094 6.597-0.52 10.519-0.824 7.813-2.492 13.774-5 17.879l1.243-1.68c1.011-1.492 1.972-3.214 2.878-5.16z" inkscape:connector-curvature="0"/>
          </g>
        </g>
      </g>
      <g id="g134">
        <g id="g136">
          <g id="g142">
            <path id="path152" style="fill-rule:evenodd;fill:url(#linearGradient144)" d="m10.039 2.16c-1.094-0.027-2.48 0.082-4.16 0.321 0.055 1.867-0.16 4-0.641 6.398-0.933 4.774-2.679 8.426-5.238 10.961l1.281-1.039c1.012-0.934 1.985-2 2.918-3.199 2.989-3.84 4.934-8.32 5.84-13.442z" inkscape:connector-curvature="0"/>
          </g>
        </g>
      </g>
      <g id="g154">
        <g id="g156">
          <g id="g162">
            <path id="path172" style="fill-rule:evenodd;fill:url(#linearGradient164)" d="m22.922 33.078c1.25 3.469 2.492 5.563 3.719 6.282-3.043-3.625-4.496-10.84-4.364-21.641 0.082-5.414 0.457-10.453 1.121-15.117-0.64-0.242-1.546-0.414-2.718-0.52l-1.52-0.082c0.028 13.762 1.281 24.121 3.762 31.078z" inkscape:connector-curvature="0"/>
          </g>
        </g>
      </g>
      <g id="g174">
        <g id="g176">
          <g id="g182">
            <path id="path192" style="fill-rule:evenodd;fill:url(#linearGradient184)" d="m8.078 26.36c-0.558 0.402-1.09 0.625-1.598 0.679h-0.64c1.414 0.43 2.773 0.016 4.082-1.238 0.637-0.641 1.144-1.32 1.519-2.039l1.161-4.922c-1.282 3.813-2.79 6.32-4.524 7.52z" inkscape:connector-curvature="0"/>
          </g>
        </g>
      </g>
      <g id="g194">
        <g id="g196">
          <g id="g202">
            <path id="path212" style="fill-rule:evenodd;fill:url(#linearGradient204)" d="m23.48 17.239c0.215 0.722 0.625 1.441 1.243 2.16 1.222 1.441 2.863 2.148 4.918 2.121l-2.039-0.84c-1.469-1.066-2.442-2.906-2.922-5.52-0.106-0.695-0.106-1.855 0-3.48 0.132-1.68 0.132-3.109 0-4.281l-1.2 9.84z" inkscape:connector-curvature="0"/>
          </g>
        </g>
      </g>
      <g id="g214">
        <g id="g216">
          <g id="g222">
            <path id="path232" style="fill-rule:evenodd;fill:url(#linearGradient224)" d="m14.441 34.559c-0.054 0.43 0.012 0.883 0.2 1.359 0.32 1.016 1.027 1.723 2.121 2.121l-0.883-0.84c-0.531-0.851-0.641-2.027-0.317-3.519 0.079-0.398 0.333-1.012 0.758-1.84 0.426-0.855 0.735-1.613 0.918-2.281l-2.797 5z" inkscape:connector-curvature="0"/>
          </g>
        </g>
      </g>
      <g id="g234">
        <g id="g236">
          <g id="g242">
            <path id="path258" style="fill-rule:evenodd;fill:url(#linearGradient244)" d="m28.121 54.078c0.317-1.89 0.399-3.371 0.238-4.437-0.64-4.613-2.812-7.481-6.519-8.602-3.332-1.011-6.106-0.504-8.32 1.52-1.598 1.414-2.559 3.359-2.879 5.84l-0.039 0.16c0-0.051-0.055-0.293-0.161-0.719-0.933-4.32 1.348-10.105 6.84-17.359 3.973-5.254 6.387-11.121 7.239-17.602 0.535-3.812 0.507-7.211-0.079-10.199-1.281-0.641-3.242-0.961-5.882-0.961-3.387 0-5.559 0.148-6.52 0.441 1.629 5.895 1.574 11.895-0.16 18-0.559 2.082-1.414 4.442-2.559 7.082-1.199 2.747-2.039 4.719-2.519 5.918-2.242 5.68-3.215 11.028-2.922 16.039 0.293 5.602 2.187 9.614 5.68 12.04 3.574 2.48 7.375 2.949 11.402 1.402s6.414-4.402 7.16-8.563z" inkscape:connector-curvature="0"/>
          </g>
        </g>
      </g>
      <g id="g260">
        <g id="g276" mask="url(#mask268)">
          <g id="g288">
            <g id="g290" clip-path="url(#clipPath280)">
              <g id="g292" transform="translate(0 -.46848)">
                <g id="g296">
                  <g id="g298" clip-path="url(#clipPath284)">
                    <g id="g300">
                      <path id="path302" style="fill-rule:evenodd;fill:#8dcc8a" d="m22.68 57.75c-1.707 1.918-3.614 2.984-5.719 3.199-2.215 0.215-4.133-0.066-5.762-0.84-2.265-1.066-3.879-2.988-4.84-5.761-0.984-2.852-1.48-5.891-1.48-9.118 0-2.668 0.32-5.121 0.961-7.363 0.746-2.586 1.961-6.012 3.64-10.277-0.773 1.199-1.585 2.84-2.441 4.918-1.707 4.16-2.746 8.469-3.117 12.922-0.402 4.906 0.199 8.906 1.797 12 1.281 2.504 3.148 4.304 5.601 5.398 2.641 1.149 5.332 1.414 8.078 0.801 2.829-0.641 5.067-2.082 6.723-4.32 1.414-1.946 2.184-4.282 2.32-7 0.133-2.829-0.507-5.282-1.921-7.36-0.508-0.828-1.227-1.586-2.161-2.281l-0.238-0.16c-1.121-0.719-2.414-1.172-3.883-1.36-1.172-0.16-2.265-0.132-3.277 0.082-1.629 0.372-3 1.2-4.121 2.477-1.254 1.414-1.973 3.203-2.16 5.363-0.188 2.184 0.226 4.094 1.242 5.719 0.957 1.52 2.183 2.399 3.68 2.641 1.543 0.265 2.89-0.16 4.039-1.282 1.254-1.171 1.828-2.757 1.718-4.757-0.105-1.95-0.879-3.227-2.32-3.844-1.332-0.586-2.398-0.399-3.199 0.562-0.453 0.559-0.547 1.2-0.281 1.918l0.519 0.922c-0.316-0.746-0.266-1.441 0.16-2.082 0.481-0.664 1.176-0.797 2.082-0.398 0.934 0.453 1.442 1.426 1.52 2.922 0.082 1.464-0.238 2.613-0.961 3.437-0.691 0.801-1.598 1.199-2.719 1.199-1.148 0-2.066-0.48-2.762-1.437-0.773-1.043-1.199-2.469-1.277-4.281-0.109-2 0.293-3.629 1.199-4.879 1.012-1.442 2.282-2.293 3.801-2.563 1.547-0.265 3.133 0.094 4.758 1.082 1.281 0.774 2.226 1.879 2.84 3.321 0.562 1.277 0.801 2.625 0.722 4.039-0.109 2.32-1.027 4.464-2.761 6.441z" inkscape:connector-curvature="0"/>
                    </g>
                  </g>
                </g>
              </g>
            </g>
          </g>
        </g>
      </g>
      <g id="g304">
        <g id="g320" mask="url(#mask312)">
          <g id="g332">
            <g id="g334" clip-path="url(#clipPath324)">
              <g id="g336" transform="translate(0 -.46848)">
                <g id="g340">
                  <g id="g342" clip-path="url(#clipPath328)">
                    <g id="g344">
                      <path id="path346" style="fill-rule:evenodd;fill:#70a834" d="m16.922 49.43c-0.453 0.691-0.363 1.531 0.277 2.519 0.586 0.985 1.106 0.985 1.563 0 0.316-0.773 0.199-1.558-0.364-2.359-0.558-0.774-1.05-0.828-1.476-0.16z" inkscape:connector-curvature="0"/>
                    </g>
                  </g>
                </g>
              </g>
            </g>
          </g>
        </g>
      </g>
      <g id="g348">
        <g id="g364" mask="url(#mask356)">
          <g id="g376">
            <g id="g378" clip-path="url(#clipPath368)">
              <g id="g380" transform="translate(0 -.46848)">
                <g id="g384">
                  <g id="g386" clip-path="url(#clipPath372)">
                    <g id="g388">
                      <path id="path390" style="fill-rule:evenodd;fill:#70a834" d="m14.16 53.668c0.028 0.266 0.16 0.535 0.399 0.801 0.296 0.347 0.695 0.535 1.203 0.558 0.476 0.028 0.84-0.066 1.078-0.277 0.265-0.215 0.254-0.535-0.039-0.961-0.403-0.535-0.961-0.812-1.68-0.84-0.695 0-1.016 0.239-0.961 0.719z" inkscape:connector-curvature="0"/>
                    </g>
                  </g>
                </g>
              </g>
            </g>
          </g>
        </g>
      </g>
      <g id="g392">
        <g id="g408" mask="url(#mask400)">
          <g id="g420">
            <g id="g422" clip-path="url(#clipPath412)">
              <g id="g424" transform="translate(0 -.46848)">
                <g id="g428">
                  <g id="g430" clip-path="url(#clipPath416)">
                    <g id="g432">
                      <path id="path434" style="fill-rule:evenodd;fill:#70a834" d="m12.52 49.469c-0.188 0.773 0 1.293 0.558 1.558 0.297 0.137 0.508-0.199 0.641-1 0.16-0.797 0.054-1.277-0.321-1.437-0.425-0.188-0.718 0.105-0.878 0.879z" inkscape:connector-curvature="0"/>
                    </g>
                  </g>
                </g>
              </g>
            </g>
          </g>
        </g>
      </g>
      <g id="g436">
        <g id="g452" mask="url(#mask444)">
          <g id="g464">
            <g id="g466" clip-path="url(#clipPath456)">
              <g id="g468" transform="translate(0 -.46848)">
                <g id="g472">
                  <g id="g474" clip-path="url(#clipPath460)">
                    <g id="g476">
                      <path id="path478" style="fill-rule:evenodd;fill:#70a834" d="m14.762 44.547c-1.121 0.855-1.203 1.414-0.242 1.683 0.48 0.133 1.265-0.175 2.359-0.921 1.066-0.747 1.281-1.266 0.641-1.559-0.747-0.32-1.665-0.055-2.758 0.797z" inkscape:connector-curvature="0"/>
                    </g>
                  </g>
                </g>
              </g>
            </g>
          </g>
        </g>
      </g>
      <g id="g480">
        <g id="g496" mask="url(#mask488)">
          <g id="g508">
            <g id="g510" clip-path="url(#clipPath500)">
              <g id="g512" transform="translate(0 -.46848)">
                <g id="g516">
                  <g id="g518" clip-path="url(#clipPath504)">
                    <g id="g520">
                      <path id="path522" style="fill-rule:evenodd;fill:#70a834" d="m22.762 49.109c0.879 0.586 1.398 0.465 1.558-0.359 0.078-0.48-0.054-1.109-0.398-1.883-0.457-0.984-1.082-1.652-1.883-2-0.934-0.371-1.519-0.41-1.758-0.117-0.242 0.293-0.109 0.934 0.399 1.918 0.535 1.094 1.226 1.906 2.082 2.441z" inkscape:connector-curvature="0"/>
                    </g>
                  </g>
                </g>
              </g>
            </g>
          </g>
        </g>
      </g>
      <g id="g524">
        <g id="g540" mask="url(#mask532)">
          <g id="g552">
            <g id="g554" clip-path="url(#clipPath544)">
              <g id="g556" transform="translate(0 -.46848)">
                <g id="g560">
                  <g id="g562" clip-path="url(#clipPath548)">
                    <g id="g564">
                      <path id="path566" style="fill-rule:evenodd;fill:#70a834" d="m21.039 55.988c-0.211 0.559-0.184 0.973 0.082 1.242 0.266 0.266 0.613 0.317 1.039 0.161 0.399-0.161 0.785-0.602 1.16-1.321 0.481-0.933 0.465-1.84-0.039-2.722-0.562-1.039-1.308-0.16-2.242 2.64z" inkscape:connector-curvature="0"/>
                    </g>
                  </g>
                </g>
              </g>
            </g>
          </g>
        </g>
      </g>
      <g id="g568">
        <g id="g584" mask="url(#mask576)">
          <g id="g596">
            <g id="g598" clip-path="url(#clipPath588)">
              <g id="g600" transform="translate(0 -.46848)">
                <g id="g604">
                  <g id="g606" clip-path="url(#clipPath592)">
                    <g id="g608">
                      <path id="path610" style="fill-rule:evenodd;fill:#70a834" d="m12.16 59.629c1.121 0.266 1.934 0.187 2.442-0.238 0.476-0.403 0.398-0.829-0.243-1.282-1.464-1.066-2.504-1.761-3.121-2.082-1.093-0.531-1.73-0.48-1.918 0.161-0.16 0.613 0.039 1.281 0.602 2 0.586 0.722 1.332 1.203 2.238 1.441z" inkscape:connector-curvature="0"/>
                    </g>
                  </g>
                </g>
              </g>
            </g>
          </g>
        </g>
      </g>
      <g id="g612">
        <g id="g628" mask="url(#mask620)">
          <g id="g640">
            <g id="g642" clip-path="url(#clipPath632)">
              <g id="g644" transform="translate(0 -.46848)">
                <g id="g648">
                  <g id="g650" clip-path="url(#clipPath636)">
                    <g id="g652">
                      <path id="path654" style="fill-rule:evenodd;fill:#70a834" d="m5.879 46.23c-0.211 1.145-0.106 2.305 0.32 3.477 0.481 1.254 1.106 1.496 1.879 0.723 0.242-0.266 0.402-1.028 0.481-2.282 0.109-1.386 0.027-2.507-0.239-3.359-0.293-0.906-0.734-1.148-1.32-0.719-0.559 0.426-0.934 1.145-1.121 2.16z" inkscape:connector-curvature="0"/>
                    </g>
                  </g>
                </g>
              </g>
            </g>
          </g>
        </g>
      </g>
      <g id="g656">
        <g id="g672" mask="url(#mask664)">
          <g id="g684">
            <g id="g686" clip-path="url(#clipPath676)">
              <g id="g688" transform="translate(0 -.46848)">
                <g id="g692">
                  <g id="g694" clip-path="url(#clipPath680)">
                    <g id="g696">
                      <path id="path698" style="fill-rule:evenodd;fill:#70a834" d="m9.121 38.828c0.934-0.238 1.84-1.437 2.719-3.598 0.961-2.269 0.906-3.789-0.16-4.562-0.559-0.398-1.215-0.16-1.961 0.723-0.664 0.773-1.227 1.812-1.68 3.117-0.453 1.308-0.613 2.387-0.48 3.242 0.136 0.957 0.656 1.32 1.562 1.078z" inkscape:connector-curvature="0"/>
                    </g>
                  </g>
                </g>
              </g>
            </g>
          </g>
        </g>
      </g>
      <g id="g700">
        <g id="g716" mask="url(#mask708)">
          <g id="g728">
            <g id="g730" clip-path="url(#clipPath720)">
              <g id="g732" transform="translate(0 -.46848)">
                <g id="g736">
                  <g id="g738" clip-path="url(#clipPath724)">
                    <g id="g740">
                      <path id="path742" style="fill-rule:evenodd;fill:#70a834" d="m13 23.629c-0.32 1.812-0.066 2.492 0.762 2.039 0.586-0.293 0.984-1.106 1.199-2.438 0.211-1.335 0.027-2.054-0.563-2.16-0.613-0.109-1.078 0.746-1.398 2.559z" inkscape:connector-curvature="0"/>
                    </g>
                  </g>
                </g>
              </g>
            </g>
          </g>
        </g>
      </g>
      <g id="g744">
        <g id="g760" mask="url(#mask752)">
          <g id="g772">
            <g id="g774" clip-path="url(#clipPath764)">
              <g id="g776" transform="translate(0 -.46848)">
                <g id="g780">
                  <g id="g782" clip-path="url(#clipPath768)">
                    <g id="g784">
                      <path id="path786" style="fill-rule:evenodd;fill:#70a834" d="m14.719 15.309c0.347-0.188 0.508-0.829 0.48-1.918-0.054-1.121-0.254-1.508-0.597-1.161-0.375 0.344-0.563 1.012-0.563 2 0 0.958 0.227 1.317 0.68 1.079z" inkscape:connector-curvature="0"/>
                    </g>
                  </g>
                </g>
              </g>
            </g>
          </g>
        </g>
      </g>
    </g>
  </g>
<metadata><rdf:RDF><cc:Work><dc:format>image/svg+xml</dc:format><dc:type rdf:resource="http://purl.org/dc/dcmitype/StillImage"/><cc:license rdf:resource="http://creativecommons.org/licenses/publicdomain/"/><dc:publisher><cc:Agent rdf:about="http://openclipart.org/"><dc:title>Openclipart</dc:title></cc:Agent></dc:publisher></cc:Work><cc:License rdf:about="http://creativecommons.org/licenses/publicdomain/"><cc:permits rdf:resource="http://creativecommons.org/ns#Reproduction"/><cc:permits rdf:resource="http://creativecommons.org/ns#Distribution"/><cc:permits rdf:resource="http://creativecommons.org/ns#DerivativeWorks"/></cc:License></rdf:RDF></metadata></svg>
