<?xml version="1.0" encoding="UTF-8" standalone="no"?>
<!-- Created with Inkscape (http://www.inkscape.org/) -->
<svg xmlns:inkscape="http://www.inkscape.org/namespaces/inkscape" xmlns:rdf="http://www.w3.org/1999/02/22-rdf-syntax-ns#" xmlns="http://www.w3.org/2000/svg" xmlns:xlink="http://www.w3.org/1999/xlink" xmlns:ns1="http://sozi.baierouge.fr" xmlns:cc="http://creativecommons.org/ns#" xmlns:sodipodi="http://sodipodi.sourceforge.net/DTD/sodipodi-0.dtd" xmlns:dc="http://purl.org/dc/elements/1.1/" id="svg2" xml:space="preserve" viewBox="0 0 90.227 89.899" version="1.1" inkscape:version="0.91 r13725">
  <defs id="defs6">
    <clipPath id="clipPath30">
      <path id="path32" d="m41.34 48.662c1.433-1.797 2.422-3.805 2.969-6.028 0.597-2.418 0.675-4.753 0.238-7.011-0.477-2.43-1.508-4.297-3.09-5.594-1.582-1.301-3.148-2.242-4.699-2.832-1.246-0.473-2.781-0.785-4.602-0.945-2.183-0.207-8.078-1.118-17.683-2.735l-0.071 0.043-0.34-0.144c-1.207-0.297-2.503 0.519-3.886 2.453-1.387 1.933-2.453 4.418-3.199 7.461-0.75 3.039-0.957 5.738-0.625 8.094 0.328 2.355 1.097 3.679 2.308 3.976 0.231 0.059 0.52 0.066 0.86 0.027 8.558 2.848 14.062 4.758 16.511 5.731 1.723 0.715 3.227 1.168 4.5 1.355 1.688 0.211 3.508 0.121 5.461-0.269 2.008-0.414 3.789-1.61 5.348-3.582z" inkscape:connector-curvature="0"/>
    </clipPath>
    <clipPath id="clipPath38">
      <path id="path40" d="m841.11-15632h37.381v31.925h-37.381v-31.925z" inkscape:connector-curvature="0"/>
    </clipPath>
    <linearGradient id="linearGradient42" y2="-15617" gradientUnits="userSpaceOnUse" x2="873.5" y1="-15617" x1="846.65">
      <stop id="stop44" style="stop-color:#ffffff;stop-opacity:.83920" offset="0"/>
      <stop id="stop46" style="stop-color:#ffffff" offset="1"/>
    </linearGradient>
    <mask id="mask48">
      <g id="g50">
        <g id="g52" clip-path="url(#clipPath38)">
          <path id="path54" style="fill:url(#linearGradient42)" d="m841.11-15632h37.381v31.925h-37.381v-31.925z" inkscape:connector-curvature="0"/>
        </g>
      </g>
    </mask>
    <linearGradient id="linearGradient58" y2="-15617" gradientUnits="userSpaceOnUse" x2="873.5" y1="-15617" x1="846.65">
      <stop id="stop60" style="stop-color:#8a570c" offset="0"/>
      <stop id="stop62" style="stop-color:#604706" offset="1"/>
    </linearGradient>
    <linearGradient id="linearGradient76" y2="-853.27" gradientUnits="userSpaceOnUse" x2="674.31" gradientTransform="matrix(.28756 -1.1694 1.1694 .28756 832.62 1059.6)" y1="-853.27" x1="653.19">
      <stop id="stop78" style="stop-color:#b07a1d" offset="0"/>
      <stop id="stop80" style="stop-color:#9a6a19" offset=".0275"/>
      <stop id="stop84" style="stop-color:#7f5814" offset=".0627"/>
      <stop id="stop86" style="stop-color:#69480f" offset=".102"/>
      <stop id="stop88" style="stop-color:#583c0c" offset=".149"/>
      <stop id="stop90" style="stop-color:#4d340a" offset=".2078"/>
      <stop id="stop92" style="stop-color:#462f08" offset=".2902"/>
      <stop id="stop94" style="stop-color:#442e08" offset=".51370"/>
      <stop id="stop96" style="stop-color:#4a3209" offset=".61180"/>
      <stop id="stop98" style="stop-color:#5c3f0c" offset=".74510"/>
      <stop id="stop100" style="stop-color:#785312" offset=".898"/>
      <stop id="stop102" style="stop-color:#8e6216" offset=".99220"/>
      <stop id="stop104" style="stop-color:#8e6216" offset="1"/>
    </linearGradient>
    <clipPath id="clipPath118">
      <path id="path120" d="m8.336 40.92c-0.121-0.692-0.145-1.606-0.07-2.746 0.121-1.665 0.609-4.5 1.472-8.504-1.203 1.355-2.156 3.89-2.863 7.605-0.285 1.332-0.316 2.629-0.086 3.883 0.207 1.168 0.496 1.754 0.867 1.766 0.293-0.012 0.504-0.208 0.641-0.59 0.144-0.418 0.156-0.891 0.039-1.414z" inkscape:connector-curvature="0"/>
    </clipPath>
    <clipPath id="clipPath126">
      <path id="path128" d="m15850-15164h12.873v5.872h-12.873v-5.872z" inkscape:connector-curvature="0"/>
    </clipPath>
    <radialGradient id="radialGradient130" gradientUnits="userSpaceOnUse" cy="-15161" cx="15848" r="12.657">
      <stop id="stop132" style="stop-color:#ffffff;stop-opacity:0" offset="0"/>
      <stop id="stop134" style="stop-color:#ffffff;stop-opacity:.62750" offset="1"/>
    </radialGradient>
    <mask id="mask136">
      <g id="g138">
        <g id="g140" clip-path="url(#clipPath126)">
          <path id="path142" style="fill:url(#radialGradient130)" d="m15850-15164h12.873v5.872h-12.873v-5.872z" inkscape:connector-curvature="0"/>
        </g>
      </g>
    </mask>
    <radialGradient id="radialGradient146" gradientUnits="userSpaceOnUse" cy="-15161" cx="15848" r="12.657">
      <stop id="stop148" style="stop-color:#f8e8b9" offset="0"/>
      <stop id="stop150" style="stop-color:#f8e8b9" offset="1"/>
    </radialGradient>
    <clipPath id="clipPath158">
      <path id="path160" d="m39.863 44.826-1.425 1.015c-1.137 0.754-2.086 1.243-2.844 1.473-3.219 0.985-5.422 0.36-6.61-1.875-0.527-1.039-0.488-3.219 0.125-6.543 0.286-1.668 0.649-3.23 1.09-4.691-0.672 0.207-1.367 2.125-2.094 5.746-0.476 2.445-0.652 4.742-0.515 6.883 0.066 1.586 0.23 2.597 0.492 3.035 0.121 0.195 0.32 0.14 0.602-0.164l0.39-0.586c0.059 0.262 0.203 0.527 0.426 0.789 0.5 0.492 1.215 0.773 2.152 0.836 1.508 0.082 3.032-0.309 4.567-1.172 2.039-1.066 3.254-2.648 3.644-4.746z" inkscape:connector-curvature="0"/>
    </clipPath>
    <clipPath id="clipPath166">
      <path id="path168" d="m-2189.1-6527.3h17.096v15.27h-17.096v-15.27z" inkscape:connector-curvature="0"/>
    </clipPath>
    <radialGradient id="radialGradient170" gradientUnits="userSpaceOnUse" cy="-6519.4" cx="-2177.2" r="13.001">
      <stop id="stop172" style="stop-color:#ffffff;stop-opacity:0" offset="0"/>
      <stop id="stop174" style="stop-color:#ffffff;stop-opacity:.62750" offset="1"/>
    </radialGradient>
    <mask id="mask176">
      <g id="g178">
        <g id="g180" clip-path="url(#clipPath166)">
          <path id="path182" style="fill:url(#radialGradient170)" d="m-2189.1-6527.3h17.096v15.27h-17.096v-15.27z" inkscape:connector-curvature="0"/>
        </g>
      </g>
    </mask>
    <radialGradient id="radialGradient186" gradientUnits="userSpaceOnUse" cy="-6519.4" cx="-2177.2" r="13.001">
      <stop id="stop188" style="stop-color:#f8e8b9" offset="0"/>
      <stop id="stop190" style="stop-color:#f8e8b9" offset="1"/>
    </radialGradient>
    <clipPath id="clipPath198">
      <path id="path200" d="m40.707 36.603 0.781 1.617c0.625-2.035 0.282-4.004-1.031-5.894-0.957-1.477-2.125-2.527-3.5-3.156-0.859-0.375-1.625-0.461-2.297-0.254-0.32 0.129-0.566 0.293-0.742 0.5l-0.074-0.703c-0.11-0.399-0.262-0.539-0.457-0.422-0.282 0.14-0.715 0.652-1.309 1.539-0.734 1.144-1.433 2.48-2.101 4.011 0.875-1.191 2.082-1.824 3.632-1.898 1.672-0.418 3.422 0.281 5.25 2.098 0.567 0.55 1.184 1.406 1.848 2.562z" inkscape:connector-curvature="0"/>
    </clipPath>
    <clipPath id="clipPath206">
      <path id="path208" d="m650.85-853.16h14.141v14.019h-14.141v-14.019z" inkscape:connector-curvature="0"/>
    </clipPath>
    <radialGradient id="radialGradient210" gradientUnits="userSpaceOnUse" cy="-848.05" cx="663.7" r="13.019">
      <stop id="stop212" style="stop-color:#ffffff;stop-opacity:0" offset="0"/>
      <stop id="stop214" style="stop-color:#ffffff;stop-opacity:.10979" offset="1"/>
    </radialGradient>
    <mask id="mask216">
      <g id="g218">
        <g id="g220" clip-path="url(#clipPath206)">
          <path id="path222" style="fill:url(#radialGradient210)" d="m650.85-853.16h14.141v14.019h-14.141v-14.019z" inkscape:connector-curvature="0"/>
        </g>
      </g>
    </mask>
    <radialGradient id="radialGradient226" gradientUnits="userSpaceOnUse" cy="-848.05" cx="663.7" r="13.019">
      <stop id="stop228" style="stop-color:#f8e8b9" offset="0"/>
      <stop id="stop230" style="stop-color:#f8e8b9" offset="1"/>
    </radialGradient>
    <linearGradient id="linearGradient246" y2="-858.25" gradientUnits="userSpaceOnUse" x2="673.93" gradientTransform="matrix(.28756 -1.1694 1.1694 .28756 832.62 1059.6)" y1="-858.25" x1="654.27">
      <stop id="stop248" style="stop-color:#f9edc7" offset="0"/>
      <stop id="stop250" style="stop-color:#f4e8c1" offset=".0196"/>
      <stop id="stop252" style="stop-color:#d4c79d" offset=".1608"/>
      <stop id="stop254" style="stop-color:#bcaf83" offset=".2902"/>
      <stop id="stop256" style="stop-color:#aea073" offset=".40780"/>
      <stop id="stop258" style="stop-color:#a99b6d" offset=".498"/>
      <stop id="stop260" style="stop-color:#aea072" offset=".58820"/>
      <stop id="stop262" style="stop-color:#bbad82" offset="0.698"/>
      <stop id="stop264" style="stop-color:#d0c49c" offset=".82350"/>
      <stop id="stop266" style="stop-color:#eee3bf" offset=".9569"/>
      <stop id="stop268" style="stop-color:#f9eecc" offset="1"/>
    </linearGradient>
    <linearGradient id="linearGradient294" y2="-836.25" gradientUnits="userSpaceOnUse" x2="669.79" gradientTransform="matrix(.28756 -1.1694 1.1694 .28756 832.62 1059.6)" y1="-836.25" x1="659.31">
      <stop id="stop296" style="stop-color:#b07a1d" offset="0"/>
      <stop id="stop298" style="stop-color:#9a6a19" offset=".0275"/>
      <stop id="stop302" style="stop-color:#7f5814" offset=".0627"/>
      <stop id="stop304" style="stop-color:#69480f" offset=".102"/>
      <stop id="stop306" style="stop-color:#583c0c" offset=".149"/>
      <stop id="stop308" style="stop-color:#4d340a" offset=".2078"/>
      <stop id="stop310" style="stop-color:#462f08" offset=".2902"/>
      <stop id="stop312" style="stop-color:#442e08" offset=".51370"/>
      <stop id="stop314" style="stop-color:#4a3209" offset=".61180"/>
      <stop id="stop316" style="stop-color:#5c3f0c" offset=".74510"/>
      <stop id="stop318" style="stop-color:#785312" offset=".898"/>
      <stop id="stop320" style="stop-color:#8e6216" offset=".99220"/>
      <stop id="stop322" style="stop-color:#8e6216" offset="1"/>
    </linearGradient>
    <linearGradient id="linearGradient350" y2="-833.17" gradientUnits="userSpaceOnUse" x2="670.95" gradientTransform="matrix(.28756 -1.1694 1.1694 .28756 832.62 1059.6)" y1="-833.17" x1="658.35">
      <stop id="stop352" style="stop-color:#b07a1d" offset="0"/>
      <stop id="stop354" style="stop-color:#9a6a19" offset=".0275"/>
      <stop id="stop358" style="stop-color:#7f5814" offset=".0627"/>
      <stop id="stop360" style="stop-color:#69480f" offset=".102"/>
      <stop id="stop362" style="stop-color:#583c0c" offset=".149"/>
      <stop id="stop364" style="stop-color:#4d340a" offset=".2078"/>
      <stop id="stop366" style="stop-color:#462f08" offset=".2902"/>
      <stop id="stop368" style="stop-color:#442e08" offset=".51370"/>
      <stop id="stop370" style="stop-color:#4a3209" offset=".61180"/>
      <stop id="stop372" style="stop-color:#5c3f0c" offset=".74510"/>
      <stop id="stop374" style="stop-color:#785312" offset=".898"/>
      <stop id="stop376" style="stop-color:#8e6216" offset=".99220"/>
      <stop id="stop378" style="stop-color:#8e6216" offset="1"/>
    </linearGradient>
    <linearGradient id="linearGradient400" y2="-16289" gradientUnits="userSpaceOnUse" x2="16275" gradientTransform="matrix(-.67288 -.43048 .43048 -.67288 17972 -3883.3)" y1="-16289" x1="16270">
      <stop id="stop402" style="stop-color:#c2a164" offset="0"/>
      <stop id="stop404" style="stop-color:#706341" offset="1"/>
    </linearGradient>
    <linearGradient id="linearGradient420" y2="-16289" gradientUnits="userSpaceOnUse" x2="16279" gradientTransform="matrix(-.67288 -.43048 .43048 -.67288 17972 -3883.3)" y1="-16289" x1="16278">
      <stop id="stop422" style="stop-color:#c2a164" offset="0"/>
      <stop id="stop424" style="stop-color:#706341" offset="1"/>
    </linearGradient>
    <linearGradient id="linearGradient440" y2="-977.96" gradientUnits="userSpaceOnUse" x2="17152" gradientTransform="matrix(-.50369 .61997 -.61997 -.50369 8042.8 -11057)" y1="-977.96" x1="17150">
      <stop id="stop442" style="stop-color:#c2a164" offset="0"/>
      <stop id="stop444" style="stop-color:#706341" offset="1"/>
    </linearGradient>
    <linearGradient id="linearGradient460" y2="-16287" gradientUnits="userSpaceOnUse" x2="16281" gradientTransform="matrix(-.67288 -.43048 .43048 -.67288 17972 -3883.3)" y1="-16287" x1="16279">
      <stop id="stop462" style="stop-color:#c2a164" offset="0"/>
      <stop id="stop464" style="stop-color:#706341" offset="1"/>
    </linearGradient>
    <linearGradient id="linearGradient480" y2="-1017.4" gradientUnits="userSpaceOnUse" x2="17183" gradientTransform="matrix(-.50664 .61761 -.61761 -.50664 8086.1 -11061)" y1="-1017.4" x1="17182">
      <stop id="stop482" style="stop-color:#c2a164" offset="0"/>
      <stop id="stop484" style="stop-color:#706341" offset="1"/>
    </linearGradient>
    <linearGradient id="linearGradient502" y2="-16288" gradientUnits="userSpaceOnUse" x2="16273" gradientTransform="matrix(-.67288 -.43048 .43048 -.67288 17972 -3883.3)" y1="-16288" x1="16272">
      <stop id="stop504" style="stop-color:#c2a164" offset="0"/>
      <stop id="stop506" style="stop-color:#706341" offset="1"/>
    </linearGradient>
    <linearGradient id="linearGradient522" y2="-1117.5" gradientUnits="userSpaceOnUse" x2="17256" gradientTransform="matrix(-.51308 .61226 -.61226 -.51308 8181.8 -11070)" y1="-1117.5" x1="17254">
      <stop id="stop524" style="stop-color:#c2a164" offset="0"/>
      <stop id="stop526" style="stop-color:#706341" offset="1"/>
    </linearGradient>
    <linearGradient id="linearGradient540" y2="-1021.5" gradientUnits="userSpaceOnUse" x2="17182" gradientTransform="matrix(-.50673 .61746 -.61746 -.50673 8087.9 -11061)" y1="-1021.5" x1="17180">
      <stop id="stop542" style="stop-color:#c2a164" offset="0"/>
      <stop id="stop544" style="stop-color:#706341" offset="1"/>
    </linearGradient>
    <linearGradient id="linearGradient558" y2="-997.8" gradientUnits="userSpaceOnUse" x2="17165" gradientTransform="matrix(-.50531 .61865 -.61865 -.50531 8066.8 -11059)" y1="-997.8" x1="17164">
      <stop id="stop560" style="stop-color:#c2a164" offset="0"/>
      <stop id="stop562" style="stop-color:#706341" offset="1"/>
    </linearGradient>
    <linearGradient id="linearGradient576" y2="-851.2" gradientUnits="userSpaceOnUse" x2="17046" gradientTransform="matrix(-.49528 .62668 -.62668 -.49528 7919.8 -11043)" y1="-851.2" x1="17045">
      <stop id="stop578" style="stop-color:#c2a164" offset="0"/>
      <stop id="stop580" style="stop-color:#706341" offset="1"/>
    </linearGradient>
    <linearGradient id="linearGradient594" y2="-16288" gradientUnits="userSpaceOnUse" x2="16285" gradientTransform="matrix(-.67288 -.43048 .43048 -.67288 17972 -3883.3)" y1="-16288" x1="16281">
      <stop id="stop596" style="stop-color:#c2a164" offset="0"/>
      <stop id="stop598" style="stop-color:#706341" offset="1"/>
    </linearGradient>
    <linearGradient id="linearGradient612" y2="-961.22" gradientUnits="userSpaceOnUse" x2="17147" gradientTransform="matrix(-.50333 .62030 -.62030 -.50333 8037.5 -11056)" y1="-961.22" x1="17144">
      <stop id="stop614" style="stop-color:#c2a164" offset="0"/>
      <stop id="stop616" style="stop-color:#706341" offset="1"/>
    </linearGradient>
    <linearGradient id="linearGradient630" y2="-1046.9" gradientUnits="userSpaceOnUse" x2="17210" gradientTransform="matrix(-.50898 .61564 -.61564 -.50898 8121 -11064)" y1="-1046.9" x1="17207">
      <stop id="stop632" style="stop-color:#c2a164" offset="0"/>
      <stop id="stop634" style="stop-color:#706341" offset="1"/>
    </linearGradient>
    <linearGradient id="linearGradient648" y2="-1002.8" gradientUnits="userSpaceOnUse" x2="17176" gradientTransform="matrix(-.50614 .61802 -.61802 -.50614 8078.8 -11060)" y1="-1002.8" x1="17174">
      <stop id="stop650" style="stop-color:#c2a164" offset="0"/>
      <stop id="stop652" style="stop-color:#706341" offset="1"/>
    </linearGradient>
    <linearGradient id="linearGradient666" y2="-890.43" gradientUnits="userSpaceOnUse" x2="17088" gradientTransform="matrix(-.49856 .62411 -.62411 -.49856 7967.4 -11049)" y1="-890.43" x1="17087">
      <stop id="stop668" style="stop-color:#c2a164" offset="0"/>
      <stop id="stop670" style="stop-color:#706341" offset="1"/>
    </linearGradient>
  </defs>
  <g id="g10" transform="matrix(1.25 0 0 -1.25 0 89.899)">
    <g id="g12">
      <path id="path14" style="fill-rule:evenodd;fill:#a17b34" d="m66.965 0.111c0.074 0.047 0.14 0.102 0.203 0.156l0.34 0.524c-0.094-0.094-0.223-0.176-0.383-0.242-0.309-0.129-0.586-0.102-0.832 0.078-0.227 0.172-0.27 0.632-0.137 1.382 0.196 1.102 0.293 1.774 0.285 2.016 0.02 0.836-0.179 2.031-0.597 3.586 0.004-0.082 0-0.16-0.016-0.234 0 0.265-0.023 0.468-0.07 0.609 0.476-0.73 0.922-1.539 1.336-2.418 0.82-1.797 1.074-3.172 0.765-4.117-0.254-0.711-0.55-1.16-0.894-1.34zm-1.289 0.73c0.101-0.273 0.281-0.492 0.531-0.664 0.176-0.125 0.348-0.183 0.516-0.168-0.118-0.019-0.239-0.003-0.364 0.047-0.343 0.114-0.57 0.375-0.683 0.785zm1.801 0.665c0.222 0.406 0.273 0.937 0.152 1.589l-0.274 0.856c0.016-0.676-0.023-1.219-0.121-1.617-0.05-0.289-0.179-0.614-0.379-0.973-0.179-0.34-0.183-0.516-0.011-0.52 0.179-0.019 0.39 0.204 0.633 0.665z" inkscape:connector-curvature="0"/>
      <path id="path16" style="fill-rule:evenodd;fill:#ffffff" d="m67.477 1.506c-0.243-0.461-0.454-0.684-0.633-0.665-0.172 0.004-0.168 0.18 0.011 0.52 0.2 0.359 0.329 0.684 0.379 0.973 0.098 0.398 0.137 0.941 0.121 1.617l0.274-0.856c0.121-0.652 0.07-1.183-0.152-1.589z" inkscape:connector-curvature="0"/>
      <path id="path18" style="fill-rule:evenodd;fill:#785c27" d="m65.676 0.841c-0.059 0.184-0.102 0.391-0.129 0.614-0.02 0.25 0.023 0.789 0.121 1.621 0.082 0.691 0.137 2.125 0.16 4.301 0.016 0.074 0.02 0.152 0.016 0.234 0.418-1.555 0.617-2.75 0.597-3.586 0.008-0.242-0.089-0.914-0.285-2.016-0.133-0.75-0.09-1.21 0.137-1.382 0.246-0.18 0.523-0.207 0.832-0.078 0.16 0.066 0.289 0.148 0.383 0.242l-0.34-0.524c-0.063-0.054-0.129-0.109-0.203-0.156-0.074-0.051-0.156-0.086-0.242-0.102-0.168-0.015-0.34 0.043-0.516 0.168-0.25 0.172-0.43 0.391-0.531 0.664z" inkscape:connector-curvature="0"/>
      <path id="path20" style="fill-rule:evenodd;fill:#a17b34" d="m71.254 2.4c0.074 0.055 0.141 0.109 0.199 0.168l0.313 0.539c-0.086-0.098-0.211-0.187-0.371-0.262-0.301-0.14-0.579-0.125-0.833 0.043-0.234 0.164-0.296 0.621-0.195 1.379 0.149 1.106 0.211 1.782 0.195 2.024-0.015 0.836-0.265 2.023-0.753 3.558 0.007-0.086 0.007-0.164-0.008-0.238-0.008 0.27-0.043 0.473-0.098 0.609 0.508-0.711 0.992-1.496 1.445-2.359 0.895-1.762 1.207-3.121 0.942-4.078-0.223-0.727-0.5-1.184-0.836-1.383zm-1.316 0.676c0.113-0.266 0.3-0.481 0.558-0.637 0.184-0.121 0.356-0.168 0.524-0.148-0.118-0.028-0.239-0.016-0.368 0.031-0.347 0.098-0.586 0.352-0.714 0.754zm1.769 0.746c0.203 0.414 0.231 0.945 0.082 1.594l-0.309 0.84c0.043-0.676 0.028-1.215-0.05-1.622-0.039-0.289-0.153-0.617-0.336-0.988-0.168-0.347-0.164-0.519 0.008-0.515 0.179-0.012 0.382 0.218 0.605 0.691z" inkscape:connector-curvature="0"/>
      <path id="path22" style="fill-rule:evenodd;fill:#ffffff" d="m71.707 3.822c-0.223-0.473-0.426-0.703-0.605-0.691-0.172-0.004-0.176 0.168-0.008 0.515 0.183 0.371 0.297 0.699 0.336 0.988 0.078 0.407 0.093 0.946 0.05 1.622l0.309-0.84c0.149-0.649 0.121-1.18-0.082-1.594z" inkscape:connector-curvature="0"/>
      <path id="path24" style="fill-rule:evenodd;fill:#785c27" d="m69.938 3.076c-0.067 0.18-0.122 0.387-0.157 0.609-0.031 0.25-0.011 0.789 0.051 1.625 0.051 0.692 0.043 2.125-0.031 4.301 0.015 0.074 0.015 0.152 0.008 0.238 0.488-1.535 0.738-2.722 0.753-3.558 0.016-0.242-0.046-0.918-0.195-2.024-0.101-0.758-0.039-1.215 0.195-1.379 0.254-0.168 0.532-0.183 0.833-0.043 0.16 0.075 0.285 0.164 0.371 0.262l-0.313-0.539c-0.058-0.059-0.125-0.113-0.199-0.168-0.07-0.051-0.149-0.09-0.234-0.109-0.168-0.02-0.34 0.027-0.524 0.148-0.258 0.156-0.445 0.371-0.558 0.637z" inkscape:connector-curvature="0"/>
      <g id="g26">
        <g id="g28" clip-path="url(#clipPath30)">
          <g id="g34" transform="matrix(-1.1694 -.28760 .28639 -1.1697 5503.4 -17981)">
            <g id="g56" mask="url(#mask48)">
              <path id="path64" style="fill-rule:evenodd;fill:url(#linearGradient58)" d="m41.34 48.662c1.433-1.797 2.422-3.805 2.969-6.028 0.597-2.418 0.675-4.753 0.238-7.011-0.477-2.43-1.508-4.297-3.09-5.594-1.582-1.301-3.148-2.242-4.699-2.832-1.246-0.473-2.781-0.785-4.602-0.945-2.183-0.207-8.078-1.118-17.683-2.735l-0.071 0.043-0.34-0.144c-1.207-0.297-2.503 0.519-3.886 2.453-1.387 1.933-2.453 4.418-3.199 7.461-0.75 3.039-0.957 5.738-0.625 8.094 0.328 2.355 1.097 3.679 2.308 3.976 0.231 0.059 0.52 0.066 0.86 0.027 8.558 2.848 14.062 4.758 16.511 5.731 1.723 0.715 3.227 1.168 4.5 1.355 1.688 0.211 3.508 0.121 5.461-0.269 2.008-0.414 3.789-1.61 5.348-3.582z" inkscape:connector-curvature="0"/>
            </g>
          </g>
        </g>
      </g>
      <g id="g66">
        <g id="g68">
          <g id="g74">
            <path id="path106" style="fill-rule:evenodd;fill:url(#linearGradient76)" d="m41.34 48.662c1.433-1.797 2.422-3.805 2.969-6.028 0.597-2.418 0.675-4.753 0.238-7.011-0.477-2.43-1.508-4.297-3.09-5.594-1.582-1.301-3.148-2.242-4.699-2.832-1.246-0.473-2.781-0.785-4.602-0.945-2.183-0.207-8.078-1.118-17.683-2.735l-0.071 0.043-0.34-0.144c-1.207-0.297-2.503 0.519-3.886 2.453-1.387 1.933-2.453 4.418-3.199 7.461-0.75 3.039-0.957 5.738-0.625 8.094 0.328 2.355 1.097 3.679 2.308 3.976 0.231 0.059 0.52 0.066 0.86 0.027 8.558 2.848 14.062 4.758 16.511 5.731 1.723 0.715 3.227 1.168 4.5 1.355 1.688 0.211 3.508 0.121 5.461-0.269 2.008-0.414 3.789-1.61 5.348-3.582z" inkscape:connector-curvature="0"/>
          </g>
        </g>
      </g>
      <path id="path108" style="fill-rule:evenodd;fill:#be892f" d="m29.164 37.92c0.524-2.309 1.398-4.598 2.617-6.86 0.567-1.144 1.102-2.047 1.594-2.707-0.59 0.555-1.23 1.391-1.918 2.504-1.375 2.223-2.371 4.77-2.992 7.633-0.613 2.824-0.766 5.539-0.453 8.137l0.613 3.062-0.195-4.512c-0.157-2.722 0.09-5.144 0.734-7.257z" inkscape:connector-curvature="0"/>
      <path id="path110" style="fill-rule:evenodd;fill:#ba924a" d="m42.637 33.545 0.918 2.828 0.843-1.407c-0.554-2.121-1.535-3.765-2.941-4.937-1.582-1.297-3.148-2.242-4.699-2.832-1.246-0.469-2.781-0.785-4.602-0.945-2.183-0.207-8.078-1.118-17.683-2.735l-0.071 0.043-0.34-0.144c-0.542-0.133-1.156 0.004-1.835 0.418l0.437-0.02c0.555-0.066 0.957-0.031 1.211 0.113 0.508 0.289 0.781 0.442 0.82 0.45 11.7 1.679 17.93 2.57 18.688 2.675 0.48 0.075 0.738 0.2 0.777 0.375l-0.07 0.293c0.113-0.136 0.39-0.171 0.832-0.105 0.922 0.101 2.207 0.605 3.844 1.504 1.687 0.871 2.98 2.344 3.871 4.426z" inkscape:connector-curvature="0"/>
      <path id="path112" style="fill-rule:evenodd;fill:#ba924a" d="m40.977 49.131-0.125-1.766-2.125 2.082c-1.754 1.43-3.582 2.137-5.481 2.125-1.859-0.004-3.23-0.152-4.105-0.453-0.411-0.184-0.641-0.34-0.688-0.477l-0.074 0.289c-0.113 0.141-0.402 0.129-0.859-0.023-0.715-0.301-6.645-2.399-17.797-6.297-0.039-0.012-0.352-0.004-0.938 0.016-0.289 0.011-0.664-0.145-1.125-0.461-0.137-0.117-0.34-0.211-0.613-0.278 0.449 0.856 0.988 1.36 1.609 1.512 0.235 0.059 0.524 0.066 0.864 0.027 8.558 2.848 14.062 4.758 16.507 5.735 1.727 0.715 3.231 1.164 4.504 1.355 1.688 0.207 3.508 0.117 5.461-0.269 1.781-0.348 3.442-1.387 4.985-3.117z" inkscape:connector-curvature="0"/>
      <g id="g114">
        <g id="g116" clip-path="url(#clipPath118)">
          <g id="g122" transform="matrix(-.24848 1.1783 1.1679 .24633 21655 -14912)">
            <g id="g144" mask="url(#mask136)">
              <path id="path152" style="fill-rule:evenodd;fill:url(#radialGradient146)" d="m8.336 40.92c-0.121-0.692-0.145-1.606-0.07-2.746 0.121-1.665 0.609-4.5 1.472-8.504-1.203 1.355-2.156 3.89-2.863 7.605-0.285 1.332-0.316 2.629-0.086 3.883 0.207 1.168 0.496 1.754 0.867 1.766 0.293-0.012 0.504-0.208 0.641-0.59 0.144-0.418 0.156-0.891 0.039-1.414z" inkscape:connector-curvature="0"/>
            </g>
          </g>
        </g>
      </g>
      <g id="g154">
        <g id="g156" clip-path="url(#clipPath158)">
          <g id="g162" transform="matrix(-.44219 -1.1201 -1.1168 .44094 -8211.8 474.81)">
            <g id="g184" mask="url(#mask176)">
              <path id="path192" style="fill-rule:evenodd;fill:url(#radialGradient186)" d="m39.863 44.826-1.425 1.015c-1.137 0.754-2.086 1.243-2.844 1.473-3.219 0.985-5.422 0.36-6.61-1.875-0.527-1.039-0.488-3.219 0.125-6.543 0.286-1.668 0.649-3.23 1.09-4.691-0.672 0.207-1.367 2.125-2.094 5.746-0.476 2.445-0.652 4.742-0.515 6.883 0.066 1.586 0.23 2.597 0.492 3.035 0.121 0.195 0.32 0.14 0.602-0.164l0.39-0.586c0.059 0.262 0.203 0.527 0.426 0.789 0.5 0.492 1.215 0.773 2.152 0.836 1.508 0.082 3.032-0.309 4.567-1.172 2.039-1.066 3.254-2.648 3.644-4.746z" inkscape:connector-curvature="0"/>
            </g>
          </g>
        </g>
      </g>
      <g id="g194">
        <g id="g196" clip-path="url(#clipPath198)">
          <g id="g202" transform="matrix(-.91108 .78746 -.78470 -.90794 -29.058 -1252.9)">
            <g id="g224" mask="url(#mask216)">
              <path id="path232" style="fill-rule:evenodd;fill:url(#radialGradient226)" d="m40.707 36.603 0.781 1.617c0.625-2.035 0.282-4.004-1.031-5.894-0.957-1.477-2.125-2.527-3.5-3.156-0.859-0.375-1.625-0.461-2.297-0.254-0.32 0.129-0.566 0.293-0.742 0.5l-0.074-0.703c-0.11-0.399-0.262-0.539-0.457-0.422-0.282 0.14-0.715 0.652-1.309 1.539-0.734 1.144-1.433 2.48-2.101 4.011 0.875-1.191 2.082-1.824 3.632-1.898 1.672-0.418 3.422 0.281 5.25 2.098 0.567 0.55 1.184 1.406 1.848 2.562z" inkscape:connector-curvature="0"/>
            </g>
          </g>
        </g>
      </g>
      <path id="path234" style="fill-rule:evenodd;fill:#3d2a07" d="m41.34 48.662c1.433-1.797 2.422-3.805 2.969-6.028 0.597-2.418 0.675-4.753 0.238-7.011-0.477-2.43-1.508-4.297-3.09-5.594-0.645-0.484-1.277-0.926-1.902-1.34 1.316 0.899 2.316 1.871 3.004 2.91 0.746 1.176 0.832 2.004 0.257 2.481-0.941 0.804-1.691 2.004-2.25 3.601-0.691 2.145-0.566 4.078 0.375 5.797 0.45 0.856 0.664 1.59 0.637 2.203-0.086 0.848-0.617 1.914-1.594 3.203-0.863 1.153-2.429 2.317-4.703 3.497l0.715-0.133c2.004-0.418 3.785-1.614 5.344-3.586z" inkscape:connector-curvature="0"/>
      <g id="g236">
        <g id="g238">
          <g id="g244">
            <path id="path270" style="fill-rule:evenodd;fill:url(#linearGradient246)" d="m31.16 29.791c0.707-1.192 1.309-2.035 1.801-2.535l-8.457-0.899c-3.039-0.254-6.453-0.738-10.242-1.465-0.469 0.215-1.012 0.742-1.629 1.582-1.203 1.692-2.18 4.075-2.938 7.153l-0.031 0.117c-0.746 3.039-0.988 5.625-0.726 7.758l0.679 2.273c3.656 1.106 6.891 2.234 9.711 3.379l7.926 3.066-0.391-2.945c-0.109-2.59 0.25-5.562 1.075-8.914 0.824-3.352 1.898-6.211 3.222-8.57z" inkscape:connector-curvature="0"/>
          </g>
        </g>
      </g>
      <path id="path272" style="fill-rule:evenodd;fill:#ead8b8" d="m36.887 48.623c0.25-0.52 0.25-0.848-0.004-0.992-0.227-0.098-0.574-0.02-1.051 0.238-0.281 0.137-0.777 0.387-1.488 0.75-0.535 0.32-0.723 0.668-0.567 1.039 0.2 0.379 0.735 0.387 1.61 0.023 0.785-0.347 1.285-0.699 1.5-1.058z" inkscape:connector-curvature="0"/>
      <path id="path274" style="fill-rule:evenodd;fill:#ead8b8" d="m33.195 49.513c0.016-0.41-0.191-0.566-0.629-0.464-0.437 0.097-0.664 0.332-0.671 0.703 0.011 0.293 0.234 0.386 0.671 0.289 0.438-0.098 0.649-0.278 0.629-0.528z" inkscape:connector-curvature="0"/>
      <path id="path276" style="fill-rule:evenodd;fill:#ead8b8" d="m28.863 47.455c-0.156-0.535-0.332-1.258-0.519-2.172-0.117-0.527-0.235-0.641-0.352-0.336-0.097 0.391-0.117 0.984-0.066 1.781 0.09 0.809 0.207 1.352 0.344 1.633 0.125 0.324 0.289 0.34 0.48 0.059 0.156-0.293 0.191-0.614 0.113-0.965z" inkscape:connector-curvature="0"/>
      <path id="path278" style="fill-rule:evenodd;fill:#ead8b8" d="m7.914 41.127c-0.16-0.536-0.336-1.243-0.535-2.118-0.109-0.562-0.223-0.695-0.336-0.39-0.098 0.387-0.125 1.004-0.082 1.84 0.09 0.808 0.207 1.351 0.344 1.632 0.136 0.282 0.3 0.282 0.496 0 0.144-0.253 0.179-0.578 0.113-0.964z" inkscape:connector-curvature="0"/>
      <path id="path280" style="fill-rule:evenodd;fill:#3d2a07" d="m19.594 36.99c0.886 0.094 1.461 0.195 1.722 0.301 0.907 0.347 1.231 0.965 0.973 1.851-0.105 0.594-0.211 1.024-0.316 1.285-0.203 0.489-0.578 0.664-1.121 0.532-0.625-0.153-1.106-0.477-1.438-0.973-0.305-0.445-0.398-0.902-0.281-1.371 0.027-0.117 0.078-0.496 0.156-1.141 0.035-0.32 0.141-0.48 0.305-0.484zm-0.309-0.262c-0.144 0.254-0.32 0.379-0.523 0.367-0.235-0.054-0.352-0.168-0.352-0.332 0.008-0.203 0.164-0.332 0.465-0.382 0.305-0.051 0.465 0.05 0.484 0.304l-0.074 0.043zm0.129-0.523-0.07 0.043c-0.547 0.031-0.782-0.11-0.703-0.422 0.019-0.078 0.164-0.082 0.437-0.016 0.078 0.02 0.192 0.149 0.336 0.395zm3.316-3.156c0.547 0.136 0.797 0.464 0.75 0.992-0.152 0.625-0.242 1.074-0.269 1.359-0.184 0.906-0.758 1.301-1.719 1.188-0.285-0.028-0.84-0.207-1.668-0.532-0.148-0.078-0.16-0.269-0.047-0.57 0.172-0.535 0.285-0.902 0.332-1.098 0.125-0.507 0.426-0.886 0.903-1.14 0.523-0.285 1.097-0.352 1.718-0.199zm2.735 8.3c0.484-0.789 0.859-1.812 1.129-3.07 0.316-1.121 0.445-2.227 0.383-3.316-0.165-1.2-0.805-2.039-1.926-2.52-0.567-0.223-1.285-0.316-2.16-0.285-0.914 0.023-1.567 0.152-1.957 0.391-0.582 0.351-0.93 0.593-1.047 0.73l0.449-0.57c0.125-0.176 0.082-0.332-0.133-0.465-0.187-0.09-0.375-0.074-0.57 0.043-0.477 0.258-0.824 0.586-1.047 0.984-0.125 0.176-0.184 0.574-0.172 1.199l-0.234-0.308-1.125 0.035-0.774-0.129-0.32 0.789-0.344 1.402 0.047 0.075-0.086 0.847 0.731 0.305 0.98 0.551c0.27-0.266 0.395-0.336 0.363-0.219-0.297 0.547-0.437 0.945-0.418 1.195 0.09 0.477 0.27 0.914 0.547 1.313 0.117 0.195 0.278 0.297 0.481 0.305 0.215-0.028 0.3-0.129 0.261-0.305l-0.074-0.703 0.547 1.066c0.262 0.438 0.793 0.879 1.594 1.32 0.773 0.399 1.457 0.629 2.062 0.696 1.258 0.101 2.196-0.352 2.813-1.356z" inkscape:connector-curvature="0"/>
      <path id="path282" style="fill-rule:evenodd;fill:#3d2a07" d="m18.059 28.615c-0.012-0.293-0.137-0.465-0.368-0.524-0.39-0.097-0.921 0.208-1.589 0.911-0.243 0.312-0.11 0.695 0.398 1.152-0.562 0.605-1.043 1.211-1.438 1.816l-1.046 1.481c-0.071-0.555-0.067-1.156 0.007-1.797l0.094-2.148c0.176-0.04 0.375-0.094 0.602-0.161 0.394-0.109 0.625-0.281 0.683-0.515 0.121-0.84-0.031-1.309-0.461-1.414-0.386-0.098-0.785 0.093-1.195 0.574l-0.234-0.305c-0.242-0.187-0.5-0.23-0.774-0.129-0.445 0.137-0.687 0.614-0.722 1.434-0.02 0.242 0.164 0.414 0.554 0.508l0.598 0.086 0.004 4.031-0.059-0.016 0.121 1.024-0.566 0.789 0.043 0.074-1.871 3.57c-0.692-0.379-1.125-0.379-1.297-0.011-0.352 0.742-0.359 1.277-0.023 1.609 0.195 0.211 0.445 0.273 0.757 0.184l0.352-0.161c0.129 0.653 0.391 1.004 0.793 1.063 0.426 0.105 0.777-0.223 1.047-0.981 0.093-0.39-0.18-0.789-0.824-1.195l0.925-2.004c0.274-0.597 0.543-1.109 0.813-1.539l0.672 4.074c-0.649 0.129-0.946 0.407-0.887 0.836 0.238 0.883 0.57 1.379 1 1.485 0.223 0.097 0.41 0.019 0.555-0.235 0.074-0.148 0.129-0.277 0.156-0.394 0.461 0.484 0.855 0.64 1.187 0.476 0.387-0.234 0.418-0.785 0.094-1.652-0.105-0.398-0.512-0.602-1.215-0.609l-0.488-2.289c-0.211-1.168-0.344-2.133-0.406-2.891 0.336-0.535 0.906-1.328 1.699-2.371l1.512-1.863c0.144 0.078 0.316 0.14 0.511 0.187 0.391 0.098 0.672 0.043 0.848-0.164 0.649-0.625 0.871-1.105 0.664-1.445-0.215-0.301-0.637-0.344-1.269-0.129l0.043-0.422z" inkscape:connector-curvature="0"/>
      <g id="g284">
        <g id="g286">
          <g id="g292">
            <path id="path324" style="fill-rule:evenodd;fill:url(#linearGradient294)" d="m50.582 44.115 0.387-1.578c0.394-1.766 0.515-3.016 0.363-3.754-0.227-0.926-0.355-1.41-0.383-1.461-0.148-0.406-0.504-0.641-1.07-0.695l-5.828-0.754-1.27 0.867c-0.937 0.969-1.621 2.312-2.043 4.027l-0.043 0.172c-0.422 1.715-0.433 3.199-0.039 4.457l0.719 1.356 5.5 2.093c0.535 0.176 0.957 0.133 1.27-0.121 0.097-0.058 0.441-0.449 1.031-1.172 0.476-0.586 0.945-1.73 1.406-3.437z" inkscape:connector-curvature="0"/>
          </g>
        </g>
      </g>
      <path id="path326" style="fill-rule:evenodd;fill:#ba924a" d="m44.051 35.873-0.789 0.429c0.449 0.028 1.004 0.122 1.668 0.286 0.683 0.25 1.179 0.414 1.492 0.488l0.289 0.074c0.059-0.234 0.043-0.426-0.043-0.57l-0.207-0.422-2.41-0.285z" inkscape:connector-curvature="0"/>
      <path id="path328" style="fill-rule:evenodd;fill:#ba924a" d="m46.012 48.322c-0.418 0.023-0.758-0.289-1.012-0.93l-4.094-1.254 0.469 0.61 4.711 1.781 0.176 0.043-0.25-0.25z" inkscape:connector-curvature="0"/>
      <path id="path330" style="fill-rule:evenodd;fill:#3d2a07" d="m48.145 48.724-1.883-0.152 0.101 0.086 0.512 0.187c0.457 0.157 0.883 0.114 1.27-0.121z" inkscape:connector-curvature="0"/>
      <path id="path332" style="fill-rule:evenodd;fill:#3d2a07" d="m50.582 44.115 0.387-1.578c0.394-1.766 0.515-3.016 0.363-3.754-0.227-0.926-0.355-1.41-0.383-1.461-0.148-0.406-0.504-0.641-1.07-0.695l-0.176-0.043-0.765 2.105-0.602-0.582c-0.469-0.445-1.008-0.766-1.625-0.957-0.055 0.234-0.238 0.477-0.551 0.731-0.457 0.343-1.14 0.359-2.058 0.054l-0.79-0.32c-0.148-0.078-0.437-0.25-0.863-0.524-0.691 0.782-1.207 1.793-1.551 3.032 0.551-0.567 1.051-0.922 1.5-1.059 0.36-0.117 0.75-0.105 1.168 0.039 0.438 0.235 0.793 0.383 1.067 0.449 0.16 1.364 0.234 2.082 0.215 2.161-0.219 1.722-0.313 2.691-0.282 2.906 0.051 0.801 0.188 1.762 0.407 2.89l0.113 0.032c0.391 0.093 1.047 0.027 1.973-0.2l1.253-0.312 0.864 0.523c0.476-0.586 0.945-1.73 1.406-3.437z" inkscape:connector-curvature="0"/>
      <path id="path334" style="fill-rule:evenodd;fill:#3d2a07" d="m46.711 37.15c0.617 0.191 1.156 0.512 1.625 0.957l0.602 0.582 0.765-2.105-3.242-0.43 0.207 0.426c0.086 0.144 0.102 0.336 0.043 0.57z" inkscape:connector-curvature="0"/>
      <path id="path336" style="fill-rule:evenodd;fill:#3d2a07" d="m46.246 48.631 1.899 0.093c0.058-0.066 0.386-0.441 0.988-1.121l-0.821-0.574-1.253 0.312c-0.926 0.227-1.582 0.293-1.973 0.2l-0.113-0.032c0.078 0.024 0.226 0.184 0.437 0.481 0.215 0.301 0.406 0.453 0.574 0.453l0.262 0.188z" inkscape:connector-curvature="0"/>
      <path id="path338" style="fill-rule:evenodd;fill:#8b7848" d="m41.016 44.181c-0.176 0.039-0.368 0.157-0.582 0.352l0.175 0.789 1.668 0.535c1.09 0.266 1.817 0.344 2.176 0.223-0.43-0.934-1.074-1.504-1.933-1.715-0.778-0.191-1.282-0.254-1.504-0.184z" inkscape:connector-curvature="0"/>
      <g id="g340">
        <g id="g342">
          <g id="g348">
            <path id="path380" style="fill-rule:evenodd;fill:url(#linearGradient350)" d="m51.43 47.982c0.82-1.492 1.375-2.906 1.66-4.242 0.367-1.316 0.535-2.844 0.508-4.586-0.036-1.539-0.184-2.445-0.45-2.715-0.183-0.254-0.753-0.539-1.71-0.855-0.868-0.336-1.454-0.481-1.754-0.43-0.407-0.02-0.996 0.52-1.758 1.613-1 1.364-1.754 3.082-2.262 5.149-0.508 2.066-0.637 3.933-0.387 5.609 0.172 1.32 0.442 2.07 0.813 2.246 0.293 0.153 0.879 0.297 1.754 0.43 0.996 0.16 1.633 0.172 1.914 0.035 0.359-0.117 0.918-0.871 1.672-2.254z" inkscape:connector-curvature="0"/>
          </g>
        </g>
      </g>
      <path id="path382" style="fill-rule:evenodd;fill:#ba924a" d="m49.758 50.236c-0.098-0.105-0.238-0.367-0.426-0.785-0.148-0.41-0.289-0.672-0.426-0.789-0.117 0.469-0.211 0.773-0.289 0.922-0.148 0.254-0.449 0.386-0.906 0.398-0.707 0.031-1.211-0.031-1.504-0.183l-0.262-0.192 0.145 0.16c0.293 0.157 0.879 0.301 1.754 0.434 0.953 0.152 1.594 0.164 1.914 0.035z" inkscape:connector-curvature="0"/>
      <path id="path384" style="fill-rule:evenodd;fill:#ba924a" d="m50.234 41.982c0.078-0.144 0.278-0.777 0.594-1.898 0.277-0.801 0.555-1.414 0.824-1.844l0.743-0.996c0.183-0.246 0.484-0.461 0.902-0.649l-0.149-0.156c-0.183-0.254-0.753-0.539-1.71-0.855-0.868-0.34-1.454-0.485-1.754-0.434-0.457 0.012-1.102 0.617-1.934 1.82 0.582-0.519 0.941-0.804 1.074-0.851 0.594-0.227 1.27-0.203 2.031 0.066 0.672 0.289 1.012 0.598 1.012 0.93 0.012 0.125-0.25 0.598-0.781 1.418-0.254 0.351-0.469 0.898-0.652 1.641-0.25 1.011-0.317 1.617-0.2 1.808z" inkscape:connector-curvature="0"/>
      <path id="path386" style="fill-rule:evenodd;fill:#8b7848" d="m47.273 46.463c-0.386 0.07-0.632-0.114-0.73-0.551-0.063-0.262-0.121-0.61-0.18-1.035-0.254-0.477-0.441-0.481-0.554-0.012-0.086 0.348-0.094 0.719-0.028 1.109 0.051 0.465 0.086 0.825 0.106 1.078 0.109 0.399 0.301 0.633 0.574 0.7 0.855 0.211 1.426 0.164 1.707-0.137-0.086-0.145-0.102-0.336-0.043-0.57 0.035-0.157 0.105-0.344 0.203-0.571l-0.5-0.246c-0.223-0.097-0.41-0.019-0.555 0.235z" inkscape:connector-curvature="0"/>
      <path id="path388" style="fill-rule:evenodd;fill:#251a04" d="m52.52 39.009c-0.313-0.074-0.668 0.27-1.063 1.043-0.398 0.77-0.738 1.739-1.027 2.911-0.285 1.168-0.434 2.187-0.442 3.054-0.004 0.864 0.149 1.336 0.461 1.414 0.274 0.067 0.625-0.281 1.059-1.043 0.398-0.769 0.738-1.738 1.027-2.91 0.289-1.168 0.434-2.187 0.442-3.051-0.036-0.878-0.188-1.351-0.457-1.418z" inkscape:connector-curvature="0"/>
      <g id="g390">
        <g id="g392">
          <g id="g398">
            <path id="path406" style="fill-rule:evenodd;fill:url(#linearGradient400)" d="m10.109 71.677-0.101-0.062c-0.785-0.504-1.246-0.77-1.387-0.797-0.348 0-0.457 0.074-0.328 0.219 0.019 0.012 0.074 0.031 0.152 0.051l0.137 0.086c0.379 0.148 0.836 0.3 1.371 0.453 0.067 0.043 0.129 0.066 0.192 0.074l-0.036-0.024z" inkscape:connector-curvature="0"/>
          </g>
        </g>
      </g>
      <path id="path408" style="fill-rule:evenodd;fill:#a88b56" d="m0 64.357c0.262 0.926 1.59 2.328 3.988 4.211 1.395 1.082 2.828 1.906 4.305 2.469-0.129-0.145-0.02-0.219 0.328-0.219 0.141 0.027 0.602 0.293 1.387 0.797l0.101 0.062c0.477 0.157 0.903 0.235 1.266 0.243l0.027-0.598c-0.054-0.422-0.238-0.809-0.558-1.164-1.149-0.328-1.785-0.641-1.91-0.942 0-0.039 0.007-0.082 0.031-0.121l0.14-0.148 0.02-0.031 0.242-0.082 0.422-0.063c0.125-0.047 0.246-0.066 0.363-0.051-0.082-0.023-0.175-0.05-0.277-0.086-0.437-0.152-0.676-0.226-0.715-0.218-0.265 0.019-0.488 0.144-0.668 0.379-0.133-0.086-0.18-0.164-0.137-0.231l0.106-0.312c-0.023-0.11-0.086-0.211-0.184-0.305l-1.347-0.863c-1.344-0.86-2.164-1.356-2.465-1.481l-2.52-0.808c-0.019-0.012-0.23-0.082-0.621-0.207-0.234-0.086-0.449-0.114-0.656-0.09-0.242 0.035-0.465-0.012-0.668-0.141zm6.746 5.168-0.41-0.023-0.16-0.2c-0.016-0.074 0.004-0.105 0.062-0.101l0.508 0.324zm-0.414-1.355-0.703-0.309c-0.238-0.121-0.441-0.25-0.606-0.387-0.277-0.207-0.328-0.383-0.144-0.515l0.871 0.414 0.473 0.301c0.07 0.14 0.105 0.304 0.109 0.496zm3.91 2.929c0.461 0.168 0.664 0.395 0.61 0.676l-0.739-0.473c0.035-0.105 0.078-0.171 0.129-0.203zm-6.164-3.187-0.539-0.344c-1.098-0.703-1.512-1.219-1.238-1.547l1.48 0.945c0.36 0.231 0.563 0.407 0.61 0.532 0.054 0.16 0.054 0.289-0.004 0.375-0.071 0.113-0.176 0.129-0.309 0.039z" inkscape:connector-curvature="0"/>
      <g id="g410">
        <g id="g412">
          <g id="g418">
            <path id="path426" style="fill-rule:evenodd;fill:url(#linearGradient420)" d="m6.746 69.525-0.508-0.324c-0.058-0.004-0.078 0.027-0.062 0.101l0.16 0.2 0.41 0.023z" inkscape:connector-curvature="0"/>
          </g>
        </g>
      </g>
      <path id="path428" style="fill-rule:evenodd;fill:#cca869" d="m10.152 68.72-4.035-2.586c-0.785-0.5-1.551-0.91-2.297-1.23-0.789-0.348-1.55-0.566-2.281-0.652l-1.539 0.105c0.203 0.129 0.422 0.176 0.668 0.141 0.207-0.024 0.422 0.004 0.656 0.09 0.391 0.125 0.602 0.195 0.621 0.207l2.52 0.808c0.301 0.125 1.121 0.621 2.465 1.481l1.347 0.863c0.098 0.094 0.161 0.195 0.184 0.305l-0.106 0.312c-0.043 0.067 0.004 0.145 0.137 0.231 0.18-0.235 0.403-0.36 0.668-0.379 0.039-0.008 0.278 0.066 0.715 0.218 0.102 0.036 0.195 0.063 0.277 0.086z" inkscape:connector-curvature="0"/>
      <g id="g430">
        <g id="g432">
          <g id="g438">
            <path id="path446" style="fill-rule:evenodd;fill:url(#linearGradient440)" d="m10.559 68.455c-0.286 0.101-0.457 0.168-0.508 0.199l0.101 0.066c-0.117-0.015-0.238 0.004-0.363 0.051l-0.422 0.063-0.242 0.082-0.02 0.031-0.14 0.148c0.055 0.258 0.305 0.465 0.742 0.618 0.047 0.015 0.094 0.027 0.141 0.043 0.093 0.027 0.203 0.046 0.316 0.058 0.274 0.113 0.496 0.067 0.66-0.144 0.16-0.246 0.235-0.465 0.231-0.657-0.035-0.339-0.2-0.527-0.496-0.558z" inkscape:connector-curvature="0"/>
          </g>
        </g>
      </g>
      <path id="path448" style="fill-rule:evenodd;fill:#a68e54" d="m4.105 59.494-0.105 0.168 0.18 0.16c-0.219 0.492-0.422 0.617-0.614 0.367-0.527 0.676-0.925 1.149-1.191 1.418l-2.375 2.75 1.539-0.105c0.731 0.086 1.492 0.304 2.281 0.652l0.2-0.016c0.554-0.023 0.914-0.015 1.074 0.028 0.824 0.144 1.547 0.101 2.172-0.133 0.152-0.09 0.418-0.281 0.796-0.578 0.352-0.25 0.657-0.309 0.918-0.172-0.042 0.164 0.036 0.262 0.239 0.293 0.168-0.016 0.328-0.07 0.484-0.164 0.231-0.168 0.422-0.438 0.57-0.821 0.055-0.183 0.051-0.328-0.007-0.429-0.145-0.125-0.254-0.227-0.328-0.305-0.258-0.289-0.282-0.672-0.079-1.141-0.226-0.335-0.476-0.464-0.746-0.382-0.039-0.09-0.035-0.196 0.016-0.325 0.078-0.168 0.09-0.289 0.035-0.355-0.039-0.184-0.184-0.305-0.426-0.367-0.129 0.203-0.332 0.246-0.609 0.133-0.34-0.157-0.574-0.258-0.703-0.309-0.586-0.215-1.16-0.187-1.715 0.09-0.012-0.231-0.066-0.391-0.164-0.485-0.199-0.285-0.504-0.351-0.914-0.207l-0.528 0.235zm5.946 9.16c0.051-0.031 0.222-0.098 0.508-0.199-0.254 0-0.434 0.058-0.539 0.179l0.031 0.02zm0.793 1.504c0.32 0.355 0.504 0.742 0.558 1.164-0.035-0.32-0.144-0.629-0.332-0.926l-0.156-0.195-0.172-0.11c-0.336-0.132-0.633-0.246-0.894-0.335-0.047-0.016-0.094-0.028-0.141-0.043-0.437-0.153-0.687-0.36-0.742-0.618-0.024 0.039-0.031 0.082-0.031 0.121 0.121 0.301 0.761 0.614 1.91 0.942zm-5.223-12.59-0.133 0.059 0.035 0.023c0.016-0.023 0.047-0.051 0.098-0.082zm7.996 9.813-0.555 1.015-1.687 3.524 4.137-8.024-1.895 3.485zm-10.656-5.207c0.203-0.219 0.434-0.356 0.691-0.411 0.25-0.093 0.457-0.074 0.621 0.063 0.309 0.359 0.254 0.812-0.164 1.367-0.203 0.219-0.449 0.359-0.746 0.426-0.246 0.094-0.449 0.058-0.597-0.102-0.332-0.371-0.266-0.816 0.195-1.343zm2.519 1.468c-0.382-0.687-0.183-1.238 0.59-1.66 0.746-0.473 1.356-0.367 1.836 0.32 0.242 0.313 0.051 0.856-0.57 1.629-0.246 0.285-0.488 0.395-0.734 0.332-0.164-0.039-0.438-0.183-0.817-0.425l-0.305-0.196zm-0.113-1.968-0.379-0.149c-0.156-0.098-0.183-0.258-0.078-0.473 0.059-0.187 0.16-0.324 0.317-0.418 0.218-0.144 0.55-0.074 1 0.215-0.27 0.617-0.555 0.895-0.86 0.825zm2.418-4c-0.347-0.09-0.668-0.153-0.969-0.192l-0.054 0.012c0.058 0.004 0.129 0.019 0.211 0.039 0.261 0.027 0.531 0.074 0.812 0.141z" inkscape:connector-curvature="0"/>
      <g id="g450">
        <g id="g452">
          <g id="g458">
            <path id="path466" style="fill-rule:evenodd;fill:url(#linearGradient460)" d="m6.332 68.17c-0.004-0.192-0.039-0.356-0.109-0.496l-0.473-0.301-0.871-0.414c-0.184 0.132-0.133 0.308 0.144 0.515 0.165 0.137 0.364 0.266 0.606 0.387l0.703 0.309z" inkscape:connector-curvature="0"/>
          </g>
        </g>
      </g>
      <path id="path468" style="fill-rule:evenodd;fill:#8c7347" d="m4.906 58.392-0.801 1.102 0.528-0.235c0.41-0.144 0.715-0.078 0.914 0.207 0.098 0.094 0.152 0.254 0.164 0.485 0.555-0.277 1.129-0.305 1.715-0.09 0.129 0.051 0.363 0.152 0.703 0.309 0.277 0.113 0.48 0.07 0.609-0.133 0.242 0.062 0.387 0.183 0.426 0.367 0.055 0.066 0.043 0.187-0.035 0.355-0.051 0.129-0.055 0.235-0.016 0.325 0.27-0.082 0.52 0.047 0.746 0.382-0.203 0.469-0.179 0.852 0.079 1.141 0.074 0.078 0.183 0.18 0.328 0.305 0.062 0.101 0.062 0.246 0.007 0.429-0.148 0.383-0.339 0.653-0.57 0.821-0.156 0.094-0.316 0.148-0.484 0.164-0.203-0.031-0.281-0.129-0.239-0.293-0.261-0.137-0.566-0.078-0.918 0.172-0.378 0.297-0.644 0.488-0.796 0.578-0.625 0.234-1.348 0.277-2.172 0.133-0.16-0.043-0.52-0.051-1.074-0.028l-0.2 0.016c0.746 0.32 1.512 0.73 2.297 1.23l3.903 2.5c0.105-0.121 0.289-0.179 0.539-0.179 0.183-0.039 0.363-0.004 0.543 0.113 0.187 0.152 0.25 0.348 0.191 0.594-0.035 0.105-0.168 0.336-0.398 0.695l-0.153 0.234 0.172 0.11c0.441-0.695 0.586-1.192 0.426-1.485-0.125-0.203-0.371-0.41-0.746-0.617-0.418-0.234-0.692-0.222-0.828 0.039-0.567-0.203-0.977-0.402-1.231-0.597l-1.57-0.957c1.164 0.461 2.004 0.699 2.531 0.718 0.192-0.003 0.484-0.07 0.883-0.195 0.168-0.016 0.371-0.062 0.605-0.133 0.207-0.027 0.383-0.152 0.524-0.375 0.101-0.156 0.109-0.468 0.027-0.929-0.082-0.465-0.066-0.786 0.051-0.965 0.055-0.09 0.18-0.188 0.371-0.285l0.051-0.676c-0.02-0.363-0.024-0.555-0.008-0.578l0.379-0.371c0.187-0.293 0.199-0.536 0.043-0.735-0.113-0.168-0.289-0.261-0.527-0.289-0.239-0.023-0.415-0.043-0.532-0.055l-0.09-0.531-0.16-0.195-0.113-0.266c-0.309-0.258-0.527-0.461-0.656-0.605-0.16-0.391-0.356-0.656-0.578-0.801-0.09-0.055-0.664-0.297-1.719-0.719-0.172-0.078-0.27-0.125-0.293-0.14-0.043-0.028-0.125 0-0.242 0.082-0.098 0.16-0.242 0.258-0.426 0.297-0.383 0.007-0.606 0.007-0.664 0.003-0.172-0.425-0.492-0.617-0.965-0.57l-0.551 0.121zm3.996 7.391c0.297-0.313 0.551-0.418 0.77-0.313 0.242 0.063 0.305 0.262 0.187 0.594-0.207 0.375-0.488 0.59-0.839 0.649l-0.239-0.153c-0.254-0.191-0.215-0.453 0.121-0.777zm1.696-1.758-0.223 0.047c-0.008-0.133 0.102-0.379 0.332-0.738 0.199 0.035 0.32 0.113 0.367 0.238-0.14 0.32-0.301 0.469-0.476 0.453zm0.234-2.742c-0.117 0.082-0.254 0.074-0.41-0.027l-0.352 0.109c-0.105-0.481 0.004-0.727 0.328-0.738 0.422-0.016 0.567 0.203 0.434 0.656z" inkscape:connector-curvature="0"/>
      <g id="g470">
        <g id="g472">
          <g id="g478">
            <path id="path486" style="fill-rule:evenodd;fill:url(#linearGradient480)" d="m8.902 65.783c-0.336 0.324-0.375 0.586-0.121 0.777l0.239 0.153c0.351-0.059 0.632-0.274 0.839-0.649 0.118-0.332 0.055-0.531-0.187-0.594-0.219-0.105-0.473 0-0.77 0.313z" inkscape:connector-curvature="0"/>
          </g>
        </g>
      </g>
      <path id="path488" style="fill-rule:evenodd;fill:#735e39" d="m10.914 70.201 0.156 0.195 0.457-0.562c0.172-0.172 0.309-0.481 0.403-0.926 0.125-0.301 0.347-0.695 0.664-1.188 0.113-0.179 0.164-0.355 0.144-0.523-0.019-0.363-0.023-0.555-0.011-0.578 0.035-0.102 0.242-0.445 0.613-1.031 0.027-0.043 0.16-0.149 0.394-0.317 0.145-0.129 0.243-0.254 0.289-0.383 0.215-0.527 0.266-0.906 0.157-1.132-0.313-0.297-0.422-0.571-0.325-0.825-0.242-0.215-0.441-0.519-0.605-0.906-0.262-0.578-0.43-0.91-0.504-0.988-0.168-0.235-0.812-0.711-1.934-1.426-0.425-0.273-0.968-0.59-1.624-0.945-0.336-0.215-0.618-0.348-0.84-0.395-0.508-0.043-0.868-0.097-1.075-0.168l-0.882-0.328-0.868-0.125-0.035-0.023-0.582 0.765 0.551-0.121c0.473-0.047 0.793 0.145 0.965 0.57 0.058 0.004 0.281 0.004 0.664-0.003 0.184-0.039 0.328-0.137 0.426-0.297 0.117-0.082 0.199-0.11 0.242-0.082 0.023 0.015 0.121 0.062 0.293 0.14 1.055 0.422 1.629 0.664 1.719 0.719 0.222 0.145 0.418 0.41 0.578 0.801 0.129 0.144 0.347 0.347 0.656 0.605l0.113 0.266 0.16 0.195 0.09 0.531c0.117 0.012 0.293 0.032 0.532 0.055 0.238 0.028 0.414 0.121 0.527 0.289 0.156 0.199 0.144 0.442-0.043 0.735l-0.379 0.371c-0.016 0.023-0.012 0.215 0.008 0.578l-0.051 0.676c-0.191 0.097-0.316 0.195-0.371 0.285-0.117 0.179-0.133 0.5-0.051 0.965 0.082 0.461 0.074 0.773-0.027 0.929-0.141 0.223-0.317 0.348-0.524 0.375-0.234 0.071-0.437 0.117-0.605 0.133-0.399 0.125-0.691 0.192-0.883 0.195-0.527-0.019-1.371-0.257-2.531-0.718l1.57 0.957c0.254 0.195 0.664 0.394 1.231 0.597 0.136-0.261 0.41-0.273 0.828-0.039 0.375 0.207 0.625 0.414 0.746 0.617 0.16 0.293 0.015 0.79-0.426 1.485zm1.699-4.887c-0.031 0.199-0.179 0.406-0.441 0.617l-0.402-0.257c-0.188-0.149-0.196-0.36-0.024-0.629 0.145-0.227 0.324-0.313 0.547-0.266 0.328 0.082 0.434 0.262 0.32 0.535z" inkscape:connector-curvature="0"/>
      <path id="path490" style="fill-rule:evenodd;fill:#4d4027" d="m6.762 57.494-1.141 0.074c-0.051 0.031-0.082 0.059-0.098 0.082l0.868 0.125 0.882 0.328c0.207 0.071 0.567 0.125 1.075 0.168 0.222 0.047 0.504 0.18 0.84 0.395 0.656 0.355 1.199 0.672 1.624 0.945 1.122 0.715 1.766 1.191 1.934 1.426 0.074 0.078 0.242 0.41 0.504 0.988 0.164 0.387 0.363 0.691 0.605 0.906-0.097 0.254 0.012 0.528 0.325 0.825 0.109 0.226 0.058 0.605-0.157 1.132-0.046 0.129-0.144 0.254-0.289 0.383-0.234 0.168-0.367 0.274-0.394 0.317-0.371 0.586-0.578 0.929-0.613 1.031-0.012 0.023-0.008 0.215 0.011 0.578 0.02 0.168-0.031 0.344-0.144 0.523-0.317 0.493-0.539 0.887-0.664 1.188-0.094 0.445-0.231 0.754-0.403 0.926l-0.457 0.562c0.188 0.297 0.297 0.606 0.332 0.926l-0.027 0.598 1.687-3.524c-0.226-0.14-0.183-0.383 0.129-0.722 0.215-0.239 0.36-0.336 0.426-0.293l1.895-3.485c0.031-0.293-0.11-0.715-0.422-1.265-0.641-1.075-1.86-2.153-3.66-3.243l-2.934-1.496c-0.203-0.07-0.398-0.133-0.59-0.187l-0.121-0.031c-0.281-0.067-0.551-0.114-0.812-0.141-0.082-0.02-0.153-0.035-0.211-0.039z" inkscape:connector-curvature="0"/>
      <g id="g492">
        <g id="g494">
          <g id="g500">
            <path id="path508" style="fill-rule:evenodd;fill:url(#linearGradient502)" d="m10.242 71.099c-0.051 0.032-0.094 0.098-0.129 0.203l0.739 0.473c0.054-0.281-0.149-0.508-0.61-0.676z" inkscape:connector-curvature="0"/>
          </g>
        </g>
      </g>
      <path id="path510" style="fill-rule:evenodd;fill:#615031" d="m10.742 70.091 0.153-0.234c0.23-0.359 0.363-0.59 0.398-0.695 0.059-0.246-0.004-0.442-0.191-0.594-0.18-0.117-0.36-0.152-0.543-0.113 0.296 0.031 0.461 0.219 0.496 0.558 0.004 0.192-0.071 0.411-0.231 0.657-0.164 0.211-0.386 0.257-0.66 0.144-0.113-0.012-0.223-0.031-0.316-0.058 0.261 0.089 0.558 0.203 0.894 0.335z" inkscape:connector-curvature="0"/>
      <g id="g512">
        <g id="g514">
          <g id="g520">
            <path id="path528" style="fill-rule:evenodd;fill:url(#linearGradient522)" d="m13.062 68.396 0.555-1.015c-0.066-0.043-0.211 0.054-0.426 0.293-0.312 0.339-0.355 0.582-0.129 0.722z" inkscape:connector-curvature="0"/>
          </g>
        </g>
      </g>
      <g id="g530">
        <g id="g532">
          <g id="g538">
            <path id="path546" style="fill-rule:evenodd;fill:url(#linearGradient540)" d="m12.613 65.314c0.114-0.273 0.008-0.453-0.32-0.535-0.223-0.047-0.402 0.039-0.547 0.266-0.172 0.269-0.164 0.48 0.024 0.629l0.402 0.257c0.262-0.211 0.41-0.418 0.441-0.617z" inkscape:connector-curvature="0"/>
          </g>
        </g>
      </g>
      <g id="g548">
        <g id="g550">
          <g id="g556">
            <path id="path564" style="fill-rule:evenodd;fill:url(#linearGradient558)" d="m10.598 64.025c0.175 0.016 0.336-0.133 0.476-0.453-0.047-0.125-0.168-0.203-0.367-0.238-0.23 0.359-0.34 0.605-0.332 0.738l0.223-0.047z" inkscape:connector-curvature="0"/>
          </g>
        </g>
      </g>
      <g id="g566">
        <g id="g568">
          <g id="g574">
            <path id="path582" style="fill-rule:evenodd;fill:url(#linearGradient576)" d="m10.832 61.283c0.133-0.453-0.012-0.672-0.434-0.656-0.324 0.011-0.433 0.257-0.328 0.738l0.352-0.109c0.156 0.101 0.293 0.109 0.41 0.027z" inkscape:connector-curvature="0"/>
          </g>
        </g>
      </g>
      <g id="g584">
        <g id="g586">
          <g id="g592">
            <path id="path600" style="fill-rule:evenodd;fill:url(#linearGradient594)" d="m4.078 67.912c0.133 0.09 0.238 0.074 0.309-0.039 0.058-0.086 0.058-0.215 0.004-0.375-0.047-0.125-0.25-0.301-0.61-0.532l-1.48-0.945c-0.274 0.328 0.14 0.844 1.238 1.547l0.539 0.344z" inkscape:connector-curvature="0"/>
          </g>
        </g>
      </g>
      <g id="g602">
        <g id="g604">
          <g id="g610">
            <path id="path618" style="fill-rule:evenodd;fill:url(#linearGradient612)" d="m2.961 62.174c-0.461 0.527-0.527 0.972-0.195 1.343 0.148 0.16 0.351 0.196 0.597 0.102 0.297-0.067 0.543-0.207 0.746-0.426 0.418-0.555 0.473-1.008 0.164-1.367-0.164-0.137-0.371-0.156-0.621-0.063-0.257 0.055-0.488 0.192-0.691 0.411z" inkscape:connector-curvature="0"/>
          </g>
        </g>
      </g>
      <g id="g620">
        <g id="g622">
          <g id="g628">
            <path id="path636" style="fill-rule:evenodd;fill:url(#linearGradient630)" d="m5.48 63.642 0.305 0.196c0.379 0.242 0.653 0.386 0.817 0.425 0.246 0.063 0.488-0.047 0.734-0.332 0.621-0.773 0.812-1.316 0.57-1.629-0.48-0.687-1.09-0.793-1.836-0.32-0.773 0.422-0.972 0.973-0.59 1.66z" inkscape:connector-curvature="0"/>
          </g>
        </g>
      </g>
      <g id="g638">
        <g id="g640">
          <g id="g646">
            <path id="path654" style="fill-rule:evenodd;fill:url(#linearGradient648)" d="m5.367 61.674c0.305 0.07 0.59-0.208 0.86-0.825-0.45-0.289-0.782-0.359-1-0.215-0.157 0.094-0.258 0.231-0.317 0.418-0.105 0.215-0.078 0.375 0.078 0.473l0.379 0.149z" inkscape:connector-curvature="0"/>
          </g>
        </g>
      </g>
      <g id="g656">
        <g id="g658">
          <g id="g664">
            <path id="path672" style="fill-rule:evenodd;fill:url(#linearGradient666)" d="m4 59.662-0.066-0.043-0.403 0.551 0.035 0.019c0.192 0.25 0.395 0.125 0.614-0.367l-0.18-0.16z" inkscape:connector-curvature="0"/>
          </g>
        </g>
      </g>
    </g>
  </g>
<metadata><rdf:RDF><cc:Work><dc:format>image/svg+xml</dc:format><dc:type rdf:resource="http://purl.org/dc/dcmitype/StillImage"/><cc:license rdf:resource="http://creativecommons.org/licenses/publicdomain/"/><dc:publisher><cc:Agent rdf:about="http://openclipart.org/"><dc:title>Openclipart</dc:title></cc:Agent></dc:publisher></cc:Work><cc:License rdf:about="http://creativecommons.org/licenses/publicdomain/"><cc:permits rdf:resource="http://creativecommons.org/ns#Reproduction"/><cc:permits rdf:resource="http://creativecommons.org/ns#Distribution"/><cc:permits rdf:resource="http://creativecommons.org/ns#DerivativeWorks"/></cc:License></rdf:RDF></metadata></svg>
