<?xml version="1.0"?>
<svg xmlns:rdf="http://www.w3.org/1999/02/22-rdf-syntax-ns#" xmlns="http://www.w3.org/2000/svg" xmlns:cc="http://web.resource.org/cc/" xmlns:xlink="http://www.w3.org/1999/xlink" xmlns:dc="http://purl.org/dc/elements/1.1/" xmlns:svg="http://www.w3.org/2000/svg" id="svg2" viewBox="0 0 394.41 554.93" version="1.0">
  <defs id="defs4">
    <filter id="filter3537" y="-.25745" width="1.6155" x="-.30775" height="1.5149">
      <feGaussianBlur id="feGaussianBlur3539" stdDeviation="13.005789"/>
    </filter>
    <radialGradient id="radialGradient2469" gradientUnits="userSpaceOnUse" cy="658.85" cx="481.38" gradientTransform="matrix(.78727 -.76553 .73085 .75160 -2624.3 375.08)" r="189.36">
      <stop id="stop3536" stop-color="#fff" offset="0"/>
      <stop id="stop3538" stop-color="#fff" stop-opacity="0" offset="1"/>
    </radialGradient>
    <radialGradient id="radialGradient2471" gradientUnits="userSpaceOnUse" cy="350.63" cx="271.67" gradientTransform="matrix(.73243 .39572 -1.2539 2.3209 -1740.2 -738.91)" r="197.21">
      <stop id="stop3546" stop-color="#fff" offset="0"/>
      <stop id="stop3548" stop-color="#fff" stop-opacity="0" offset="1"/>
    </radialGradient>
    <radialGradient id="radialGradient2473" gradientUnits="userSpaceOnUse" cy="397.86" cx="457.13" gradientTransform="matrix(-.62972 -1.4636 1.4405 -.61980 -2064.3 1124.5)" r="197.21">
      <stop id="stop3560" stop-color="#001651" stop-opacity=".87069" offset="0"/>
      <stop id="stop3562" stop-color="#0041f1" stop-opacity="0" offset="1"/>
    </radialGradient>
  </defs>
  <g id="layer1" transform="translate(-162.4 -231.41)">
    <g id="g2462" transform="translate(2262.9 200)" fill-rule="evenodd">
      <path id="path2530" opacity=".69855" style="color:#000000" d="m-1706 394.51c0 105.89-88.4 191.84-197.2 191.84-108.9 0-199.2-85.97-197.2-191.84 2.6-142.02 111.1-199.87 197.2-363.1 91.4 157.88 197.2 257.2 197.2 363.1z" fill-opacity=".52601" fill="#0041f1"/>
      <path id="path3520" opacity=".69855" style="color:#000000" fill="url(#radialGradient2469)" d="m-1712.9 394.06c0 101.68-84.8 184.2-189.3 184.2s-191.3-82.54-189.3-184.2c2.5-136.36 106.6-191.91 189.3-348.64 87.8 151.59 189.3 246.96 189.3 348.64z"/>
      <path id="path3542" opacity=".69855" style="color:#000000" fill="url(#radialGradient2471)" d="m-1716.1 390.12c0 100.47-83.9 182.01-187.1 182.01-103.3 0-189-81.56-187.1-182.01 2.5-134.74 105.4-189.63 187.1-344.49 56.1 499.6 187.1 244.02 187.1 344.49z"/>
      <path id="path3556" opacity=".69855" style="color:#000000" fill="url(#radialGradient2473)" d="m-1706 394.51c0 105.89-88.4 191.84-197.2 191.84-108.9 0-199.2-85.97-197.2-191.84 2.6-142.02 111.1-199.87 197.2-363.1 91.4 157.88 197.2 257.2 197.2 363.1z"/>
      <path id="path3541" opacity=".82319" style="color:#000000" d="m735.71 328.33a55 35 0 1 1 -110 0 55 35 0 1 1 110 0z" fill-opacity=".80058" transform="matrix(.41702 -.49235 .48517 .41724 -2440.8 431.47)" filter="url(#filter3537)" fill="#fff"/>
    </g>
  </g>
  <metadata>
    <rdf:RDF>
      <cc:Work>
        <dc:format>image/svg+xml</dc:format>
        <dc:type rdf:resource="http://purl.org/dc/dcmitype/StillImage"/>
        <cc:license rdf:resource="http://creativecommons.org/licenses/publicdomain/"/>
        <dc:publisher>
          <cc:Agent rdf:about="http://openclipart.org/">
            <dc:title>Openclipart</dc:title>
          </cc:Agent>
        </dc:publisher>
        <dc:title>Water Drop</dc:title>
        <dc:date>2007-04-23T19:05:17</dc:date>
        <dc:description>A nice water drop. I made it because I couldn't find any that I liked, much less in SVG format. It uses Inkscape 0.45's blur filter.</dc:description>
        <dc:source>http://openclipart.org/detail/4063/water-drop-by-lagartoflojo</dc:source>
        <dc:creator>
          <cc:Agent>
            <dc:title>lagartoflojo</dc:title>
          </cc:Agent>
        </dc:creator>
        <dc:subject>
          <rdf:Bag>
            <rdf:li>clip art</rdf:li>
            <rdf:li>clipart</rdf:li>
            <rdf:li>drop</rdf:li>
            <rdf:li>h2o</rdf:li>
            <rdf:li>image</rdf:li>
            <rdf:li>media</rdf:li>
            <rdf:li>nature</rdf:li>
            <rdf:li>public domain</rdf:li>
            <rdf:li>svg</rdf:li>
            <rdf:li>water</rdf:li>
            <rdf:li>waterdrop</rdf:li>
          </rdf:Bag>
        </dc:subject>
      </cc:Work>
      <cc:License rdf:about="http://creativecommons.org/licenses/publicdomain/">
        <cc:permits rdf:resource="http://creativecommons.org/ns#Reproduction"/>
        <cc:permits rdf:resource="http://creativecommons.org/ns#Distribution"/>
        <cc:permits rdf:resource="http://creativecommons.org/ns#DerivativeWorks"/>
      </cc:License>
    </rdf:RDF>
  </metadata>
</svg>
