<?xml version="1.0" encoding="UTF-8" standalone="no"?>
<svg
   xmlns:dc="http://purl.org/dc/elements/1.1/"
   xmlns:cc="http://creativecommons.org/ns#"
   xmlns:rdf="http://www.w3.org/1999/02/22-rdf-syntax-ns#"
   xmlns:svg="http://www.w3.org/2000/svg"
   xmlns="http://www.w3.org/2000/svg"
   xmlns:sodipodi="http://sodipodi.sourceforge.net/DTD/sodipodi-0.dtd"
   xmlns:inkscape="http://www.inkscape.org/namespaces/inkscape"
   width="210mm"
   height="297mm"
   viewBox="0 0 210 297"
   version="1.1"
   id="svg8"
   inkscape:version="1.0.1 (c497b03c, 2020-09-10)"
   sodipodi:docname="water.svg">
  <defs
     id="defs2" />
  <sodipodi:namedview
     id="base"
     pagecolor="#ffffff"
     bordercolor="#666666"
     borderopacity="1.0"
     inkscape:pageopacity="0.0"
     inkscape:pageshadow="2"
     inkscape:zoom="0.35"
     inkscape:cx="400"
     inkscape:cy="560"
     inkscape:document-units="mm"
     inkscape:current-layer="layer1"
     inkscape:document-rotation="0"
     showgrid="false"
     inkscape:window-width="1251"
     inkscape:window-height="805"
     inkscape:window-x="0"
     inkscape:window-y="23"
     inkscape:window-maximized="0" />
  <metadata
     id="metadata5">
    <rdf:RDF>
      <cc:Work
         rdf:about="">
        <dc:format>image/svg+xml</dc:format>
        <dc:type
           rdf:resource="http://purl.org/dc/dcmitype/StillImage" />
        <dc:title></dc:title>
      </cc:Work>
    </rdf:RDF>
  </metadata>
  <g
     inkscape:label="Capa 1"
     inkscape:groupmode="layer"
     id="layer1">
    <g
       id="g3883"
       stroke-linejoin="round"
       stroke="#000000"
       stroke-linecap="round"
       stroke-width="3"
       fill="#66b8ed"
       transform="matrix(0.35764846,0,0,0.50184981,-32.47042,-124.22653)">
      <path
         id="path3686"
         d="m 562.37,285.98 c -3.5391,-0.75028 -2.3323,-4.4668 -2.065,-7.596 l 14.863,-22.141 c 5.2146,-7.7679 8.7396,-6.6762 12.045,0.37643 3.3058,7.0527 -1.1273,12.097 -5.6463,17.127 -4.519,5.0304 -13.201,13.505 -19.197,12.234 z" />
      <path
         id="path3686-3"
         d="m 296.44,746.81 c -4.6247,10.832 -7.7951,22.55 -9.36,30.992 -1.6288,8.7857 -7.9302,7.62 -12.011,0.98554 -4.0807,-6.6345 -0.24529,-12.147 3.6771,-17.655 3.9224,-5.5083 11.592,-14.908 17.694,-14.322 z" />
      <path
         id="path3686-3-7"
         d="m 241.42,796.82 c -5.2049,9.4871 -12.097,18.53 -17.556,24.566 -5.6821,6.2821 -1.3839,14.492 6.5617,13.284 7.9456,-1.2087 10.735,-12.551 12.081,-17.598 1.3463,-5.0466 4.5486,-11.871 3.4851,-16.685 -0.41461,-1.8768 -1.1963,-5.3479 -4.5718,-3.5668 z" />
      <path
         id="path3686-3-7-4"
         d="m 246.52,345.8 c -4.6846,-9.5703 -9.2162,-20.044 -16.072,-25.561 -6.5989,-5.3109 -12.885,-6.777 -14.78,1.0334 -1.8951,7.8104 7.5423,14.693 11.701,17.853 4.159,3.1597 9.259,8.711 14.117,9.5527 1.8938,0.32816 5.4021,0.92135 5.0343,-2.8775 z" />
      <path
         id="path3686-3-7-4-5"
         d="m 152.51,402.8 c 0,0 -20.577,-19.046 -30.921,-24.437 -18.221,-9.4955 -24.212,-3.0106 -23.353,5.6494 0.85896,8.66 16.36,11.941 22.874,14.41 2.8105,1.0653 18.919,5.7538 27.191,6.1888 2.4595,0.12934 4.2092,-1.8113 4.2092,-1.8113 z" />
      <path
         id="path3686-3-7-4-5-2"
         d="m 209.28,694.16 c -7.3942,3.1788 -12.435,6.9397 -17.923,11.281 -5.3172,4.2056 -14.627,25.015 4.8908,8.2176 2.693,-3.4833 5.6735,-5.5461 13.032,-19.498 z" />
      <path
         id="path2891-5"
         d="m 250.68,491.41 c -44.602,-21.765 -135.85,-67.069 17.035,-12.776 2.8712,1.0196 31.454,6.4614 2.1293,-8.5174 -5.6086,-2.8648 -12.53,-6.1352 -10.432,-8.5258 2.8639,-3.2642 0.35276,-8.7176 -2.837,-9.5544 -20.412,-5.3544 4.3683,-7.8121 -6.8786,-15.42 -12.327,-8.3385 -20.78,-20.176 -30.649,-28.075 -62.269,-49.843 -51.703,-82.832 12.919,-14.262 5.7979,6.1521 13.303,3.3994 24.201,9.6383 6.0014,3.4355 13.401,14.494 20.417,22.257 3.3018,3.6534 7.736,-4.4927 5.2242,-8.8504 -20.42,-35.425 -0.23299,-23.452 14.13,-7.2551 10.836,12.218 8.0774,-1.4184 12.302,-0.3312 5.1031,1.3133 8.5527,9.5784 9.5771,10.404 12.162,9.7985 16.579,-1.0032 10.336,-5.4081 -7.7437,-5.4636 -0.16241,-7.93 2.1931,-9.4973 2.3473,-1.5618 -25.763,-30.973 -13.393,-32.514 13.166,-1.6401 5.4304,-8.6612 2.8643,-11.01 -27.395,-25.073 -30.107,-73.556 9.5368,-23.003 6.0556,7.722 10.868,18.845 17.863,31.432 1.9067,3.431 -1.1131,18.329 11.643,7.6809 2.0365,-1.7 1.9617,-1.1766 3.0988,-1.9594 2.5563,-1.7599 3.994,10.184 6.3066,13.297 2.3164,3.1178 7.6852,10.183 8.1659,5.823 0.36905,-3.3472 5.0187,-6.6005 6.1712,-4.1588 16.768,35.528 10.444,-2.6616 12.775,-2.9991 7.836,-1.1342 -8.26,-32.299 8.792,-18.972 1.2386,0.96806 6.6421,-2.1409 6.8211,-5.9636 3.1369,-66.997 23.918,-74.644 17.112,-3.4097 -0.22968,2.4037 -2.4054,3.9552 4.7276,7.098 2.1885,0.96424 9.8466,-0.49178 6.8934,6.2505 -3.3923,7.7447 2.9138,29.239 8.9836,7.5898 1.3326,-4.753 8.5558,-23.664 11.201,-6.2396 0.56242,3.7051 2.1977,25.894 9.3447,8.8078 55.577,-132.87 80.316,-123.58 21.893,-4.9738 -16.954,34.418 3.92,18.547 7.3348,13.851 6.0508,-8.3214 28.298,-46.567 28.4,-28.449 0.005,0.93685 -2.9441,3.3981 -2.7732,5.286 0.3788,4.1831 4.6305,7.6327 9.2853,0.17631 17.622,-28.228 30.118,-30.153 28.337,-19.041 -1.6793,10.48 8.7506,-0.76321 13.475,-6.4647 5.5606,-6.7101 10.221,-13.636 15.405,-18.187 27.117,-23.81 47.041,-20.112 17.646,13.798 -5.6256,6.4897 -17.43,10.411 -25.829,20.118 -8.0206,9.2704 -18.936,13.819 -23.107,25.367 -1.4751,4.0837 -19.528,16.397 -3.2917,12.685 2.5984,-0.59417 2.425,3.6473 3.4406,5.0676 3.628,5.0738 5.5011,5.8669 12.697,-0.80755 41.1,-38.119 67.386,-9.9842 -12.733,30.112 -7.6662,3.8365 -39.908,35.244 -7.6848,17.291 2.7957,-1.5576 12.048,-1.3139 4.9646,7.2569 -2.3829,2.8832 -34.26,27.216 11.238,5.5293 4.414,-2.104 6.4498,-0.19091 7.9384,9.3412 2.0903,13.385 24.935,-8.3866 31.066,-10.365 44.476,-14.354 63.403,16.63 -20.601,21.962 -20.706,1.3142 -13.939,7.2766 -6.4639,8.9212 24.988,5.4976 -9.641,11.914 -13.005,12.727 -15.972,3.8626 -34.946,-2.9274 -33.519,8.5117 1.3362,10.717 13.244,-4.6212 32.399,0.0189 3.4848,0.8442 22.146,14.402 -13.334,12.096 -7.0483,-0.45818 -11.83,8.9362 13.801,8.1604 12.986,-0.39305 16.347,9.9601 -4.0767,7.419 -5.8175,-0.72377 -26.372,-1.438 13.248,10.374 184.5,55.004 82.376,57.653 -9.0497,28.746 -6.2904,-1.9889 -53.811,-6.0296 -10.374,10.648 8.0077,3.0745 18.195,11.337 -4.0349,10.371 -9.4001,-0.40826 -22.667,4.8853 1.2618,12 11.552,3.4348 30.07,14.684 1.5855,10.566 -18.294,-2.6447 -12.564,9.0562 2.0262,13.933 45.417,15.181 78.172,56.603 15.507,34.053 -5.1072,-1.8379 -11.154,-5.5423 -16.885,-9.8582 -17.549,-13.218 -27.324,-15.58 -22.647,-5.9341 1.1685,2.41 13.358,10.683 -7.2458,2.7874 -26.54,-10.17 1.7885,13.587 8.3335,20.714 6.5449,7.1272 51.241,40.418 -7.5326,14.727 -3.3455,-1.4624 30.288,27.201 5.4857,18.74 -3.7779,-1.2888 -3.1156,5.5751 -1.3892,7.2777 15.425,15.212 13.867,39.422 -15.044,5.1893 -4.5889,-5.4336 -4.0471,-11.748 -11.668,-7.1053 -4.7175,2.8738 -8.8963,-6.9154 -12.705,-12.744 -13.039,-19.953 -41.65,-53.372 -12.07,0.95451 9.8397,18.072 -4.4389,16.041 -10.469,8.2349 -29.465,-38.143 -22.237,-11.488 -13.394,9.4423 1.7437,4.1272 -10.203,0.0848 -10.742,3.6952 -0.55381,3.7094 4.6748,23.692 13.711,34.95 20.314,25.309 -5.4989,79.871 -28.163,11.174 -3.1522,-9.5548 -0.81903,-27.041 -4.6165,-41.302 -1.3386,-5.0268 0.41327,-13.446 -2.813,-18.544 -5.6073,-8.8594 -17.679,-13.73 -10.285,18.362 0.83926,3.6424 -1.826,2.5962 -3.8171,1.0721 -3.7352,-2.859 -14.218,-6.7045 -8.8692,2.7344 12.274,21.658 -13.985,51.407 -16.022,15.276 -0.54648,-9.6947 1.6472,-11.296 1.3487,-16.771 -0.11718,-2.1491 -2.5112,-7.2397 -1.3045,-11.982 3.9462,-15.509 -8.1086,-21.727 -9.518,-2.7822 -2.223,29.881 -12.652,1.6058 -12.133,6.0844 5.3071,45.801 -28.971,54.707 -15.16,-0.76413 0.85952,-3.452 -2.1429,-8.2637 -1.2772,-12.382 2.3168,-11.021 2.2521,-23.986 1.0738,-34.711 -2.0652,-18.799 -7.5512,-30.716 -9.6296,-13.221 -0.58468,4.9217 -3.3482,11.796 -5.0649,21.901 -0.87217,5.1337 -8.9783,5.3231 -9.5359,1.2774 -1.6139,-11.709 -5.7561,-15.424 -7.9657,-5.8831 -8.5829,37.061 -34.498,77.057 -23.99,15.818 0.62186,-3.6239 0.32148,-7.8995 2.016,-12.026 12.637,-30.777 -7.7125,-5.8815 -9.3374,-1.7953 -10.9,27.412 -16.84,5.0695 -8.5989,-11.329 11.54,-22.963 7.6771,-15.907 8.2169,-16.99 2.989,-5.9964 1.8476,-11.138 -3.7527,-3.9569 -4.4956,5.7644 -0.11247,-6.617 -6.0778,-1.1677 -3.4797,3.1787 -12.136,13.286 -17.542,17.986 -6.0051,5.221 -8.1815,1.7257 -4.6456,-2.9383 5.2397,-6.9114 -1.5543,-9.7569 -5.199,-0.34305 -0.94532,2.4417 -4.2391,4.1026 -7.17,6.3792 -22.348,17.359 -16.51,-1.194 2.6266,-17.067 3.2092,-2.6618 6.9559,-5.2456 11.265,-7.2477 1.3089,-0.60811 8.0427,-10.209 3.0779,-9.2542 -19.572,3.7649 1.886,-6.3 3.7984,-8.8018 3.8483,-5.0342 11.559,-6.9223 13.85,-7.7292 5.4676,-1.9254 12.585,-3.0076 17.419,-5.7553 14.817,-8.4218 -30.46,4.172 -18.268,-8.9486 33.738,-36.306 -1.5602,-18.558 -23.453,-2.2596 -34.518,25.697 -95.31,10.765 -6.944,-12.772 16.973,-4.5211 24.304,-9.8318 5.7016,-9.6052 -0.67805,0.008 -5.8375,-1.219 -10.337,1.2016 -12.598,6.7777 -29.587,2.4511 9.5099,-8.9585 2.6356,-0.76916 27.549,-11.481 -3.3501,-8.8198 -5.8505,0.50381 -10.489,2.864 -13.934,4.1644 -18.802,7.0954 -8.948,-10.582 4.4484,-14.185 6.311,-1.6973 7.9327,-17.719 -6.2818,-16.013 -8.5086,1.021 -20.11,-4.3535 -29.819,-4.7519 -8.8517,-0.36321 -17.421,0.2743 -23.161,0.72649 -60.27,4.7482 -45.022,-41.217 37.645,-25.702 11.119,2.087 40.684,13.03 31.036,-6.5469 -2.4974,-5.0671 7.6169,-7.2503 7.6169,-11.593 0,-1e-5 1e-5,-2e-5 0,-2e-5 z" />
    </g>
  </g>
</svg>
