<?xml version="1.0" encoding="UTF-8" standalone="no"?>
<!-- Created with Inkscape (http://www.inkscape.org/) -->
<svg xmlns:rdf="http://www.w3.org/1999/02/22-rdf-syntax-ns#" xmlns="http://www.w3.org/2000/svg" xmlns:cc="http://creativecommons.org/ns#" xmlns:xlink="http://www.w3.org/1999/xlink" xmlns:dc="http://purl.org/dc/elements/1.1/" xmlns:svg="http://www.w3.org/2000/svg" xmlns:inkscape="http://www.inkscape.org/namespaces/inkscape" xmlns:sodipodi="http://sodipodi.sourceforge.net/DTD/sodipodi-0.dtd" xmlns:ns1="http://sozi.baierouge.fr" id="svg5390" viewBox="0 0 499 571.42" version="1.1" inkscape:version="0.91 r13725">
  <defs id="defs5392">
    <linearGradient id="linearGradient5124" y2="-66.15" xlink:href="#linearGradient5032" gradientUnits="userSpaceOnUse" x2="1282.6" y1="-27.162" x1="1300.7"/>
    <linearGradient id="linearGradient5032">
      <stop id="stop5034" style="stop-color:#000000" offset="0"/>
      <stop id="stop5036" style="stop-color:#000000;stop-opacity:0" offset="1"/>
    </linearGradient>
    <filter id="filter4817" color-interpolation-filters="sRGB">
      <feGaussianBlur id="feGaussianBlur4819" stdDeviation="0.92146225"/>
    </filter>
    <radialGradient id="radialGradient5126" xlink:href="#linearGradient4687" gradientUnits="userSpaceOnUse" cy="-42.023" cx="1302.8" gradientTransform="matrix(.75589 .63732 -.77217 .91583 284.92 -830.34)" r="12.048"/>
    <linearGradient id="linearGradient4687">
      <stop id="stop4689" style="stop-color:#00ffff" offset="0"/>
      <stop id="stop4691" style="stop-color:#02cabc;stop-opacity:0" offset="1"/>
    </linearGradient>
    <radialGradient id="radialGradient5128" xlink:href="#linearGradient4687" gradientUnits="userSpaceOnUse" cy="-47.537" cx="1302.5" gradientTransform="matrix(.31865 .53737 -.43938 .26054 868.54 -727.66)" r="12.048"/>
    <linearGradient id="linearGradient5130" y2="-31.388" xlink:href="#linearGradient4701" gradientUnits="userSpaceOnUse" x2="1299.3" y1="-21.745" x1="1305"/>
    <linearGradient id="linearGradient4701">
      <stop id="stop4703" style="stop-color:#008080" offset="0"/>
      <stop id="stop4705" style="stop-color:#008080;stop-opacity:0" offset="1"/>
    </linearGradient>
    <linearGradient id="linearGradient5132" y2="-30.316" xlink:href="#linearGradient4719" gradientUnits="userSpaceOnUse" x2="1307.7" gradientTransform="translate(.35714 1.4286)" y1="-67.638" x1="1287"/>
    <linearGradient id="linearGradient4719">
      <stop id="stop4721" style="stop-color:#ffffff" offset="0"/>
      <stop id="stop4723" style="stop-color:#ffffff;stop-opacity:0" offset="1"/>
    </linearGradient>
    <filter id="filter4741" color-interpolation-filters="sRGB">
      <feGaussianBlur id="feGaussianBlur4743" stdDeviation="0.29347083"/>
    </filter>
    <linearGradient id="linearGradient5134" y2="-31.388" xlink:href="#linearGradient4701" gradientUnits="userSpaceOnUse" x2="1299.3" gradientTransform="translate(.35714 -.35714)" y1="-21.745" x1="1305"/>
    <filter id="filter4759" height="1.1595" width="1.2411" color-interpolation-filters="sRGB" y="-.079768" x="-.12053">
      <feGaussianBlur id="feGaussianBlur4761" stdDeviation="0.58694166"/>
    </filter>
    <linearGradient id="linearGradient5138" y2="-21.924" xlink:href="#linearGradient4719" gradientUnits="userSpaceOnUse" x2="1303.8" gradientTransform="translate(4.1071 4.1071)" y1="-57.638" x1="1289.6"/>
    <linearGradient id="linearGradient5140" y2="-32.281" xlink:href="#linearGradient5042" gradientUnits="userSpaceOnUse" x2="1302.9" y1="-67.281" x1="1275.2"/>
    <linearGradient id="linearGradient5042">
      <stop id="stop5044" style="stop-color:#000080" offset="0"/>
      <stop id="stop5046" style="stop-color:#000080;stop-opacity:0" offset="1"/>
    </linearGradient>
  </defs>
  <g id="layer1" transform="translate(-36.486 -17.001)">
    <g id="g5050" transform="matrix(8.6581 0 0 8.6581 -10821 549.21)">
      <path id="path4767" style="opacity:.48230;filter:url(#filter4817);fill:url(#linearGradient5124)" d="m1283.5-53.255s11.213 3.5357 8.0812 12.627c-5.8143 10.006-0.5918 19.078 9.849 15.405 6.8585-3.6725 7.5311-12.174 4.2932-16.668-5.5559-8.8388-22.223-11.364-22.223-11.364z" transform="matrix(1.2006 0 0 .82902 -260.99 -3.513)"/>
      <path id="path4683" style="fill:#028bbc" d="m1283.5-53.255s11.213 3.5357 8.0812 12.627c-5.8143 10.006-0.5918 19.078 9.849 15.405 6.8585-3.6725 7.5311-12.174 4.2932-16.668-5.5559-8.8388-22.223-11.364-22.223-11.364z"/>
      <path id="path4685" style="fill:url(#radialGradient5126)" d="m1283.5-53.255s11.213 3.5357 8.0812 12.627c-5.8143 10.006-0.5918 19.078 9.849 15.405 6.8585-3.6725 7.5311-12.174 4.2932-16.668-5.5559-8.8388-22.223-11.364-22.223-11.364z"/>
      <path id="path4695" style="fill:url(#radialGradient5128)" d="m1283.5-53.255s11.213 3.5357 8.0812 12.627c-5.8143 10.006-0.5918 19.078 9.849 15.405 6.8585-3.6725 7.5311-12.174 4.2932-16.668-5.5559-8.8388-22.223-11.364-22.223-11.364z"/>
      <path id="path4699" style="fill:url(#linearGradient5130)" d="m1286.8-52.125c3.3441 1.9016 6.1865 5.4301 5.6341 9.4584-0.4819 2.9201-2.6453 5.3181-2.7904 8.3541-0.5415 3.2018 0.4175 6.8839 3.2906 8.5513 2.5878 1.481 5.9913 1.1437 8.6392 0.03711 5.6671-3.0365 7.4242-11.293 3.5442-16.402-3.4575-4.763-9.1077-7.2234-14.519-9.0533-1.2966-0.37204-2.6606-0.72027-4.0175-1.0704l0.155 0.0886 0.064 0.0364z"/>
      <path id="path4717" style="filter:url(#filter4741);fill:url(#linearGradient5132)" d="m1295.1-46.634c1.8959 1.222 3.5072 3.4894 3.1941 6.0781-0.2732 1.8765-1.4997 3.4175-1.5819 5.3684-0.307 2.0575 0.2367 4.4237 1.8655 5.4952 1.467 0.95172 3.3965 0.73495 4.8976 0.02385 3.2128-1.9513 4.2089-7.2572 2.0093-10.54-1.9601-3.0608-5.1633-4.6418-8.231-5.8177-0.7351-0.23908-1.5084-0.46285-2.2776-0.68782l0.088 0.05693 0.036 0.02339z"/>
      <path id="path4727" style="fill:url(#linearGradient5134)" d="m1287.2-52.482c3.3441 1.9016 6.1865 5.4301 5.6341 9.4584-0.4819 2.9201-2.6453 5.3181-2.7904 8.3541-0.5415 3.2018 0.4175 6.8839 3.2906 8.5513 2.5878 1.481 5.9913 1.1437 8.6392 0.03711 5.6671-3.0365 7.4242-11.293 3.5442-16.402-3.4575-4.763-9.1077-7.2234-14.519-9.0533-1.2966-0.37204-2.6606-0.72027-4.0175-1.0704l0.155 0.0886 0.064 0.0364z"/>
      <path id="path4745" style="filter:url(#filter4759);fill:url(#linearGradient5132)" d="m1295.1-46.634c1.8959 1.222 3.5072 3.4894 3.1941 6.0781-0.2732 1.8765-1.4997 3.4175-1.5819 5.3684-0.307 2.0575 0.2367 4.4237 1.8655 5.4952 1.467 0.95172 3.3965 0.73495 4.8976 0.02385 3.2128-1.9513 4.2089-7.2572 2.0093-10.54-1.9601-3.0608-5.1633-4.6418-8.231-5.8177-0.7351-0.23908-1.5084-0.46285-2.2776-0.68782l0.088 0.05693 0.036 0.02339z"/>
      <path id="path4821" style="fill:url(#linearGradient5138)" d="m1298.1-45.393c-1.4429 1.4909 0.087 3.5881-0.2637 5.3655-0.1127 4.4637-3.6875 8.3677-2.6738 12.978 1.0837 1.7571 3.5967 1.2 5.197 0.55868 5.388-1.8866 8.1591-9.1944 4.838-13.99-1.5976-2.4654-4.1403-4.4006-7.035-4.975l-0.062 0.0625z"/>
      <path id="path5040" style="fill:url(#linearGradient5140)" d="m1283.5-53.255s11.213 3.5357 8.0812 12.627c-5.8143 10.006-0.5918 19.078 9.849 15.405 6.8585-3.6725 7.5311-12.174 4.2932-16.668-5.5559-8.8388-22.223-11.364-22.223-11.364z"/>
    </g>
    <g id="g5062" transform="matrix(8.6581 0 0 8.6581 -11003 778.03)">
      <path id="path5064" style="opacity:.48230;filter:url(#filter4817);fill:url(#linearGradient5124)" d="m1283.5-53.255s11.213 3.5357 8.0812 12.627c-5.8143 10.006-0.5918 19.078 9.849 15.405 6.8585-3.6725 7.5311-12.174 4.2932-16.668-5.5559-8.8388-22.223-11.364-22.223-11.364z" transform="matrix(1.2006 0 0 .82902 -260.99 -3.513)"/>
      <path id="path5066" style="fill:#028bbc" d="m1283.5-53.255s11.213 3.5357 8.0812 12.627c-5.8143 10.006-0.5918 19.078 9.849 15.405 6.8585-3.6725 7.5311-12.174 4.2932-16.668-5.5559-8.8388-22.223-11.364-22.223-11.364z"/>
      <path id="path5068" style="fill:url(#radialGradient5126)" d="m1283.5-53.255s11.213 3.5357 8.0812 12.627c-5.8143 10.006-0.5918 19.078 9.849 15.405 6.8585-3.6725 7.5311-12.174 4.2932-16.668-5.5559-8.8388-22.223-11.364-22.223-11.364z"/>
      <path id="path5070" style="fill:url(#radialGradient5128)" d="m1283.5-53.255s11.213 3.5357 8.0812 12.627c-5.8143 10.006-0.5918 19.078 9.849 15.405 6.8585-3.6725 7.5311-12.174 4.2932-16.668-5.5559-8.8388-22.223-11.364-22.223-11.364z"/>
      <path id="path5072" style="fill:url(#linearGradient5130)" d="m1286.8-52.125c3.3441 1.9016 6.1865 5.4301 5.6341 9.4584-0.4819 2.9201-2.6453 5.3181-2.7904 8.3541-0.5415 3.2018 0.4175 6.8839 3.2906 8.5513 2.5878 1.481 5.9913 1.1437 8.6392 0.03711 5.6671-3.0365 7.4242-11.293 3.5442-16.402-3.4575-4.763-9.1077-7.2234-14.519-9.0533-1.2966-0.37204-2.6606-0.72027-4.0175-1.0704l0.155 0.0886 0.064 0.0364z"/>
      <path id="path5074" style="filter:url(#filter4741);fill:url(#linearGradient5132)" d="m1295.1-46.634c1.8959 1.222 3.5072 3.4894 3.1941 6.0781-0.2732 1.8765-1.4997 3.4175-1.5819 5.3684-0.307 2.0575 0.2367 4.4237 1.8655 5.4952 1.467 0.95172 3.3965 0.73495 4.8976 0.02385 3.2128-1.9513 4.2089-7.2572 2.0093-10.54-1.9601-3.0608-5.1633-4.6418-8.231-5.8177-0.7351-0.23908-1.5084-0.46285-2.2776-0.68782l0.088 0.05693 0.036 0.02339z"/>
      <path id="path5076" style="fill:url(#linearGradient5134)" d="m1287.2-52.482c3.3441 1.9016 6.1865 5.4301 5.6341 9.4584-0.4819 2.9201-2.6453 5.3181-2.7904 8.3541-0.5415 3.2018 0.4175 6.8839 3.2906 8.5513 2.5878 1.481 5.9913 1.1437 8.6392 0.03711 5.6671-3.0365 7.4242-11.293 3.5442-16.402-3.4575-4.763-9.1077-7.2234-14.519-9.0533-1.2966-0.37204-2.6606-0.72027-4.0175-1.0704l0.155 0.0886 0.064 0.0364z"/>
      <path id="path5078" style="filter:url(#filter4759);fill:url(#linearGradient5132)" d="m1295.1-46.634c1.8959 1.222 3.5072 3.4894 3.1941 6.0781-0.2732 1.8765-1.4997 3.4175-1.5819 5.3684-0.307 2.0575 0.2367 4.4237 1.8655 5.4952 1.467 0.95172 3.3965 0.73495 4.8976 0.02385 3.2128-1.9513 4.2089-7.2572 2.0093-10.54-1.9601-3.0608-5.1633-4.6418-8.231-5.8177-0.7351-0.23908-1.5084-0.46285-2.2776-0.68782l0.088 0.05693 0.036 0.02339z"/>
      <path id="path5080" style="fill:url(#linearGradient5138)" d="m1298.1-45.393c-1.4429 1.4909 0.087 3.5881-0.2637 5.3655-0.1127 4.4637-3.6875 8.3677-2.6738 12.978 1.0837 1.7571 3.5967 1.2 5.197 0.55868 5.388-1.8866 8.1591-9.1944 4.838-13.99-1.5976-2.4654-4.1403-4.4006-7.035-4.975l-0.062 0.0625z"/>
      <path id="path5082" style="fill:url(#linearGradient5140)" d="m1283.5-53.255s11.213 3.5357 8.0812 12.627c-5.8143 10.006-0.5918 19.078 9.849 15.405 6.8585-3.6725 7.5311-12.174 4.2932-16.668-5.5559-8.8388-22.223-11.364-22.223-11.364z"/>
    </g>
    <g id="g5102" transform="matrix(-8.6581 0 0 8.6581 11393 491.42)">
      <path id="path5104" style="opacity:.48230;filter:url(#filter4817);fill:url(#linearGradient5124)" d="m1283.5-53.255s11.213 3.5357 8.0812 12.627c-5.8143 10.006-0.5918 19.078 9.849 15.405 6.8585-3.6725 7.5311-12.174 4.2932-16.668-5.5559-8.8388-22.223-11.364-22.223-11.364z" transform="matrix(1.2006 0 0 .82902 -260.99 -3.513)"/>
      <path id="path5106" style="fill:#028bbc" d="m1283.5-53.255s11.213 3.5357 8.0812 12.627c-5.8143 10.006-0.5918 19.078 9.849 15.405 6.8585-3.6725 7.5311-12.174 4.2932-16.668-5.5559-8.8388-22.223-11.364-22.223-11.364z"/>
      <path id="path5108" style="fill:url(#radialGradient5126)" d="m1283.5-53.255s11.213 3.5357 8.0812 12.627c-5.8143 10.006-0.5918 19.078 9.849 15.405 6.8585-3.6725 7.5311-12.174 4.2932-16.668-5.5559-8.8388-22.223-11.364-22.223-11.364z"/>
      <path id="path5110" style="fill:url(#radialGradient5128)" d="m1283.5-53.255s11.213 3.5357 8.0812 12.627c-5.8143 10.006-0.5918 19.078 9.849 15.405 6.8585-3.6725 7.5311-12.174 4.2932-16.668-5.5559-8.8388-22.223-11.364-22.223-11.364z"/>
      <path id="path5112" style="fill:url(#linearGradient5130)" d="m1286.8-52.125c3.3441 1.9016 6.1865 5.4301 5.6341 9.4584-0.4819 2.9201-2.6453 5.3181-2.7904 8.3541-0.5415 3.2018 0.4175 6.8839 3.2906 8.5513 2.5878 1.481 5.9913 1.1437 8.6392 0.03711 5.6671-3.0365 7.4242-11.293 3.5442-16.402-3.4575-4.763-9.1077-7.2234-14.519-9.0533-1.2966-0.37204-2.6606-0.72027-4.0175-1.0704l0.155 0.0886 0.064 0.0364z"/>
      <path id="path5114" style="filter:url(#filter4741);fill:url(#linearGradient5132)" d="m1295.1-46.634c1.8959 1.222 3.5072 3.4894 3.1941 6.0781-0.2732 1.8765-1.4997 3.4175-1.5819 5.3684-0.307 2.0575 0.2367 4.4237 1.8655 5.4952 1.467 0.95172 3.3965 0.73495 4.8976 0.02385 3.2128-1.9513 4.2089-7.2572 2.0093-10.54-1.9601-3.0608-5.1633-4.6418-8.231-5.8177-0.7351-0.23908-1.5084-0.46285-2.2776-0.68782l0.088 0.05693 0.036 0.02339z"/>
      <path id="path5116" style="fill:url(#linearGradient5134)" d="m1287.2-52.482c3.3441 1.9016 6.1865 5.4301 5.6341 9.4584-0.4819 2.9201-2.6453 5.3181-2.7904 8.3541-0.5415 3.2018 0.4175 6.8839 3.2906 8.5513 2.5878 1.481 5.9913 1.1437 8.6392 0.03711 5.6671-3.0365 7.4242-11.293 3.5442-16.402-3.4575-4.763-9.1077-7.2234-14.519-9.0533-1.2966-0.37204-2.6606-0.72027-4.0175-1.0704l0.155 0.0886 0.064 0.0364z"/>
      <path id="path5118" style="filter:url(#filter4759);fill:url(#linearGradient5132)" d="m1295.1-46.634c1.8959 1.222 3.5072 3.4894 3.1941 6.0781-0.2732 1.8765-1.4997 3.4175-1.5819 5.3684-0.307 2.0575 0.2367 4.4237 1.8655 5.4952 1.467 0.95172 3.3965 0.73495 4.8976 0.02385 3.2128-1.9513 4.2089-7.2572 2.0093-10.54-1.9601-3.0608-5.1633-4.6418-8.231-5.8177-0.7351-0.23908-1.5084-0.46285-2.2776-0.68782l0.088 0.05693 0.036 0.02339z"/>
      <path id="path5120" style="fill:url(#linearGradient5138)" d="m1298.1-45.393c-1.4429 1.4909 0.087 3.5881-0.2637 5.3655-0.1127 4.4637-3.6875 8.3677-2.6738 12.978 1.0837 1.7571 3.5967 1.2 5.197 0.55868 5.388-1.8866 8.1591-9.1944 4.838-13.99-1.5976-2.4654-4.1403-4.4006-7.035-4.975l-0.062 0.0625z"/>
      <path id="path5122" style="fill:url(#linearGradient5140)" d="m1283.5-53.255s11.213 3.5357 8.0812 12.627c-5.8143 10.006-0.5918 19.078 9.849 15.405 6.8585-3.6725 7.5311-12.174 4.2932-16.668-5.5559-8.8388-22.223-11.364-22.223-11.364z"/>
    </g>
  </g>
  <metadata>
    <rdf:RDF>
      <cc:Work>
        <dc:format>image/svg+xml</dc:format>
        <dc:type rdf:resource="http://purl.org/dc/dcmitype/StillImage"/>
        <cc:license rdf:resource="http://creativecommons.org/licenses/publicdomain/"/>
        <dc:publisher>
          <cc:Agent rdf:about="http://openclipart.org/">
            <dc:title>Openclipart</dc:title>
          </cc:Agent>
        </dc:publisher>
        <dc:title>water drop 1</dc:title>
        <dc:date>2010-09-28T00:08:02</dc:date>
        <dc:description>Different colored drops.</dc:description>
        <dc:source>https://openclipart.org/detail/87571/water-drop-1-by-inky2010</dc:source>
        <dc:creator>
          <cc:Agent>
            <dc:title>inky2010</dc:title>
          </cc:Agent>
        </dc:creator>
        <dc:subject>
          <rdf:Bag>
            <rdf:li>Blood</rdf:li>
            <rdf:li>Drop</rdf:li>
            <rdf:li>Inky2010</rdf:li>
            <rdf:li>Slime</rdf:li>
            <rdf:li>drops</rdf:li>
            <rdf:li>free</rdf:li>
            <rdf:li>gloss</rdf:li>
            <rdf:li>glossy</rdf:li>
            <rdf:li>icon</rdf:li>
            <rdf:li>inkscape</rdf:li>
            <rdf:li>water</rdf:li>
          </rdf:Bag>
        </dc:subject>
      </cc:Work>
      <cc:License rdf:about="http://creativecommons.org/licenses/publicdomain/">
        <cc:permits rdf:resource="http://creativecommons.org/ns#Reproduction"/>
        <cc:permits rdf:resource="http://creativecommons.org/ns#Distribution"/>
        <cc:permits rdf:resource="http://creativecommons.org/ns#DerivativeWorks"/>
      </cc:License>
    </rdf:RDF>
  </metadata>
</svg>
