<?xml version="1.0" encoding="UTF-8" standalone="no"?>
<!-- Created with Inkscape (http://www.inkscape.org/) -->
<svg xmlns:inkscape="http://www.inkscape.org/namespaces/inkscape" xmlns:rdf="http://www.w3.org/1999/02/22-rdf-syntax-ns#" xmlns="http://www.w3.org/2000/svg" xmlns:xlink="http://www.w3.org/1999/xlink" xmlns:ns1="http://sozi.baierouge.fr" xmlns:cc="http://creativecommons.org/ns#" xmlns:sodipodi="http://sodipodi.sourceforge.net/DTD/sodipodi-0.dtd" xmlns:dc="http://purl.org/dc/elements/1.1/" id="svg2" xml:space="preserve" viewBox="0 0 135.2 110.58" version="1.1" inkscape:version="0.91 r13725">
  <g id="g10" transform="matrix(1.25 0 0 -1.25 0 110.58)">
    <g id="g12">
      <path id="path14" style="fill-rule:evenodd;fill:#4c4a45" d="m101.72 9.959 2.082 0.883c0.558 0.238 1.027 0.359 1.398 0.359 0.082 0 0.215-0.148 0.403-0.441 0.21-0.293 0.386-0.442 0.519-0.442 0.317 0 0.559 0.055 0.719 0.16l0.238 0.204c0.16 0.585 0.242 1.144 0.242 1.679-0.187 1.707-0.586 3.039-1.199 4-0.375 0.184-0.016 0.586 1.078 1.199l0.281 0.122c0.106-1.176 0.332-3.27 0.68-6.282 0-3.359-0.867-5.601-2.598-6.718-1.707-1.094-5.148-1.641-10.32-1.641-0.933 0-1.613 0.504-2.043 1.519-1.492-1.414-2.586-2.414-3.277-3-1.176-1.043-2.309-1.558-3.402-1.558-3.891 0-7.758 0.625-11.598 1.879-3.684 1.199-5.52 2.32-5.52 3.359 0 0.293 0.145 0.719 0.438 1.281 0.242 0.532 0.348 0.852 0.32 0.957l-0.437 0.602-0.082 0.121 0.32-0.16c1.652-0.586 3.027-0.961 4.117-1.121l0.602-0.199c-0.215-0.188-0.348-0.293-0.403-0.321-0.156-0.082-0.465-0.133-0.918-0.16l-2.8 0.199c0.054-1.597 1.269-2.906 3.64-3.918 1.199-0.507 2.442-0.851 3.723-1.039 0.449 0 0.879 0.078 1.277 0.239 0.641 0.238 0.961 0.64 0.961 1.199-0.215 1.148-0.851 2.094-1.922 2.84 0.774 0.187 1.16 0.375 1.16 0.562 1.895 0.024 3.254 0.106 4.082 0.238 0.559 0.11 1.243 0.321 2.04 0.641h0.32c-0.028-0.055-0.52-0.293-1.481-0.719-0.851-0.402-1.371-0.828-1.558-1.281 0.691-0.082 1.078-0.199 1.16-0.359-0.133-0.426-0.414-0.785-0.84-1.082-0.453-0.266-0.762-0.465-0.922-0.598 0.453-0.215 0.789-0.441 1-0.68 0.11-0.109 0.254-0.16 0.442-0.16 1.547 0 2.906 0.281 4.082 0.84 1.918 0.906 2.879 2.441 2.879 4.598 0 0.269 0.347 0.988 1.039 2.16 0.668 1.148 1 2.75 1 4.801 0 0.64-0.852 2.586-2.559 5.839-0.668-0.531-1.629-0.945-2.883-1.238-0.984-0.242-1.863-0.363-2.637-0.363-1.226 0-2.253 0.137-3.082 0.402 2.985-0.105 5.067 0.266 6.243 1.121 0.851 0.586 1.277 1.492 1.277 2.719-1.012 3.387-1.84 5.078-2.48 5.078-0.293 0-0.719-0.183-1.282-0.558-0.586-0.399-0.945-0.614-1.078-0.641l0.719 0.519c0.695 0.641 1.133 1.083 1.32 1.321 0.453 0.668 0.746 1.508 0.879 2.519 0.082 1.227 0.254 2.266 0.52 3.121l-0.321 0.481c-0.289 0.293-0.652 0.574-1.078 0.84l-0.359 0.238c-0.082 0.055-0.133 0.082-0.16 0.082l-0.961 0.281h-1.121c0.082 0.028 0.949 0.149 2.601 0.36l0.442 0.117c1.519 0.75 2.918 2.109 4.199 4.082 1.012 1.519 1.519 2.453 1.519 2.801-0.347 1.226-1.254 2.371-2.718 3.441l0.718-0.203c0.399-0.106 1.161-0.438 2.282-1 0.933-0.477 1.679-0.719 2.238-0.719 0.535 0 0.707 0.016 0.519 0.039 1.067 9.36 1.602 14.469 1.602 15.321 0 3.546-0.469 6.359-1.402 8.441-0.852 1.895-1.957 2.984-3.321 3.281 0.082 1.973 0.243 3.531 0.485 4.68l0.316 1.117c0.11-0.238 1.16-1.613 3.16-4.117 1.36-1.734 2.039-3.723 2.039-5.961 0-3.094-0.304-7.625-0.918-13.602-0.668-6.265-1.293-10.347-1.879-12.238-0.082-0.082-1.109-0.773-3.082-2.082-0.398-0.293-1.027-1-1.878-2.117-0.641-0.828-1.149-1.52-1.52-2.082 0.32-0.133 0.773-0.266 1.359-0.399 0.266-0.054 0.559-0.121 0.879-0.199 0.055 0 0.094-0.015 0.121-0.043 1.2-0.183 2.305-0.281 3.321-0.281 1.519 0 3.226 0.254 5.117 0.762 2.883 0.746 4.734 1.894 5.562 3.441 0.184 0.453 0.348 1.024 0.481 1.719 0.16 0.746 0.238 1.332 0.238 1.762h0.121l0.68 0.117c0.105-1.465-0.172-2.961-0.84-4.481-0.562-1.281-1.16-2.16-1.801-2.64l0.36-0.598c-0.94-0.055-6.373-0.121-16.323-0.199-0.05-0.082-0.183-0.121-0.398-0.121-0.133-0.028-0.199-0.188-0.199-0.481 0-0.535 0.078-0.961 0.238-1.281l0.043-0.801v-0.715l0.238-1.32 0.16-0.601c0.641-2 1.028-3.84 1.161-5.52v-0.121l0.238-0.758 0.082-0.281 0.801-1.598 0.039-0.043 0.16-0.32 0.758-1.559c0.082 0 0.922 0.348 2.523 1.039 1.703 0.696 2.891 1.043 3.559 1.043 2.05 0 3.84-0.203 5.359-0.601 0.586-0.028 1.133 0.707 1.641 2.199l-0.242 0.121c-1.626 0.188-2.653 0.371-3.079 0.559 0.348 0.054 1.453 0.519 3.317 1.402 1.949 0.906 3.094 1.492 3.441 1.758 0.082-1.121-0.105-2.293-0.558-3.52-0.668-1.918-1.094-3.308-1.282-4.16l0.2-0.199v-0.039l-0.317-0.481c-0.375 0.184-1.656 0.454-3.84 0.801-2.027 0.293-3.242 0.438-3.644 0.438-0.637 0-1.571-0.051-2.797-0.16-1.629-0.161-2.988-0.36-4.082-0.598l0.16-0.32 0.043-0.043 0.758-1.079 0.64-0.839 0.36-1.922 0.16-0.879 0.32-2.52 0.282 0.2c0.558 0.375 1.214 0.746 1.957 1.121 0.988 0.504 1.722 0.773 2.203 0.8l0.32 0.039 4.32 0.961 1.278 0.278 1.16 0.242v-0.441c-0.371-0.747-1.082-1.293-2.121-1.641-0.852-0.32-1.586-0.414-2.199-0.281l-0.598 0.043c-1.203 0.183-2.227 0.183-3.082 0-1.707-0.668-2.84-1.27-3.399-1.801-0.242-0.242-0.402-0.586-0.48-1.043l0.039-0.199 0.039-0.438 0.082-2.281c0-0.238 0.051-0.547 0.16-0.922 0-0.262-0.14-0.395-0.422-0.398 0.282-0.004 0.395-0.137 0.344-0.399-0.055-0.133-0.121-0.348-0.203-0.64 1.359-0.161 2.949-0.243 4.762-0.243 0.238 0 0.48 0.203 0.718 0.602 0.348 0.558 0.84 1.051 1.481 1.48 0.16 0.106 0.961 0.305 2.398 0.598 1.469 0.402 2.414 1.016 2.844 1.84-0.027 0.348-0.535 0.523-1.523 0.523-1.25 0-2.2-0.109-2.84-0.32-0.293-0.133-0.559-0.227-0.797-0.281l-0.043 0.238c0.055 0.215 0.32 0.496 0.801 0.844v-0.004zm-19.439 24.922c-0.453-1.199-0.949-2.16-1.48-2.879-1.149 0-2.121-0.27-2.922-0.801-0.801-0.535-1.199-1.187-1.199-1.961l-0.039-1-4.602 0.199-0.199 0.039c1.707 0.028 3.16 0.614 4.359 1.762 1.016 0.984 1.52 1.984 1.52 3 0 0.719-0.172 1.305-0.52 1.762-0.371 0.371-0.597 0.637-0.679 0.797l4.281-1.68c0.347 0 0.679 0.109 1 0.32 0.238 0.16 0.398 0.309 0.48 0.442zm-23.961 3.359-0.32-0.879-0.441-0.043-7.438-0.117c-0.855 0-1.68 0.066-2.48 0.199 4.187 0.586 6.332 0.895 6.437 0.918 1.336 0.297 2.949 1 4.844 2.121 2.371 1.414 4.758 3.442 7.156 6.082 0 0.664-0.051 1.118-0.156 1.36-0.375 0.824-1.242 1.32-2.602 1.48 0.989 0.399 1.895 1.039 2.719 1.918 0.055 0.028 0.109 0.067 0.16 0.121 0.028 0.028 0.055 0.078 0.082 0.16 0.266 0.321 0.531 0.664 0.797 1.039 0.535 0.801 0.934 1.536 1.203 2.2-0.32-1.785-0.359-3.024-0.121-3.719 0.055-0.16 0.293-0.426 0.719-0.801 0.402 0.028 1.133 0.602 2.199 1.723 1.043 1.066 1.656 1.851 1.844 2.359l-0.121-1.562c-0.028-0.797-0.039-1.825-0.039-3.078-0.028-0.934-0.094-1.563-0.203-1.879l-0.637-0.524-1.844-0.519c-0.664-0.426-1.144-0.731-1.437-0.918-0.668-0.508-1.133-0.789-1.403-0.84-0.984 0-1.824-0.227-2.515-0.68-0.696-0.426-1.043-0.961-1.043-1.601l0.199-0.801 0.082-0.317v-0.484c-0.106-0.078-0.387-0.09-0.84-0.039-0.508 0.055-0.84 0.094-1 0.121-0.613-0.133-1.387-0.601-2.32-1.398-0.828-0.723-1.321-1.254-1.481-1.602zm-12.082-0.441-1.039 0.281c-1.254-4.188-3.078-6.785-5.48-7.801-1.731-0.719-5.813-1.078-12.239-1.078-0.558 0-1.785 0.078-3.679 0.238-2.106 0.188-3.453 0.36-4.039 0.52 3.89-0.133 6.343-0.067 7.359 0.199 0.719 0.188 1.852 0.668 3.399 1.441l-0.04-0.199c-0.027-0.027-0.16-0.043-0.402-0.043-0.105 0 0.055-0.199 0.481-0.597 4.054 0.242 6.48 0.441 7.281 0.597 1.066 0.215 2.16 0.801 3.281 1.762 0.32 0.266 0.641 0.84 0.957 1.719 0.297 0.801 0.442 1.347 0.442 1.64 0.027 1.469 0.214 2.508 0.558 3.121 0.348 0.614 0.524 1.172 0.524 1.68-0.508 3.442-0.79 5.332-0.84 5.68l-0.043-0.039c0-0.801-0.16-1.496-0.481-2.082-0.343-0.559-0.758-0.84-1.238-0.84-0.613-0.266-1.105-0.559-1.48-0.879 0.433 0.492 0.753 0.945 0.96 1.359 0.879 1.629 1.161 2.961 0.84 4-0.105 0.375-0.254 0.774-0.441 1.2l-0.238 0.48-0.36 0.641c0.426-0.239 1.52-0.492 3.278-0.758l1.839-0.442 0.043-0.039c-0.453-0.082-0.839-0.175-1.16-0.281-0.16-0.215-0.414-0.613-0.761-1.199-0.348-0.613-0.52-0.945-0.52-1 0-0.106 0.48-1.254 1.441-3.441 1.012-2.454 1.614-4.399 1.797-5.84zm-43.117 1.402c0.184 0.211 0.547 0.398 1.078 0.559 0.133 0.027 0.281 0.066 0.442 0.121 0.984 0.636 1.425 0.84 1.32 0.597l-1.16-1.476c1.199-0.11 2.387-0.137 3.558-0.082 0.989 0.082 1.52 0.254 1.602 0.519 0.48 0.426 1.051 0.801 1.719 1.118 1.359 0.054 2.558 0.695 3.601 1.921 1.492 1.653 2.68 2.786 3.559 3.399-0.078 0.027-0.16 0.082-0.238 0.16-0.297 0.32-0.508 0.973-0.641 1.961-0.16 1.016-0.215 1.801-0.16 2.359v0.043l0.039-0.039 0.441-0.48c0.371-0.426 0.653-0.801 0.84-1.121l0.719 1 0.121 0.039c-0.106-1.68-0.293-2.797-0.563-3.36-0.16-0.32-0.304-0.504-0.437-0.558l-1.762-2.282-0.078-0.078c-0.668-1.043-1.043-1.668-1.121-1.882-0.238-0.614-0.535-1.133-0.879-1.559-0.613-0.746-1.453-1.227-2.519-1.441l-0.161-0.04c-1.949-0.105-3.613-0.082-5 0.083-1.574 0.105-3.015 0.277-4.32 0.519zm30.719 12.438c-0.613-0.293-1.332-0.813-2.16-1.559l0.84 1.16c0.214 0.32 0.734 0.918 1.558 1.801 0.481 0.531 0.723 1.066 0.723 1.598 0 0.269-0.16 0.48-0.481 0.64-0.347 0.188-0.519 0.414-0.519 0.68 0 0.695 0.199 1.199 0.597 1.519 0.641 0.563 1.149 1.227 1.524 2 0.211-0.371 0.476-1.586 0.797-3.636-0.641-0.59-0.957-1.121-0.957-1.602 0-0.32 0.093-0.558 0.277-0.719 0.106-0.082 0.266-0.175 0.481-0.281 0.082-0.055 0.652-0.348 1.718-0.879 0.934-0.453 1.469-0.762 1.602-0.922l0.039-0.199c-0.348-0.027-0.691-0.027-1.039 0l-3.36 0.719c-0.453 0-1-0.106-1.64-0.32zm52.398 14.8c-0.691-0.187-1.383-0.293-2.078-0.32l-2.082-0.199-0.719-0.399c-0.558-0.429-0.851-0.453-0.879-0.082 0.348 0.614 1.2 1.121 2.559 1.52 0.988 0.293 1.481 1.293 1.481 3 0 0.773-0.254 2.094-0.758 3.961l0.8-1.16 0.68-1.36 0.039-0.039 0.36-0.762 0.121-0.238c0.316-0.586 0.586-0.976 0.8-1.16 0.293-0.242 0.719-0.359 1.278-0.359 0.453 0 1.32 0.199 2.601 0.597l-0.281-0.558c-0.773-0.801-1.426-1.348-1.961-1.641-0.398-0.238-1.051-0.508-1.961-0.801zm-5.84-7.359 0.442-0.441c-0.774-0.774-1.281-1.305-1.52-1.598l-0.199-0.16c-0.051-0.051-0.105-0.106-0.16-0.16-0.453-0.161-0.883-0.336-1.281-0.52-0.293-0.133-0.586-0.266-0.879-0.402-0.133-0.051-0.266-0.094-0.403-0.117-1.359-0.403-2.25-0.801-2.679-1.204l0.082 0.204c0.211 0.453 0.387 0.839 0.519 1.16 0.266 0.586 0.399 1 0.399 1.238 0 0.719-0.239 1.332-0.719 1.84-0.801 0.801-2.32 1.492-4.559 2.082 0.504-0.055 2.348-0.496 5.52-1.32 2.238-0.563 3.984-0.629 5.238-0.204-0.051-0.105-0.039-0.211 0.039-0.32l0.16-0.078zm-0.597-39.32v0.16l1.679-0.559-0.718 0.117-0.961 0.282zm-4.321-11.239-0.32-0.242c0.16 1.414 0.082 3.735-0.238 6.961l-0.121 2v0.039l0.121-0.039 0.039-0.039c0.934-1.043 1.398-2.883 1.398-5.519 0-0.215-0.093-0.68-0.281-1.403-0.211-0.824-0.41-1.414-0.598-1.758zm4.68 4.438-0.558-0.199c-0.348 0-0.668-0.051-0.961-0.161l-0.52-0.281-0.359 0.481c0.16 0.242 0.691 0.468 1.597 0.679 0.852 0.188 1.387 0.254 1.602 0.204l-0.801-0.723zm-27.762 38.441 1.082 0.719c0.641 0.293 1.161 0.496 1.559 0.602 0.641 0.132 1.336 0.332 2.082 0.597l-0.762-0.679c-0.32-0.266-1.011-0.68-2.078-1.239-1.203-0.613-2.054-0.933-2.562-0.961l0.203 0.442 0.476 0.519zm-25.277 7c0.371 0.133 0.691 0.133 0.957 0-0.398-1.015-0.758-1.586-1.078-1.718l-0.16 0.117c-0.106-0.133-0.16 0.066-0.16 0.601 0 0.348 0.039 0.586 0.121 0.719 0.054 0.082 0.16 0.176 0.32 0.281z" inkscape:connector-curvature="0"/>
      <path id="path16" style="fill-rule:evenodd;fill:#7f7d74" d="m102.6 25.639c0.531 0.187 1.089 0.519 1.679 1 0.586 0.48 0.934 0.867 1.039 1.16 0.242 0.883 0.469 1.64 0.68 2.281 0.32 1.039 0.562 1.48 0.723 1.32 0.023-0.027 0.05-0.082 0.078-0.16l0.879-2.281c-0.344-1.012-1.25-2.027-2.719-3.039-1.359-0.961-2.867-1.668-4.52-2.121-0.558-0.16-2.293-0.785-5.199-1.879-1.68-0.613-3.148-0.906-4.402-0.879l-0.16 0.316-0.039 0.043-0.801 1.598 0.242 0.16c2.531-0.426 4.242-0.547 5.121-0.359 0.664 0.16 1 0.558 1 1.199 0 0.402-0.176 0.816-0.523 1.242-0.344 0.426-0.813 0.68-1.399 0.758h0.043c4.742-0.266 7.504-0.383 8.278-0.359zm-32.881-17.559c-0.16 0.078-0.293 0.227-0.399 0.441-0.109 0.211-0.187 0.438-0.242 0.68l-0.039 0.52c0.481 1.839 1.242 3.64 2.281 5.398 0.559 0.961 1.266 2.039 2.121 3.242 0.239-0.426 0.692-0.789 1.36-1.082v-0.039l-0.961 0.16-0.961 0.039c0.109-0.105 0.789-0.84 2.043-2.199 0.316-3.226 0.398-5.547 0.238-6.961l0.32 0.242c0-0.453-0.132-0.839-0.402-1.16-0.289-0.293-0.625-0.441-1-0.441-1.09 0.16-2.465 0.535-4.117 1.121l-0.32 0.16 0.078-0.121zm12.922 18.519 0.121 0.04c0.398-0.024 1.211 0.027 2.437 0.16 0.801 0 1.414-0.532 1.84-1.598 0-2-0.051-3.148-0.16-3.441-0.453-1.36-1.746-2.039-3.879-2.039-0.641 0-1.414 0.183-2.32 0.558-1.118 0.453-2.188 0.762-3.2 0.922l-1.839 0.797 0.199 0.801c0.16 0 0.922-0.215 2.281-0.641 1.332-0.398 2.199-0.601 2.602-0.601 0.879 0 1.531 0.269 1.957 0.8 0.32 0.375 0.48 0.817 0.48 1.321 0 0.265-0.094 0.629-0.281 1.082-0.211 0.48-0.317 0.851-0.317 1.117l0.079 0.722zm-18.563 14.52c0.883-0.238 1.777-0.613 2.684-1.117 0.691-0.403 1.199-0.762 1.519-1.082l-2.121 0.922c-0.719 0.398-1.414 0.824-2.082 1.277zm-1.156-7.437c1.012-0.215 1.863-0.348 2.558-0.403l1.118 0.16 0.043 1h-0.121l-0.399 0.602c2.531-1.867 4.117-2.801 4.758-2.801 0.695 0 1.812 0.293 3.359 0.879 1.414 0.508 2.348 0.922 2.801 1.242l0.16-0.16c0.106-0.187 0.16-0.441 0.16-0.762 0-0.636-0.359-1.32-1.082-2.039-1.066-1.066-2.57-1.613-4.519-1.64l-4.477 0.601-4.359 3.321zm-4.723 4.199 1.563 1.597c-0.242-0.636-0.453-1.586-0.641-2.839l-0.723 0.722h-0.398l0.199 0.52zm-39.879-7.321c-0.16 0.426-0.242 0.907-0.242 1.442 0 0.664 0.176 1.211 0.524 1.64 0.425 0.504 0.703 1.145 0.839 1.918 0.504-0.293 0.852-1.105 1.039-2.441 0.133-0.961 1.133-1.437 3-1.437 2.774 0 5.161 0.718 7.161 2.16 1.492 1.066 2.238 1.824 2.238 2.277 0 1.066-0.945 1.734-2.84 2-3.867 0.535-6.824 1.133-8.879 1.801 1.547-0.106 3.332-0.106 5.36 0 0.613-0.078 2.039-0.199 4.281-0.36 2.078-0.132 3.359-0.199 3.84-0.199 0.984 0 1.839 0.227 2.558 0.68 1.016 0.641 2.281 1.961 3.801 3.961 0.48 0 0.895 0.277 1.238 0.84 0.321 0.586 0.481 1.277 0.481 2.078l0.043-1.68c0-2-0.321-3.48-0.961-4.437-0.668-0.989-1-2.536-1-4.645 0-1.355-0.668-2.543-2-3.559-1.176-0.906-2.375-1.359-3.602-1.359l-2.64 0.039c-0.426 0.055-0.825 0.11-1.2 0.16 0.426 0.11 0.879 0.215 1.36 0.321 0.426 0.214 1.215 0.922 2.359 2.121-0.266-0.028-1.012-0.336-2.238-0.922-1.254-0.586-2.121-0.918-2.602-1-0.398-0.078-2.238-0.305-5.519-0.68-1.785-0.187-2.68-0.465-2.68-0.84 0-0.32-0.48-0.425-1.437-0.32-1.094 0.188-1.762 0.281-2 0.281l-0.282 0.16zm-14.121 9.2c-0.531-0.161-0.894-0.348-1.078-0.559-0.187 0.023-0.359 0.051-0.519 0.078l-0.563 0.16-0.238 0.121h0.039c0.828-0.054 1.613 0.012 2.359 0.2zm9.321-5.719 1.96 0.078 0.122-0.199c0.05-0.188 0.078-0.375 0.078-0.559l-1-0.043-0.481 0.301-0.16 0.102-0.078 0.039-0.441 0.281zm73.679 42.078c0.028 1.922 0.016 3.641-0.039 5.16v0.16c-0.023 0.266-0.039 0.508-0.039 0.719-0.082 0.961-0.137 1.641-0.16 2.043v0.438c1.652-2.426 2.426-4.332 2.316-5.719 0.645 1.359 1.094 2.359 1.364 3 0.453 1.121 0.547 2.414 0.281 3.879v0.043c0.156-0.16 0.465-0.535 0.918-1.121 0.508-0.668 0.773-1.082 0.801-1.243 0.05-0.425 0.093-0.933 0.117-1.519v-1.199c-0.504-1.918-0.746-3.895-0.719-5.918-0.266-1.364-1.641-2.641-4.117-3.84-0.242 0.797-0.176 2.68 0.199 5.637-0.055 0.507-0.176 0.96-0.359 1.363l-0.563-1.883zm-1.558-5.52 0.16 0.122-0.039-0.36-0.121 0.238zm1.961-4.597-3.442 0.117c0.692 0.027 1.387 0.133 2.078 0.32 0.215-0.027 0.668-0.011 1.364 0.039 0.851 0.082 1.586 0.204 2.199 0.364-0.426-0.215-0.922-0.414-1.481-0.602l-0.718-0.238zm-0.161-13.481c0.879 1.332 1.321 3.348 1.321 6.039-0.242 1.2-0.563 2.215-0.961 3.039l1.039-0.597c0.293-0.242 0.558-0.508 0.801-0.801 0.187-0.402 0.398-1.562 0.64-3.48 0.211-1.68 0.321-2.801 0.321-3.36l-0.122-1.281c0.907 2.16 2.082 4.187 3.52 6.078 0.746 0.961 1.121 2.481 1.121 4.563 0 2.238-0.215 3.691-0.641 4.359-0.613 0.934-1.015 1.934-1.203 3l0.082 0.238 0.161 0.961c0.242-0.344 0.746-1.824 1.519-4.437 0.828-2.934 1.238-5.016 1.238-6.243 0-4.265-0.465-7.32-1.398-9.16-0.906-1.785-2.359-2.679-4.359-2.679-0.348 0-0.774 0.082-1.282 0.242-0.64 0.211-1.183 0.398-1.64 0.558l-0.637 0.079c1.039 0.214 1.746 0.468 2.117 0.761 1.043 0.801 1.293 2.188 0.762 4.16v3.079c-0.27-1.305-0.586-2.348-0.961-3.118-0.32-0.613-0.801-1.281-1.438-2zm-2.363-4.922c-0.637 0.481-1.558 0.879-2.758 1.2l0.719 0.32c0.746-0.48 1.426-0.984 2.039-1.52zm-4.637-3-2.679 1.559c-0.774 0.856-1.856 1.387-3.242 1.602l-1.559 0.761c0.105 1.547 0.348 3.094 0.719 4.637l0.32-0.316c0-1.176-0.176-2.215-0.52-3.121l1.559 0.039c1.813 0 3.695-0.825 5.641-2.481 1.945-1.68 3.465-2.531 4.558-2.558l0.84 0.121c0 0.023 0.043 0.066 0.121 0.117 0.055 0.082 0.078 0.281 0.078 0.601 0 0.586-0.211 1.106-0.636 1.559 0.105-0.078 0.211-0.172 0.32-0.277 0.797-0.75 1.637-1.387 2.516-1.922-0.184-1.172-0.731-2.078-1.637-2.719-1.309-0.934-2.293-1.922-2.961-2.961-0.961-1.437-1.734-2.387-2.32-2.84-0.454-0.347-1.028-0.519-1.719-0.519-0.055 0-0.668 0.199-1.84 0.601-1.148 0.399-1.934 0.598-2.359 0.598l-2.043-0.039 0.402-0.359c0.32-0.293 0.664-0.563 1.039-0.801l-3.16 1.277-2.481 1.281c0.856-0.211 2.11-0.238 3.762-0.078 1.68-0.109 3-0.133 3.961-0.082l0.918-0.039c0.559 0 1.32 0.348 2.281 1.039l0.157 0.16c0.375 0.453 0.8 1.039 1.281 1.762 0.32 0.453 0.719 1.066 1.203 1.84v0.117l-2.523 1.441h0.003zm-4.562 25.762-1.078 0.321-0.922 0.16c0.613-0.375 0.961-0.59 1.043-0.641 0.371-0.32 0.558-0.68 0.558-1.082 0-0.027 0.309-1.238 0.918-3.641 0.668-2.476 1.161-3.957 1.481-4.437-0.801-0.883-1.387-1.32-1.758-1.32-1.016 0-2.574 0.718-4.68 2.16-2.132 1.465-3.816 2.199-5.043 2.199-1.277 0-2.918-0.813-4.918-2.441 0.243 0.668 1.188 1.839 2.84 3.519 2.028 2.082 3.321 3.508 3.879 4.281 0.137 0.133 0.469 0.707 1 1.719 0.403 0.723 0.856 1.082 1.363 1.082 0.61 0 2.383-0.625 5.317-1.879zm3.601 0.16c0.161 0.614 0.442 1.133 0.84 1.559 0.293 0.32 0.442 0.68 0.442 1.078 0 1.043-0.602 1.934-1.801 2.684-0.375 0.238-2.215 1.144-5.52 2.718 1.465 0.215 2.719 0.133 3.758-0.242 0.723-0.265 2.188-0.89 4.403-1.879 0.16-0.613 0.437-1.347 0.839-2.199 0.266-0.613 0.399-1.172 0.399-1.68 0-0.855-0.332-1.402-1-1.64-0.961-0.16-1.746-0.293-2.36-0.399zm-18.199-10.121l-0.32-0.398h-0.281l0.601 0.398zm3.117 1.16-0.117 0.282c1.172 0.183 2.172 0.277 3 0.277 0.797 0 1.52-0.371 2.16-1.117 0.371-0.934 0.559-1.778 0.559-2.524 0-0.824-0.375-1.343-1.121-1.558-0.934-0.078-1.586-0.133-1.957-0.16-0.242-2.934-0.453-4.668-0.641-5.2-0.027-0.082-0.054-0.132-0.082-0.16-0.051-0.054-0.105-0.093-0.16-0.121-0.641-0.293-2.492-0.437-5.559-0.437-1.015 0-1.785 0.039-2.32 0.117 2.215 2.133 3.426 3.508 3.641 4.121 0.586 0.266 1.226 0.961 1.922 2.078 0.906 1.469 1.144 2.867 0.718 4.203l-0.043 0.199zm17.922 3.442-0.121-0.403c-0.238 0-0.437 0.083-0.597 0.243-0.161 0.183-0.243 0.41-0.243 0.679l0.719 0.399v-0.918h0.242zm2.719 8.238c0.055-0.266 0.121-0.879 0.199-1.84l-0.679 1.36-0.957 2.679c0.05-0.078 0.531-0.812 1.437-2.199zm9-66.199-0.078 2.277c1.199 0.348 2.691 0.59 4.48 0.723l0.079 1.078-1.118 0.082c0.453 0.426 1.2 0.785 2.239 1.078 1.171 0.32 1.773 0.481 1.8 0.481 0.614-0.133 1.348-0.039 2.2 0.281 1.039 0.348 1.746 0.894 2.121 1.641l0.078-3-0.039-0.2c-1.84 0.16-2.946 0.215-3.321 0.16-0.48-0.054-0.734-0.613-0.757-1.683-0.481-0.344-0.75-0.625-0.801-0.84l0.039-0.238c0.242 0.054 0.508 0.148 0.801 0.281l0.078-0.801c0-0.215-1.504-0.734-4.516-1.558l-1.32-0.403 2.519 2.321-4.484-1.68zm-8.519 0.16c-0.481-0.027-1.426-0.16-2.84-0.402-1.332-0.239-2.133-0.36-2.403-0.36-0.851 0-1.437 0.266-1.757 0.801-0.293 0.508-0.586 1.652-0.879 3.442l0.16-0.243c0.133-0.187 0.277-0.332 0.437-0.437 0.188-0.215 0.453-0.508 0.801-0.883 0.399-0.293 1.055-0.441 1.961-0.441 1.734 0 3.051 0.574 3.961 1.722 0.691 0.879 1.039 1.907 1.039 3.078 0 0.961-0.254 1.614-0.762 1.961-0.316 0.215-0.879 0.321-1.679 0.321-0.481 0-0.907-0.309-1.282-0.922-0.48-0.797-0.945-1.332-1.398-1.598 0.082 0.051 0.348 0.359 0.801 0.918l0.32 0.52 0.199 0.601c-0.668-0.668-1.469-1.176-2.402-1.519-0.664-0.243-1.199-0.36-1.598-0.36-0.746 0-1.16 0.481-1.242 1.438-0.078 1.121-0.746 1.906-2 2.363l-0.039 0.039c1.359 0 2.52 0.238 3.48 0.719 0.934 0.508 1.399 1.105 1.399 1.801l0.961-0.282c0.668-0.265 1.508-0.48 2.519-0.64l2.68-0.481c0.082-0.32 0.535-1.398 1.363-3.238 0.289-0.641 0.438-2.363 0.438-5.16 0-1.336-0.641-2.254-1.918-2.762h-0.32v0.004zm14.359 30c-0.586-0.133-2.133-0.496-4.641-1.082-1.465-0.348-2.758-0.586-3.879-0.719-0.027 0.028-0.066 0.039-0.121 0.039-0.316 0.082-0.613 0.149-0.879 0.2-0.027 0.082-0.039 0.175-0.039 0.281 0 0.828 0.094 1.414 0.282 1.762 0.132 0.265 0.492 0.824 1.078 1.679 0.347-1.922 1.32-2.883 2.922-2.883 0.023 0 0.492 0.121 1.398 0.364 0.906 0.238 2.199 0.359 3.879 0.359zm-35.52 4.758 0.481-0.156c-0.238 0-0.531-0.055-0.879-0.161l-0.082 0.317h0.48zm41-2.641c-0.371-0.371-1.027-0.746-1.961-1.117 0.481 0.559 0.922 1.281 1.321 2.16 0.426 0.957 0.613 1.692 0.558 2.199v0.161l0.883 0.281 0.039-0.199h-0.121c0-0.43-0.078-1.016-0.238-1.762-0.133-0.695-0.293-1.27-0.481-1.723zm-25.641-21.758c0-0.32 0.109-0.586 0.32-0.8 0.215-0.215 0.481-0.321 0.801-0.321s0.586 0.11 0.801 0.321c0.211 0.214 0.32 0.48 0.32 0.8 0 0.321-0.109 0.586-0.32 0.801-0.215 0.211-0.481 0.321-0.801 0.321s-0.586-0.11-0.801-0.321c-0.215-0.215-0.32-0.48-0.32-0.801zm14.519-6.039c0.774 0.559 1.453 1.118 2.043 1.68 0.426 0.293 1.227 0.426 2.399 0.398-0.481-0.027-1.215-0.292-2.2-0.796-0.746-0.375-1.402-0.75-1.96-1.121l-0.278-0.161h-0.004zm6.602 1.278h-3.078c0.851 0.187 1.879 0.187 3.078 0zm4.922 2.32-1.16-0.238c0.851 1.386 1.531 2.265 2.039 2.64l0.558 0.039c-1.094-0.613-1.453-1.015-1.078-1.199l-0.359-1.242zm-12.44 4.039c1.332 0.348 2.293 0.524 2.879 0.524 0.348 0 1.707-0.254 4.082-0.762l-6.96 0.238zm-65.16 27.641c-1.547-1.575-3.68-2.614-6.398-3.117-2.883-0.508-4.801-1.188-5.762-2.043 0.078 0.214 0.453 0.839 1.121 1.882l0.078 0.078c1.094 1.309 2.547 1.961 4.36 1.961 2.695-0.027 4.214 0.016 4.562 0.122-2.32 0.503-3.789 1-4.402 1.48 0.426 0.266 1.203 0.453 2.32 0.559 1.281 0.132 2.188 0.304 2.723 0.519 2.133 0.828 3.105 3.387 2.918 7.68 0.082 0 0.293 0.027 0.64 0.082 0.481 0.078 0.934 0.172 1.36 0.277 0.375-0.183 0.586-0.293 0.64-0.32 0.16-0.156 0.239-0.41 0.239-0.758 0-1.734-0.934-3.586-2.797-5.559-1.364-1.441-2.563-2.414-3.602-2.921l-0.281-0.122c0.215-0.105 0.562-0.132 1.043-0.078 0.504 0.024 0.918 0.118 1.238 0.278zm21.719 3.64 0.242-0.039-0.961-0.679c0.586-0.188 1.547-0.243 2.879-0.161l0.082-0.082c0.078-0.078 0.145-0.226 0.199-0.437l-0.84-0.723c-0.425-0.238-1.039-0.293-1.839-0.16l-1.039 0.203 2.277-0.922c-0.266 0.055-1.227 0.403-2.879 1.039-1.492 0.614-2.348 0.977-2.559 1.082l-0.043 0.039-2.839 1.922 0.961 0.118 1.839-0.2c0.829-0.32 1.653-0.558 2.481-0.718 0.48-0.082 1.16-0.176 2.039-0.282zm14.641-2.238c0.558-0.215 1.015-0.547 1.359-1-0.293-0.613-1.332-1.281-3.117-2-1.684-0.695-2.696-1.586-3.043-2.68-0.266-0.906-1.199-1.789-2.797-2.64-1.442-0.774-2.645-1.16-3.602-1.16-0.242 0-0.933 0.105-2.082 0.32-1.304 0.238-2.16 0.465-2.558 0.68l1.761-0.122c1.598 0 2.813 0.719 3.637 2.161 1.094 1.867 2.07 3.039 2.922 3.519 0.16 0.082 1.32 0.242 3.48 0.481 2.211 0.453 3.559 1.265 4.04 2.441zm-54.559-8.762c-0.508-0.215-1.039-0.386-1.602-0.519-1.171-0.055-2.359-0.028-3.558 0.082l1.16 1.476c0.211 0.11 0.332 0.176 0.359 0.204 0.106 0.132 0.16 0.371 0.16 0.718 0 0.106-0.187 0.559-0.558 1.36-0.375 0.828-0.574 1.347-0.602 1.558l0.641 0.082c2.453 0.078 4.238 0.184 5.359 0.321 0.16 0.027 0.746 0.293 1.758 0.796 1.043 0.508 1.629 0.817 1.762 0.922 0.133 0.051 0.48 0.332 1.039 0.84 0.508 0.348 0.723 0.254 0.641-0.281-0.348-0.504-1.012-1.094-2-1.758-0.852-0.562-1.36-1.066-1.52-1.519-0.105-0.293-0.238-0.817-0.398-1.563-0.188-0.719-0.497-1.25-0.922-1.598-0.668-0.32-1.239-0.695-1.719-1.121zm19.559 20.36c0.105 0.027 0.425 0.093 0.96 0.203l-0.441-0.16-0.16-0.043h-0.359zm-3.84-1.68c0.265 0.055 0.613 0.254 1.039 0.602l1.441 0.48h0.52l-0.559-0.801h-0.043c-0.266 0.133-0.586 0.133-0.957 0-0.402 0-0.734-0.082-1-0.242-0.289-0.152-0.433-0.348-0.441-0.578v0.539zm1.84-2.078c-0.266-1.707-0.547-3.039-0.84-4l-0.2-0.32c0.051 0.586-0.066 1.597-0.359 3.039 0.426 0 0.785 0.214 1.078 0.64 0.133 0.188 0.242 0.399 0.321 0.641z" inkscape:connector-curvature="0"/>
      <path id="path18" style="fill-rule:evenodd;fill:#8b897f" d="m105.28 42.56c0.051-0.507-0.133-1.242-0.558-2.199-0.403-0.883-0.844-1.601-1.321-2.16-2.32-0.668-3.496-1-3.523-1-1.68 0-2.973-0.121-3.879-0.359-0.906-0.243-1.375-0.364-1.398-0.364-1.602 0-2.575 0.961-2.922 2.883l0.718 0.879c1.977 1.309 3 2 3.082 2.082l0.758-0.121c0.082-0.16 0.297-0.652 0.641-1.48 0.641-0.747 1.801-1.118 3.48-1.118 0.27 0 1.055 0.438 2.364 1.317 1.465 0.988 2.316 1.535 2.558 1.64zm-6.359 1.239-0.082-0.039 0.039 0.039h0.043zm8.078-25.84 0.281 0.082c0.051-0.106 0.117-0.227 0.199-0.359l-0.28-0.122-0.56-0.039 0.36 0.438zm-37.922-8.758c0.055-0.242 0.137-0.469 0.242-0.684 0.106-0.21 0.242-0.359 0.403-0.437l0.437-0.602c-0.613 0.426-0.972 1-1.082 1.723zm10.723 10.559c0-0.692-0.469-1.293-1.403-1.801-0.957-0.481-2.117-0.719-3.476-0.719l-0.121 0.039c-0.668 0.293-1.121 0.653-1.36 1.082l0.34 0.5-0.301-0.461c0.934-0.215 1.719-0.32 2.36-0.32 0.668 0 1.187 0.094 1.558 0.281 0.375-0.054 0.774-0.015 1.204 0.117 0.398 0.161 0.679 0.387 0.839 0.68 0.133 0.32 0.094 0.629-0.121 0.922-0.027 0.055-0.054 0.094-0.082 0.121l0.563-0.281v-0.16zm-4.16 2.242 1.839-0.801-0.96 0.039 0.96-0.281c-0.746 0.187-1.468 0.281-2.16 0.281l0.321 0.762zm0.918 4 0.14 0.355c0.379 0.16 1.36 0.242 2.942 0.242 1.867-0.027 2.867-0.027 3 0l-0.082-0.718c0-0.266 0.109-0.641 0.32-1.121 0.187-0.453 0.281-0.813 0.281-1.078 0-0.508-0.16-0.95-0.48-1.321-0.426-0.535-1.082-0.801-1.961-0.801-0.399 0-1.266 0.2-2.598 0.598-1.359 0.43-2.121 0.641-2.281 0.641l0.359 1.718c0.375-0.238 0.879-0.449 1.52-0.636 0.586-0.16 1.043-0.242 1.359-0.242 0.828 0 1.348 0.132 1.563 0.402 0.078 0.023 0.293 0.199 0.636 0.516 0.348 0.32 0.575 0.535 0.684 0.644-0.348 0.156-0.922 0.316-1.723 0.477-0.691 0.136-1.117 0.203-1.277 0.203-1.387-0.16-2.094-0.242-2.121-0.242l-0.039-0.36-0.242 0.723zm3.082 5.039c-0.453-0.426-0.918-0.922-1.403-1.481-0.504-0.64-0.89-1.269-1.16-1.882l0.16 0.562h-0.519l0.558 1c0.137 0.106 0.723 0.68 1.762 1.719l0.602 0.082zm-16.719 2.641-3.801 2.957c0.184 1.253 0.399 2.203 0.641 2.839l2.359 1.762c0.156-0.027 0.492-0.066 1-0.121 0.453-0.051 0.731-0.039 0.84 0.039l0.117-0.039c0.668-0.453 1.363-0.879 2.082-1.277 1.094-0.828 2.242-1.496 3.442-2 0.878-0.375 1.64-0.602 2.277-0.684l3.16-1.277c0.43-0.242 1.094-0.75 2-1.524-0.449-0.316-1.383-0.73-2.797-1.238-1.547-0.586-2.668-0.879-3.363-0.879-0.637 0-2.223 0.934-4.758 2.801l0.402-0.602h0.118l-0.039-1-1.122-0.16c-0.695 0.055-1.546 0.188-2.558 0.403zm-5.363 3.636 0.441 0.043 0.32 0.879-0.121-0.359-0.199-0.52h0.398l-0.839-0.043zm-11.321 0.481 1.403-0.399c0.8-0.133 1.625-0.199 2.48-0.199-0.586-0.027-1.043-0.027-1.359 0-0.563 0.023-1.75 0.316-3.563 0.879l1.039-0.281zm-32.039-4.18 0.481-0.301 0.519-0.398c-0.344 0.254-0.676 0.484-1 0.699zm-0.679 0.422c-0.348 0.105-0.575 0.199-0.68 0.277-0.215 0.137-0.32 0.375-0.32 0.723 0 1.039 0.132 1.801 0.402 2.277 0.156 0.321 0.476 0.828 0.957 1.524l-1.277-0.203c1.066 0.214 1.906 0.695 2.519 1.441 0.348 0.426 0.641 0.945 0.879 1.559 0.961 0.855 2.879 1.535 5.762 2.043 2.718 0.503 4.851 1.542 6.398 3.117 0.508 0.242 1 0.508 1.481 0.8-3.496-3.066-5.907-5.414-7.243-7.039l-1.718-0.199-0.559-0.32 1.039-0.121c2.051-0.664 5.012-1.266 8.879-1.801 1.895-0.266 2.84-0.93 2.84-2 0-0.449-0.746-1.211-2.238-2.277-2-1.442-4.387-2.16-7.161-2.16-1.867 0-2.867 0.48-3 1.437-0.187 1.336-0.535 2.148-1.039 2.441-0.535 0.028-1.574-0.078-3.121-0.32-1.574-0.238-2.386-0.359-2.441-0.359 0.828-0.321 1.359-0.574 1.601-0.758l-1.96-0.082zm-9.321 5.719c-0.746-0.188-1.531-0.254-2.359-0.2-0.559 0.293-0.934 0.52-1.121 0.68-0.481 0.399-0.719 0.84-0.719 1.32 0 0.266 0.398 0.985 1.199 2.161 0.613 0.878 1.293 1.707 2.039 2.48 0.242-0.293 0.43-0.562 0.563-0.801 0.16-0.187 0.719-0.347 1.679-0.48l0.481-0.52-0.641-0.082c0.028-0.211 0.227-0.73 0.602-1.558 0.371-0.801 0.558-1.254 0.558-1.36 0-0.347-0.054-0.586-0.16-0.718-0.027-0.028-0.148-0.094-0.359-0.204 0.105 0.243-0.336 0.043-1.32-0.597-0.161-0.055-0.309-0.094-0.442-0.121zm7.199 12.199c-0.476-0.184-1.132-0.504-1.957-0.957 1.067 0.664 1.825 1.012 2.278 1.039l-0.321-0.082zm16.122 4.082c0.027 0.293 0.066 0.598 0.121 0.918l0.597 1.242 0.203-0.602c0.637-0.48 1.454-0.718 2.438-0.718h0.121c-0.48-0.055-0.934-0.082-1.359-0.082l0.879-0.321 1.16-0.199c-0.426-0.105-0.879-0.199-1.36-0.277-0.347-0.055-0.558-0.082-0.64-0.082 0.187-4.293-0.785-6.852-2.918-7.68-0.535-0.215-1.442-0.387-2.723-0.519-1.117-0.106-1.894-0.293-2.32-0.563-0.239 0.242-0.824 1.121-1.758 2.641l-0.121-0.039c0.293 0.425 0.629 1.906 1 4.441 0.375 2.824 0.629 4.652 0.762 5.481 1.332-1.149 2.437-1.723 3.32-1.723 0.344 0 0.558 0.015 0.637 0.043 0.027 0 0.066 0.039 0.121 0.117v-0.559c-0.078-1.546 0.066-2.48 0.441-2.8 0.293-1.442 0.414-2.453 0.359-3.039l0.2 0.32c0.293 0.961 0.574 2.293 0.84 4zm-8.399-7.281c-0.187 0.32-0.469 0.695-0.84 1.121l-0.441 0.48c0.508-0.347 0.933-0.883 1.281-1.601zm3.481 12.441-0.243-0.68-0.199 0.278 0.442 0.402zm10.519 0.801 0.52-1.242c-0.161 0.187-0.469 0.242-0.922 0.16l-0.641-0.16 0.242 0.16 0.16 0.199 0.641 0.883zm1.957-2.602-0.797 0.801c0.586-0.082 1.024-0.187 1.321-0.32l-0.524-0.481zm1.442-6.16-0.239 0.879c0.051 0.508 0.227 0.906 0.52 1.199l0.437 0.242c0-1.093 0.617-2.027 1.84-2.8 1.227-0.746 2.707-1.121 4.442-1.121l-0.961-0.118 2.839-1.922-1.839 0.442c-1.758 0.266-2.852 0.519-3.278 0.758l0.36-0.641c-0.118 0.195-0.45 0.434-1 0.723l-0.801 0.359c0.348-0.027 0.695-0.027 1.039 0l-0.039 0.199c-0.133 0.16-0.668 0.469-1.602 0.922-1.066 0.531-1.636 0.824-1.718 0.879zm-2.68-1.601c0.64 0.214 1.187 0.32 1.64 0.32l-3.761-2.758c0.828 0.801 1.535 1.613 2.121 2.438zm14.801 11.761-0.243-0.281-0.437-0.461 0.68 0.742zm1.039 1.481-0.16-0.282-0.122-0.16 0.282 0.442zm23.761 13.679c3.305-1.574 5.145-2.48 5.52-2.718 1.199-0.75 1.801-1.641 1.801-2.684 0-0.398-0.149-0.758-0.442-1.078-0.398-0.426-0.679-0.945-0.84-1.559-0.8-0.082-2-0.136-3.601-0.16-2.934 1.25-4.707 1.879-5.32 1.879-0.504 0-0.957-0.359-1.36-1.082-0.531-1.012-0.867-1.586-1-1.719l0.281 0.68v1.199l0.641-0.238c-0.586 2.961-1.574 5.172-2.961 6.641-1.574 1.199-2.652 2.105-3.238 2.718l1.277 0.321c0.242-0.055 1.602-0.348 4.082-0.879 2.481-0.535 4.012-0.895 4.598-1.082l0.16 0.32 0.242-0.16-0.402-0.16h-1l0.683-0.16 0.879-0.079zm8.719 9.801-0.199 0.078c2.316 0.106 4.094-0.16 5.316-0.8 2.297-1.172 3.508-1.786 3.645-1.84 0.266-1.465 0.172-2.758-0.281-3.879-0.27-0.641-0.719-1.641-1.364-3 0.11 1.387-0.664 3.293-2.316 5.719v-0.438c0.027-0.402 0.078-1.082 0.16-2.043-0.082 0.723-0.215 1.309-0.402 1.762l0.121-0.238c0 0.796-0.387 1.613-1.16 2.437-0.852 0.906-2.028 1.656-3.52 2.242zm10.602-7.601v1.199c0.023-0.692 0.066-1.613 0.117-2.758l-0.121 1.559h0.004zm-5.602 0.519c0.051-1.519 0.067-3.238 0.039-5.16-0.238-1.414-0.707-3.211-1.398-5.398l-0.16-0.122-0.36 0.762c0.078 0.184 0.332 1.039 0.758 2.559 0.426 1.519 0.652 2.375 0.684 2.558 0.238 1.227 0.382 2.524 0.437 3.883v0.918zm6.121-11.199c0.184-1.066 0.586-2.066 1.199-3 0.426-0.668 0.641-2.121 0.641-4.359 0-2.082-0.375-3.602-1.121-4.563-1.438-1.891-2.613-3.918-3.52-6.078l0.122 1.281c0 0.559-0.11 1.68-0.321 3.36-0.242 1.918-0.453 3.078-0.64 3.48 0.347 0.481 0.851 1.625 1.519 3.438 0.774 2.109 1.149 3.679 1.121 4.722 0.559 0.692 0.891 1.266 1 1.719zm-10.242-20.961-0.719-0.32c1.2-0.321 2.121-0.719 2.758-1.2 0.188-0.132 0.375-0.292 0.563-0.48 0.425-0.453 0.64-0.973 0.64-1.559 0-0.32-0.027-0.519-0.082-0.601-0.078-0.051-0.121-0.094-0.121-0.117l-0.84-0.121c-1.09 0.027-2.613 0.878-4.558 2.558-1.946 1.656-3.825 2.481-5.641 2.481l-1.559-0.039c0.348 0.906 0.52 1.945 0.52 3.121l0.441-0.321c0.614-0.453 1.348-0.894 2.2-1.32 0.05 0.078-0.067 0.199-0.36 0.359 1.492-0.773 2.426-1.214 2.797-1.32 0.188-0.027 0.32-0.027 0.402 0l-1.199-0.441 3.52-0.278c0.64-0.16 1.051-0.297 1.238-0.402zm1.563-12.641c-0.668-0.023-1.227-0.144-1.68-0.359l0.68 0.359h1zm1.519-6c0.106 0.348 0.227 1.055 0.359 2.121 0.079-0.242 0.161-0.453 0.239-0.64l0.32 1.281 0.039-1.801c-0.133-1.011-0.426-1.851-0.879-2.519l-1.199-0.719c0.078 0.106 0.359 0.574 0.84 1.398 0.453 0.856 0.691 1.321 0.719 1.403l-0.438-0.524zm-26.402 33.321-0.598-0.278-0.242-0.082 0.84 0.36zm0.082-0.598 1.277 1.16 0.402 0.199-1.679-1.359zm14.719-15.441l-1.758 0.082 0.199 0.679 1.559-0.761zm-0.641 5.64h-0.078l0.078 0.16v-0.16zm5.16 3.36 0.082 0.121 0.199 0.16-0.281-0.281zm5.121 9.359 3.442-0.117h-4l1.476 0.039-0.918 0.078zm-1.199-6.359 0.117-0.161-0.758 0.321 0.641-0.16zm7.117-36.602-0.238-0.156-0.078 0.277 0.316-0.121zm15.242 4.641c-0.109-0.293-0.453-0.68-1.043-1.16-0.586-0.481-1.144-0.813-1.679-1 1.574 1.226 2.48 1.949 2.722 2.16zm-34.16 19.281-0.398-0.121-0.684-0.16 1.844 0.519-0.762-0.238zm9.16-34.16 0.239 0.121-0.2-0.121h-0.039zm2.442-2.719-0.082-0.082h-0.039l0.121 0.082zm11.117 4.16 0.043-0.359-0.16 0.879 0.117-0.52zm-1.918 4.399 1.359 0.398-0.761-0.238-0.559-0.199-0.039 0.039zm1.961-9 0.039-0.36 1.359 0.602c0.586 0 1.078 0.117 1.481 0.359 0.398 0.238 0.597 0.52 0.597 0.84l1.122-0.082-0.082-1.078c-1.786-0.133-3.278-0.375-4.477-0.723l-0.043 0.442h0.004zm5.398 3.039h1.52l0.598-0.039-2.118 0.039zm-65.84 44.64c-0.32-0.16-0.878-0.304-1.679-0.437-0.106-0.028-0.215-0.055-0.321-0.082 0.239 0.082 0.481 0.187 0.719 0.32 0.403 0.027 0.828 0.094 1.281 0.199zm17.399-10c2.801-0.32 5.148-0.414 7.043-0.281 1.437 0.109 3.637 0.453 6.598 1.043-0.481-1.176-1.829-1.988-4.04-2.441-2.16-0.239-3.32-0.399-3.48-0.481-0.855-0.48-1.828-1.652-2.922-3.519-0.824-1.442-2.039-2.161-3.64-2.161l-1.758 0.122c-0.481 0.8-1.149 2.171-2 4.121-1.52 3.465-2.321 5.277-2.403 5.437 0.321 0.106 0.707 0.199 1.161 0.281 0.214-0.105 1.066-0.468 2.562-1.082 1.652-0.636 2.613-0.984 2.879-1.039zm-1 3c0.453 0.106 2.215 1.067 5.281 2.879l-1.68-1.199-1.082-0.719-2.277-1-0.242 0.039zm11.922 4.641c-0.215 0.105-0.774 0.133-1.68 0.078l0.317 0.082c1.093 0 2.027 0.586 2.8 1.762 0.774 1.199 1.16 2.637 1.16 4.316l0.04 0.043c0.429-1.336 0.187-2.734-0.719-4.203-0.692-1.117-1.332-1.812-1.918-2.078zm-50.481-10.359l1.481 1c0.613 0.132 1.293 0.371 2.039 0.718-0.133-0.105-0.719-0.414-1.762-0.918-1.012-0.507-1.598-0.773-1.758-0.8zm-3.601 4.48-0.438-0.32 1.36 1.121-0.922-0.801zm22.242 10.598h-0.082l0.16 0.043-0.078-0.043zm-0.68-0.481-0.922-0.918h-0.238l0.559 0.801 0.601 0.117zm29.239-12.519c-0.293 0-0.532-0.039-0.719-0.117-0.215-0.083-0.321-0.188-0.321-0.321 0-0.137 0.106-0.242 0.321-0.32 0.187-0.082 0.426-0.121 0.719-0.121 0.292 0 0.546 0.039 0.757 0.121 0.188 0.078 0.282 0.183 0.282 0.32 0 0.133-0.094 0.238-0.282 0.321-0.211 0.078-0.465 0.117-0.757 0.117zm-7.961-0.719c0.16-0.32 0.242-0.492 0.242-0.52l1.64-0.16c1.493 0 3.106 0.266 4.84 0.801-1.734 0.586-3.375 0.879-4.922 0.879-1.226-0.133-1.918-0.16-2.078-0.078 0.024-0.297 0.117-0.602 0.278-0.922z" inkscape:connector-curvature="0"/>
      <path id="path20" style="fill-rule:evenodd;fill:#68665f" d="m106.16 43.002 0.719 0.359v-0.441l-0.68-0.117-0.039 0.199zm-0.719-9.203-2.16 0.043 0.797 0.078l-10.08-0.281c-1.625 0.082-2.906 0.082-3.84 0-0.535-0.024-0.972-0.079-1.32-0.161-0.481-0.238-0.785-0.359-0.918-0.359-0.16 0.32-0.242 0.75-0.242 1.281 0 0.293 0.066 0.453 0.199 0.481 0.215 0 0.348 0.039 0.402 0.121 9.946 0.078 15.387 0.144 16.321 0.199l0.839-1.402zm2.68-6.797c-0.348-0.27-1.496-0.856-3.441-1.762-1.868-0.883-2.973-1.348-3.321-1.398 0.426-0.188 1.453-0.375 3.082-0.563l0.239-0.121c-0.508-1.492-1.051-2.223-1.641-2.199-1.519 0.402-3.305 0.601-5.359 0.601-0.668 0-1.852-0.347-3.559-1.039-1.601-0.695-2.441-1.043-2.519-1.043l-0.762 1.563c1.254-0.027 2.722 0.266 4.402 0.879 2.906 1.094 4.637 1.719 5.199 1.883 1.653 0.449 3.161 1.156 4.52 2.117 1.465 1.015 2.375 2.027 2.719 3.039l0.441-1.957zm-0.84-8.961-0.28-0.082c-0.773-0.133-1.387-0.172-1.84-0.117-0.906 0.078-2.535 0.437-4.883 1.078-2.371 0.508-3.73 0.762-4.078 0.762-0.586 0-1.547-0.176-2.879-0.524l-1.359-0.398-0.16 0.32c1.09 0.238 2.453 0.441 4.078 0.602 1.226 0.105 2.16 0.16 2.801 0.16 0.398 0 1.613-0.149 3.64-0.442 2.188-0.347 3.465-0.613 3.84-0.801l0.32 0.481v0.039l0.797-1.039v-0.039h0.004zm-30.64 10.199 0.039 1c0 0.774 0.398 1.426 1.199 1.961 0.801 0.531 1.773 0.801 2.922 0.801l-1.16-0.961-0.602-0.082c-1.038-1.039-1.624-1.613-1.757-1.719l-0.562-1h-0.078zm5.64 6.641c-0.082-0.133-0.242-0.282-0.48-0.442-0.321-0.215-0.653-0.32-1-0.32l-4.281 1.684c0.082-0.161 0.308-0.43 0.679-0.801 0.348-0.453 0.52-1.043 0.52-1.762 0-1.012-0.508-2.012-1.52-3-1.198-1.148-2.651-1.734-4.358-1.758h-0.039l-0.281 0.039-3.719 1.438c-0.11 0.16-0.281 0.297-0.52 0.402l4.481-0.601c1.945 0.027 3.449 0.574 4.515 1.64 0.723 0.719 1.082 1.403 1.082 2.039 0 0.321-0.05 0.575-0.16 0.762l-0.16 0.16c-0.906 0.774-1.574 1.281-2 1.52-0.371 0.238-0.719 0.508-1.039 0.801l-0.398 0.359 2.039 0.039c0.425 0 1.214-0.199 2.359-0.602 1.172-0.398 1.785-0.597 1.84-0.597 0.695 0 1.265 0.172 1.719 0.519 0.586 0.453 1.363 1.399 2.32 2.84 0.668 1.039 1.652 2.027 2.961 2.961 0.906 0.641 1.453 1.547 1.64 2.719-0.882 0.531-1.718 1.172-2.519 1.918-0.109 0.109-0.215 0.203-0.32 0.281-0.188 0.188-0.375 0.348-0.563 0.48-0.613 0.536-1.289 1.04-2.039 1.52-0.184 0.105-0.598 0.238-1.238 0.398 0.586 0.028 1.426 0.309 2.519 0.84 0.957 0.481 1.532 0.817 1.719 1 0.481 0.321 0.949 0.707 1.399 1.16 0.64 0.723 1.121 1.387 1.441 2 0.375 0.774 0.695 1.817 0.961 3.122v-3.079c0.531-1.976 0.281-3.359-0.762-4.16-0.371-0.293-1.078-0.547-2.117-0.761l0.641-0.079c0.453-0.16 1-0.347 1.636-0.562 0.508-0.16 0.934-0.238 1.282-0.238 2 0 3.453 0.894 4.359 2.679 0.933 1.84 1.402 4.895 1.402 9.16 0 1.227-0.414 3.305-1.242 6.239-0.773 2.613-1.277 4.094-1.519 4.441l-0.161-0.961-0.078-0.238c-0.105-0.453-0.441-1.027-1-1.719l-2.48-1.519c-0.613-0.16-1.348-0.282-2.199-0.364-0.696-0.05-1.149-0.066-1.36-0.039 0.906 0.293 1.559 0.563 1.957 0.801 0.535 0.293 1.188 0.84 1.961 1.641l0.281 0.558c-1.281-0.398-2.148-0.597-2.601-0.597-0.559 0-0.985 0.117-1.278 0.359-0.214 0.184-0.484 0.574-0.8 1.16l0.039 0.36c0.691 2.187 1.16 3.984 1.398 5.398l0.563 1.883c0.183-0.403 0.304-0.856 0.359-1.363-0.375-2.957-0.441-4.84-0.199-5.637 2.48 1.199 3.851 2.476 4.117 3.84-0.027 2.023 0.215 4 0.723 5.918l0.117-1.559 0.199-0.961-0.316-1.121c-0.242-1.145-0.403-2.707-0.485-4.68 1.364-0.293 2.469-1.386 3.321-3.281 0.933-2.078 1.402-4.891 1.402-8.437 0-0.852-0.535-5.961-1.602-15.321 0.188-0.027 0.016-0.039-0.519-0.039-0.559 0-1.305 0.238-2.238 0.719-1.121 0.559-1.883 0.894-2.282 1l-0.718 0.199c1.464-1.066 2.371-2.211 2.718-3.437 0-0.348-0.507-1.282-1.519-2.801-1.281-1.973-2.68-3.336-4.199-4.082l-0.442-0.117c-1.652-0.215-2.519-0.336-2.601-0.364l-0.68-0.359-0.039-0.039c-0.078-0.133-0.156-0.281-0.238-0.441-0.188-0.321-0.305-0.571-0.36-0.758zm-39.562 12.039 0.043 0.039c0.05-0.348 0.332-2.238 0.84-5.68 0-0.508-0.176-1.066-0.524-1.68-0.344-0.613-0.531-1.652-0.558-3.121 0-0.293-0.145-0.839-0.442-1.636-0.315-0.883-0.636-1.453-0.956-1.723-1.121-0.961-2.215-1.547-3.281-1.758-0.801-0.16-3.227-0.359-7.281-0.601-0.426 0.398-0.586 0.601-0.481 0.601 0.242 0 0.375 0.012 0.402 0.039l0.04 0.199c-1.547-0.773-2.68-1.253-3.399-1.441-1.016-0.266-3.469-0.332-7.359-0.199h-0.082l-1.078 0.441c0.238 0 0.906-0.093 2-0.281 0.957-0.105 1.437 0 1.437 0.32 0 0.375 0.895 0.653 2.68 0.84 3.281 0.375 5.121 0.602 5.519 0.68 0.481 0.082 1.348 0.414 2.602 1 1.226 0.586 1.972 0.894 2.238 0.922-1.144-1.203-1.933-1.91-2.359-2.121-0.481-0.106-0.934-0.215-1.36-0.321 0.375-0.05 0.774-0.105 1.2-0.16l2.64-0.039c1.227 0 2.426 0.453 3.602 1.359 1.332 1.016 2 2.2 2 3.559 0 2.109 0.332 3.656 1 4.645 0.64 0.957 0.961 2.437 0.961 4.437l-0.043 1.68zm-23.277-11.36c-0.136-0.773-0.414-1.414-0.839-1.918-0.348-0.429-0.524-0.976-0.524-1.64 0-0.535 0.082-1.016 0.242-1.442-0.265 0.161-0.746 0.493-1.441 1-0.852 0.641-1.414 1.094-1.68 1.36l-0.519 0.398 1 0.043c0 0.184-0.028 0.371-0.078 0.559l-0.122 0.199c-0.242 0.188-0.773 0.441-1.601 0.762 0.055 0 0.867 0.121 2.441 0.359 1.547 0.238 2.586 0.348 3.121 0.32zm-1.64 14.84v-0.039c-0.055-0.562 0-1.347 0.16-2.359 0.133-0.988 0.344-1.641 0.641-1.961 0.078-0.082 0.16-0.133 0.238-0.16-0.879-0.614-2.067-1.746-3.559-3.403-1.043-1.226-2.242-1.863-3.601-1.918 0.425 0.348 0.734 0.879 0.922 1.598 0.16 0.75 0.293 1.27 0.398 1.563 0.16 0.453 0.668 0.961 1.52 1.519 0.988 0.668 1.652 1.254 2 1.762 0.082 0.531-0.133 0.625-0.641 0.277-0.559-0.504-0.906-0.785-1.039-0.84-0.746-0.347-1.426-0.586-2.039-0.718-1.469-0.536-2.856-0.801-4.16-0.801l-2.161 0.121h0.122c1.597 0 3.05 0.25 4.359 0.758 0.531 0.109 1.051 0.215 1.559 0.32l0.839 0.441c-0.531-0.16-1.066-0.308-1.597-0.441 0.449 0.242 0.906 0.508 1.359 0.801 1.785 1.254 2.68 2.746 2.68 4.48v0.039l1.961-1.039h0.039zm18.121 9.078c-0.375-0.773-0.883-1.437-1.524-2-0.398-0.32-0.597-0.824-0.597-1.519 0-0.266 0.172-0.492 0.519-0.68 0.321-0.16 0.481-0.371 0.481-0.64 0-0.532-0.242-1.067-0.723-1.598-0.824-0.883-1.344-1.481-1.558-1.801l-0.84-1.16c0.828 0.746 1.547 1.266 2.16 1.559-0.586-0.825-1.293-1.637-2.121-2.438l-2.078-1.602c-0.481-0.292-0.973-0.558-1.481-0.8-0.32-0.16-0.734-0.25-1.238-0.278-0.481-0.054-0.828-0.027-1.043 0.078l0.281 0.122c1.039 0.503 2.238 1.48 3.602 2.918 1.863 1.972 2.797 3.828 2.797 5.562 0 0.348-0.079 0.598-0.239 0.758-0.054 0.027-0.265 0.133-0.64 0.32l-1.16 0.199-0.879 0.321c0.425 0 0.879 0.027 1.359 0.082 0.16 0.027 0.32 0.039 0.48 0.039 0.106 0.027 0.215 0.054 0.321 0.082 0.801 0.133 1.359 0.277 1.679 0.437 0.907 1.039 1.442 1.696 1.598 1.961l0.524 0.481 0.32-0.403zm0.879-4.16c-0.293-0.293-0.469-0.691-0.52-1.199l0.239-0.879c-0.215 0.106-0.375 0.199-0.481 0.281-0.184 0.161-0.277 0.399-0.277 0.719 0 0.481 0.316 1.012 0.957 1.602l0.082-0.524zm44.801 21.121c0.664-0.187 1.332-0.519 2-1l0.957-2.679-0.797 1.16c0.504-1.867 0.758-3.188 0.758-3.961 0-1.707-0.493-2.707-1.481-3-1.359-0.399-2.215-0.906-2.559-1.52 0.028-0.371 0.321-0.347 0.879 0.082 0-0.269 0.082-0.496 0.243-0.679 0.16-0.16 0.359-0.243 0.597-0.243l0.403-0.199-0.082-0.121-0.2 0.121c-0.375-0.801-0.558-1.613-0.558-2.441 0-0.348 0.05-0.625 0.16-0.84 0.051-0.16 0.183-0.426 0.398-0.801-0.882-0.664-1.386-1.051-1.519-1.16l-0.403-0.078-0.16 0.078c-0.078 0.109-0.09 0.215-0.039 0.32-1.254-0.425-3-0.359-5.238 0.204-3.176 0.824-5.016 1.265-5.52 1.32-0.64 0.746-1.363 1.117-2.16 1.117-0.828 0-1.828-0.094-3-0.277-0.16-0.055-1.16-0.535-3-1.442l-0.601-0.398-0.2-0.043 1 1.68c2 1.628 3.641 2.441 4.918 2.441 1.227 0 2.911-0.734 5.043-2.199 2.106-1.442 3.664-2.16 4.68-2.16 0.371 0 0.957 0.437 1.758 1.32-0.317 0.48-0.813 1.961-1.481 4.437-0.613 2.403-0.918 3.614-0.918 3.641 0 0.402-0.187 0.762-0.558 1.082-0.082 0.051-0.43 0.266-1.043 0.641l0.922-0.16 1.078-0.321c1.601 0.024 2.801 0.078 3.601 0.16 0.614 0.106 1.399 0.239 2.36 0.399 0.668 0.238 1 0.785 1 1.64 0 0.508-0.133 1.067-0.399 1.68-0.402 0.852-0.679 1.586-0.839 2.199zm5.476-45-0.039 1.801c0.133 0.531 0.215 1.078 0.242 1.641v0.16l0.321-0.481c-0.27-0.855-0.442-1.894-0.524-3.121zm-1.238-24.238c1.281 0.504 1.922 1.426 1.922 2.758 0 2.801-0.149 4.519-0.442 5.16-0.828 1.84-1.281 2.922-1.359 3.238l-2.68 0.485c-1.015 0.16-1.855 0.371-2.519 0.636l0.718-0.117-1.679 0.559-0.563 0.281c-0.238 0.238-0.597 0.414-1.078 0.52l-0.519 0.199-0.161 0.039-0.96 0.281 0.96-0.039c1.012-0.16 2.082-0.469 3.2-0.922 0.906-0.371 1.679-0.558 2.32-0.558 2.133 0 3.426 0.679 3.879 2.039 0.109 0.293 0.16 1.441 0.16 3.441-0.426 1.066-1.039 1.602-1.84 1.602-1.226-0.137-2.039-0.188-2.437-0.161 0.133 0.051 0.531 0.305 1.199 0.758 0.586 0.426 0.934 0.692 1.039 0.801l1.199 0.719c-0.187-0.238-0.625-0.68-1.32-1.321l-0.719-0.519c0.133 0.027 0.492 0.242 1.082 0.641 0.559 0.375 0.985 0.558 1.281 0.558 0.637 0 1.465-1.691 2.477-5.078 0-1.227-0.426-2.133-1.277-2.719-1.176-0.855-3.254-1.226-6.243-1.121 0.829-0.265 1.856-0.402 3.082-0.402 0.774 0 1.653 0.121 2.641 0.363 1.25 0.293 2.211 0.707 2.879 1.238 1.707-3.253 2.559-5.199 2.559-5.839 0-2.051-0.332-3.653-1-4.801-0.692-1.172-1.039-1.891-1.039-2.16 0-2.157-0.961-3.692-2.879-4.598-1.176-0.559-2.535-0.84-4.082-0.84-0.188 0-0.332 0.051-0.442 0.16-0.211 0.239-0.547 0.465-1 0.68 0.16 0.133 0.469 0.332 0.922 0.598 0.426 0.293 0.707 0.656 0.84 1.082-0.082 0.16-0.469 0.281-1.16 0.359 0.187 0.453 0.707 0.879 1.558 1.281 0.961 0.426 1.453 0.664 1.481 0.719zm-0.32 0c-0.801-0.32-1.481-0.535-2.04-0.641-0.828-0.132-2.187-0.214-4.082-0.242 0-0.183-0.386-0.371-1.16-0.558 1.067-0.746 1.707-1.692 1.922-2.84 0-0.563-0.32-0.961-0.961-1.199-0.398-0.161-0.828-0.243-1.281-0.243-1.281 0.188-2.52 0.536-3.719 1.039-2.375 1.016-3.586 2.321-3.64 3.922l2.8-0.199c0.453 0.027 0.762 0.078 0.918 0.16 0.055 0.024 0.188 0.133 0.403 0.317l-0.602 0.203c0.375 0 0.707 0.144 1 0.437 0.266 0.321 0.399 0.707 0.399 1.16 0.187 0.348 0.386 0.934 0.601 1.762 0.188 0.719 0.281 1.188 0.281 1.399 0 2.64-0.468 4.48-1.398 5.519 1.25-0.453 1.918-1.238 2-2.359 0.078-0.961 0.492-1.438 1.238-1.438 0.399 0 0.934 0.117 1.602 0.356 0.933 0.347 1.73 0.855 2.398 1.523l-0.199-0.601-0.32-0.52c-0.453-0.559-0.719-0.867-0.801-0.918v-0.043l-0.32-0.16-0.239-0.117-0.16 0.039 0.801 0.719c-0.215 0.054-0.75-0.012-1.602-0.2-0.906-0.214-1.437-0.441-1.597-0.679l0.359-0.481c-0.375-0.375-0.562-0.801-0.562-1.281 0-0.531 0.027-0.652 0.082-0.359 0.293-1.786 0.586-2.934 0.879-3.442 0.32-0.531 0.906-0.797 1.761-0.797 0.266 0 1.067 0.118 2.399 0.36 1.414 0.242 2.359 0.375 2.84 0.402zm8.519-0.16 4.481 1.68-2.52-2.321 1.32 0.399c3.012 0.828 4.52 1.347 4.52 1.558l-0.082 0.801c0.64 0.215 1.586 0.32 2.84 0.32 0.988 0 1.496-0.171 1.523-0.519-0.43-0.824-1.375-1.442-2.844-1.84-1.44-0.293-2.24-0.492-2.4-0.602-0.64-0.425-1.134-0.918-1.482-1.476-0.238-0.402-0.48-0.602-0.718-0.602-1.817 0-3.403 0.078-4.762 0.239 0.082 0.293 0.148 0.507 0.203 0.64 0.051 0.262-0.062 0.399-0.344 0.403 0.282 0.003 0.422 0.136 0.422 0.398-0.105 0.375-0.16 0.68-0.16 0.922zm-24.598 53.961c2.239-0.59 3.758-1.281 4.559-2.082 0.48-0.508 0.719-1.121 0.719-1.84 0-0.238-0.133-0.652-0.399-1.238-0.132-0.321-0.308-0.707-0.519-1.16l-0.082-0.204c0.426 0.403 1.32 0.801 2.679 1.204 0.137 0.023 0.27 0.066 0.403 0.117-0.535-0.266-1.094-0.586-1.68-0.957-0.535-0.403-0.949-0.828-1.242-1.282l-0.078-0.16-0.121-0.242c-0.375-1.547-0.614-3.09-0.719-4.637l-0.199-0.679h-0.203c0.109 0.316 0.175 0.945 0.203 1.879 0 1.253 0.011 2.281 0.039 3.078l0.121 1.562c-0.188-0.508-0.801-1.293-1.844-2.359-1.066-1.121-1.801-1.695-2.199-1.723-0.426 0.375-0.668 0.641-0.719 0.801-0.238 0.695-0.199 1.934 0.117 3.719-0.265-0.664-0.664-1.399-1.199-2.2-0.266-0.375-0.531-0.718-0.801-1.039 0.188 0.532 0.403 2.266 0.645 5.2 0.371 0.027 1.023 0.082 1.957 0.16 0.746 0.215 1.121 0.734 1.121 1.558 0 0.746-0.188 1.59-0.559 2.524zm9.52-4.281c0.055 0.054 0.105 0.109 0.16 0.16l-0.082-0.121c-0.023 0-0.051-0.012-0.078-0.039zm12.719-17.36c-0.586-0.855-0.946-1.414-1.078-1.679-0.188-0.348-0.282-0.934-0.282-1.762 0-0.106 0.012-0.199 0.039-0.281-0.586 0.132-1.039 0.269-1.359 0.402 0.375 0.558 0.879 1.25 1.52 2.078 0.851 1.121 1.48 1.828 1.878 2.121l-0.718-0.879zm11.718-1.16c0.934 0.371 1.59 0.746 1.961 1.117-0.824-1.547-2.679-2.691-5.558-3.437-1.895-0.508-3.602-0.762-5.121-0.762-1.012 0-2.118 0.094-3.321 0.281 1.121 0.133 2.414 0.371 3.883 0.719 2.504 0.586 4.051 0.949 4.637 1.082 0.027 0 1.199 0.332 3.519 1zm-34.757 7.68c0.293 0.187 0.773 0.492 1.437 0.918l0.684 0.16c-0.293-0.238-0.535-0.414-0.723-0.52-0.293-0.16-0.758-0.347-1.398-0.558zm-1.403-0.84c-0.426-0.668-1.05-1.199-1.879-1.602-0.851-0.32-1.414-0.547-1.679-0.679 0 0.64 0.347 1.172 1.039 1.597 0.695 0.457 1.535 0.684 2.519 0.684zm-8.92-6.801c0.16 0.348 0.653 0.879 1.481 1.602 0.933 0.797 1.707 1.265 2.32 1.398l-2.359-1.762-1.563-1.597 0.121 0.359zm-10.679-0.84-1.403 0.399c-0.183 1.441-0.785 3.386-1.797 5.84-0.961 2.187-1.441 3.335-1.441 3.441 0 0.055 0.172 0.387 0.52 1 0.347 0.586 0.601 0.988 0.761 1.199 0.078-0.16 0.879-1.972 2.399-5.437 0.851-1.95 1.519-3.321 2-4.121 0.398-0.215 1.254-0.442 2.558-0.68 1.149-0.215 1.84-0.32 2.082-0.32 0.961 0 2.16 0.386 3.602 1.16 1.598 0.851 2.531 1.734 2.797 2.64 0.347 1.094 1.359 1.985 3.043 2.68 1.785 0.719 2.824 1.387 3.117 2-0.348 0.453-0.801 0.785-1.359 1-2.961-0.586-5.161-0.934-6.598-1.043-1.895-0.133-4.242-0.039-7.043 0.281l-2.277 0.922 1.039-0.203c0.8-0.133 1.414-0.078 1.839 0.16l0.84 0.723c-0.054 0.211-0.121 0.359-0.199 0.437l-0.082 0.082c-1.332-0.082-2.293-0.027-2.879 0.161l0.961 0.679 2.277 1-0.476-0.519-0.203-0.442c0.508 0.028 1.359 0.348 2.562 0.961 1.067 0.559 1.758 0.973 2.078 1.239l0.762 0.679c-0.746-0.265-1.441-0.465-2.082-0.597-0.398-0.106-0.918-0.309-1.559-0.602l1.68 1.199 1.16 0.602c1.36 0.558 2.625 0.972 3.801 1.238 0.906 0.055 1.465 0.027 1.68-0.078-0.215-0.613-1.426-1.988-3.641-4.121 0.531-0.078 1.305-0.117 2.32-0.117 3.067 0 4.918 0.144 5.559 0.437-0.828-0.879-1.734-1.519-2.719-1.918 1.36-0.16 2.227-0.656 2.602-1.48 0.105-0.242 0.156-0.696 0.156-1.36-2.398-2.64-4.785-4.668-7.156-6.082-1.895-1.121-3.508-1.824-4.844-2.121-0.105-0.023-2.25-0.332-6.437-0.918zm27.16-20.16 0.121-2c-1.254 1.359-1.934 2.094-2.043 2.199l0.961-0.039 0.961-0.16zm22.961-4.441h1.558l2.118-0.039c-0.024 0-0.626-0.161-1.797-0.481-1.043-0.293-1.789-0.652-2.243-1.078 0-0.32-0.199-0.602-0.597-0.844-0.405-0.238-0.897-0.359-1.483-0.359l-1.441-0.039c0.082 0.453 0.242 0.801 0.48 1.039 0.563 0.535 1.696 1.137 3.403 1.801zm-3.242-1.117-0.282-0.204v0.043l0.282 0.161zm11.242 3v0.437l0.359 1.242c0.613-0.961 1.012-2.293 1.199-4 0-0.535-0.082-1.094-0.242-1.679l-0.238-0.204c-0.16-0.105-0.402-0.16-0.719-0.16-0.133 0-0.309 0.149-0.519 0.442-0.188 0.293-0.321 0.441-0.403 0.441-0.371 0-0.84-0.121-1.398-0.359l-2.082-0.883c0.027 1.066 0.281 1.629 0.761 1.683 0.372 0.051 1.481 0 3.321-0.16l0.039 0.2-0.082 3h0.004zm-72.201 25.636c1.363 0.348 2.668 1.071 3.921 2.16 0.051 0 0.426 0.215 1.122 0.641 0.796 0.48 1.425 0.934 1.878 1.359-0.207-0.414-0.527-0.867-0.96-1.359 0.375 0.32 0.867 0.613 1.48 0.883-1.52-2-2.785-3.32-3.801-3.961-0.719-0.453-1.574-0.684-2.558-0.684-0.481 0-1.762 0.071-3.84 0.203-2.242 0.161-3.668 0.282-4.281 0.36 4.242 0.054 6.585 0.187 7.039 0.398zm-11.84 6.84c0.613-0.476 2.082-0.973 4.402-1.476-0.348-0.11-1.867-0.149-4.562-0.122-1.813 0-3.266-0.652-4.36-1.961l1.762 2.282c0.133 0.054 0.277 0.238 0.437 0.558 0.27 0.563 0.457 1.68 0.563 3.36 0.934-1.52 1.519-2.399 1.758-2.641zm6.402 11.242h0.238l-0.121-0.199-0.597-1.242c-0.055-0.32-0.094-0.625-0.121-0.918-0.079-0.242-0.188-0.453-0.321-0.641-0.293-0.426-0.652-0.64-1.078-0.64-0.375 0.32-0.519 1.254-0.441 2.8v0.02c0.008 0.23 0.152 0.426 0.441 0.578 0.266 0.16 0.598 0.242 1 0.242-0.16-0.105-0.266-0.199-0.32-0.281-0.082-0.133-0.121-0.371-0.121-0.719 0-0.535 0.054-0.734 0.16-0.601l0.16-0.117c0.32 0.132 0.68 0.703 1.078 1.718h0.043zm-19.762-19.48c0.563 0.133 1.094 0.308 1.602 0.519-0.082-0.265-0.613-0.437-1.602-0.519z" inkscape:connector-curvature="0"/>
      <path id="path22" style="fill-rule:evenodd;fill:#b2aea3" d="m98.922 43.799c1.89-0.133 3.305-0.426 4.238-0.879 0.613-0.293 1.32-0.36 2.117-0.199v-0.161c-0.238-0.105-1.089-0.652-2.558-1.64-1.305-0.879-2.094-1.321-2.36-1.321-1.679 0-2.839 0.375-3.48 1.122-0.348 0.824-0.559 1.32-0.641 1.48 0.723 0 1.336 0.145 1.84 0.441 0.508 0.317 0.762 0.692 0.762 1.118l0.078 0.039h0.004zm-10.961-12.117 0.84-0.083c0.078 0 4.906 0.747 14.48 2.243l2.16-0.043 1.282-2.399c-0.161 0.16-0.403-0.281-0.723-1.32-0.211-0.641-0.438-1.398-0.68-2.281-0.242-0.211-1.148-0.934-2.718-2.16-0.774-0.024-3.536 0.093-8.282 0.363h-0.039c0.586-0.082 1.051-0.336 1.399-0.762 0.347-0.426 0.519-0.84 0.519-1.238 0-0.645-0.332-1.043-1-1.203-0.879-0.184-2.586-0.067-5.121 0.359l-0.316 0.121-0.242 0.762 0.679-0.082-0.679 0.199c-0.133 1.684-0.52 3.52-1.161 5.52l-0.16 0.601c0.508 0.028 0.879 0.121 1.121 0.281 0.239 0.161 0.332 0.332 0.282 0.52-0.082 0.187-0.293 0.332-0.641 0.437-0.375 0.11-0.707 0.137-1 0.082v0.083zm-12-13.161c-0.188 0.078-0.387 0.145-0.602 0.2-0.398 0.105-0.586 0.121-0.558 0.039l-0.922 0.242 1.441 2.238c0.692 0 1.414-0.094 2.16-0.281l0.161-0.039 0.519-0.199c0.481-0.106 0.84-0.282 1.078-0.52 0.028-0.027 0.055-0.066 0.082-0.121 0.215-0.293 0.254-0.598 0.121-0.918-0.16-0.293-0.441-0.52-0.839-0.68-0.43-0.136-0.829-0.175-1.204-0.121l0.68 0.36 0.082 0.199c-0.16-0.16-0.465-0.278-0.918-0.36-0.457-0.082-0.883-0.093-1.281-0.039zm-68.723 30.321c0.403-0.348 0.723-0.563 0.961-0.641 0.613-0.215 1.574-0.215 2.879 0l-0.797 0.238-0.203 0.36h1.203v0.48l-0.043 0.121h-1.277l-0.039-0.519c-0.43 0.211-0.75 0.304-0.961 0.277l-0.082-0.316-1.16 0.359 0.922 0.801c0.054 0.051 0.425 0.277 1.121 0.68 0.636 0.343 1.183 0.773 1.636 1.277l0.321 0.082c0.961 0.051 1.894-0.016 2.801-0.199l1.281-0.403v-0.039c0-1.734-0.895-3.226-2.68-4.48-0.453-0.293-0.906-0.559-1.359-0.801-1.414-0.293-2.95-0.437-4.602-0.437-1.519 0-2.281 0.359-2.281 1.078 0 0.347 0.094 0.679 0.281 1 0.106 0.187 0.215 0.332 0.32 0.441l0.52 0.359c0.027 0 0.441 0.094 1.238 0.282zm-1.758-3.922l1 0.121 2.161-0.121c1.304 0 2.691 0.265 4.16 0.801l-1.481-1c-1.121-0.133-2.906-0.243-5.359-0.321l-0.481 0.52zm33.239 0.48c-1.653-1.894-3.344-3.039-5.078-3.441-0.696-0.133-2.508-0.156-5.442-0.078-0.961 0.027-2.133-0.176-3.519-0.602-1.282-0.453-2.039-0.691-2.282-0.719 1.336 1.625 3.747 3.973 7.243 7.039l2.078 1.602 3.761 2.758 3.36-0.719 0.801-0.359c0.55-0.289 0.882-0.528 1-0.723l0.238-0.476c0.187-0.43 0.336-0.829 0.441-1.204l-2.281-2.679c0.106 0.453 0.121 0.789 0.039 1l-1-1.598c0.297 0.078 0.508 0.145 0.641 0.199zm-5.239 12.039c-0.453-0.105-0.878-0.172-1.281-0.199l0.242 0.16c-0.535-0.082-1.187-0.105-1.961-0.082-0.214 0.16-0.347 0.321-0.402 0.481 0.242 0.269 0.641 0.601 1.203 1l0.797-0.2-0.519 0.52 0.722 0.883c-1.601-0.617-2.414-0.922-2.441-0.922-0.133-0.078-0.602-0.574-1.399-1.481l-0.203 0.602 0.121 0.199 0.922 0.918 0.957 0.481h-0.277l0.078 0.043 0.441 0.16c-0.535-0.11-0.855-0.176-0.96-0.203-3.387-0.184-5.348-0.278-5.879-0.278-0.375 0-0.801 0.332-1.282 1l0.243 0.68c0.265 0.133 1.519 0.52 3.757 1.16 2.243 0.664 3.453 1.039 3.641 1.117 0.719-0.586 1.359-0.89 1.922-0.918 0.293-0.027 0.598-0.015 0.918 0.039l0.281-0.597-0.641-0.883-0.199 0.883c-0.402-0.242-0.656-0.469-0.761-0.684l-0.04-0.277c0.426-0.082 0.708-0.121 0.84-0.121l-0.242-0.16 0.641 0.16c0.453 0.082 0.761 0.027 0.922-0.16l0.64-0.559 0.797-0.801c-0.156-0.265-0.691-0.922-1.598-1.961zm17.321-0.078 1.078 0.078c0.348 0.266 0.547 0.508 0.601 0.719-0.082 0.055-0.347 0.227-0.8 0.524-0.453 0.343-0.735 0.57-0.84 0.679l2.961-0.121c0 0.027 0.238 0.133 0.719 0.32l-1.918 1.239c0.531 0.242 1.531 0.496 3 0.761 1.066 0.188 1.636 0.282 1.718 0.282 1.012 0.293 1.84 0.746 2.481 1.359-0.242-0.266-0.442-0.883-0.602-1.84-0.211-1.441-0.371-2.336-0.48-2.679-0.078-0.161-0.559-0.536-1.442-1.122 0.082-0.16 0.414-0.336 1-0.519 0.563-0.188 1.043-0.281 1.442-0.281 1.148 0 2.054 0.48 2.719 1.441 0.402 0.559 1.054 1.598 1.96 3.117 0-1.679-0.386-3.117-1.16-4.316-0.773-1.176-1.707-1.762-2.8-1.762l0.562 0.32c-0.109 0.028-0.426 0.039-0.961 0.039-2.027 0-4.238-0.707-6.641-2.121-2.027-1.386-3.16-2.078-3.398-2.078-0.293 0-0.828 0.094-1.602 0.282-0.933 0.238-1.531 0.386-1.8 0.437l-0.399 0.039 2.442 0.563 0.597 0.238c-1.199 0.109-2.066 0.16-2.597 0.16-0.746 0.055-1.321 0.066-1.723 0.039-0.773 0-1.16-0.172-1.16-0.519 0-0.266 0.015-0.454 0.043-0.559-0.137 0.027-0.336 0.039-0.602 0.039-1.094 0-2.304 0.453-3.64 1.359-1.254 0.856-1.961 1.602-2.121 2.243l5.203 3.078-0.121-0.719 0.16-0.84c0.32 0 1.425 0.012 3.32 0.039 1.785 0.055 3.281 0.055 4.48 0l-0.679-0.32c0.187-0.16 0.597-0.277 1.238-0.36 0.453 0.133 0.734 0.403 0.84 0.801-0.906-0.082-1.266-0.093-1.078-0.039zm5.558 15h-0.078c0.16-0.242 0.293-0.387 0.399-0.441 0.16-0.106 0.425-0.16 0.8-0.16 0.985 0 1.598 0.066 1.84 0.199 0.403 0.215 0.785 0.828 1.16 1.84l-0.519-0.438c0.105 0.906 0.012 1.785-0.281 2.641-0.801-0.27-1.321-0.414-1.559-0.442 1.359 1.282 2.625 1.918 3.801 1.918 1.812 0 3.156-0.906 4.039-2.718 0.984-2.055 1.824-3.2 2.519-3.442v-1.199c-2.828-1.117-4.269-1.707-4.32-1.758-0.215-0.16-0.586-0.668-1.121-1.519-0.746-1.176-1.199-1.883-1.359-2.121-6.133-0.852-9.36-1.243-9.68-1.161 0 0.079-0.055 0.161-0.16 0.239-0.16 0.109-0.762 0.16-1.801 0.16h-0.918c0.32-0.641 1.758-0.985 4.32-1.039 2.321-0.028 4.133 0.148 5.438 0.519l0.242 0.082c-1.281-0.535-2.519-0.773-3.719-0.722-2.082 0.054-3.562 0.043-4.441-0.039l0.559-0.399 0.042-0.043h-0.562c-0.293 0-0.48 0.137-0.559 0.403-0.082 0.238-0.761 0.371-2.039 0.398l0.239 0.281 0.761 1.039 0.118 0.16c0.613 0.243 1.855 1.387 3.722 3.442 1.867 2.027 2.797 3.211 2.797 3.558l0.043 0.922 0.277-0.16zm5.082 2.117c0.161-0.238 0.25-0.359 0.282-0.359 0.132-0.105 0.371-0.16 0.718-0.16 0.399 0 0.891 0.293 1.481 0.883v1.359c-0.402 0-0.801 0.012-1.199 0.039-0.828 0.078-1.243 0.199-1.243 0.359l-0.121-1.078-0.078 0.078-0.16-0.597 0.32-0.524zm11.84 4.481-0.242 0.16 0.641 1.16c1.175 0.266 2.668 1.227 4.48 2.879 1.602 1.496 3.121 2.242 4.563 2.242 1.011 0 1.957-1.441 2.839-4.32 0.45-1.441 0.84-2.973 1.161-4.602-0.028-0.183-0.254-1.039-0.684-2.558-0.426-1.52-0.68-2.371-0.758-2.559l-0.043 0.039c-0.078 0.961-0.144 1.574-0.199 1.84l0.242-0.801c-0.133 2.696-0.347 4.387-0.64 5.082-0.829 1.918-2.641 2.879-5.442 2.879-0.801 0-1.758-0.215-2.879-0.64-1.254-0.481-2.265-0.746-3.039-0.801zm13.438 4.961c-0.078 0.187-0.16 0.347-0.239 0.48-0.214 0.215-0.906 0.867-2.082 1.961-1.226 1.145-1.972 1.813-2.238 2 1.492-0.586 2.664-1.336 3.52-2.242 0.773-0.824 1.16-1.641 1.16-2.437l-0.121 0.238zm-5.68-0.961c0.082-0.16 0.227-0.293 0.441-0.399l0.598 0.239-0.797 0.601-0.242-0.441zm4.281-23.641c0.215-0.265 0.453-0.84 0.719-1.719 0.852 0.586 1.602 0.266 2.238-0.96v-0.598c0.11 0.879 0.161 1.652 0.161 2.32 0 1.067-0.145 1.797-0.438 2.199-0.293 0.399-0.895 0.664-1.801 0.801l0.281 0.278 0.918-0.04-0.359 0.083-0.559 0.039c0.133 1.148 0.825 2.093 2.079 2.839 0.668 0.399 1.562 0.918 2.679 1.559l-1.078-0.359 1.117 1.039c-1.199-0.532-2.425-0.797-3.679-0.797l0.722 0.238c0.559 0.188 1.051 0.387 1.481 0.602l2.476 1.519c0.028-1.043-0.343-2.613-1.117-4.722-0.668-1.813-1.172-2.957-1.519-3.438-0.243 0.293-0.508 0.559-0.801 0.801l-1.039 0.597c0.398-0.824 0.719-1.839 0.961-3.039 0-2.695-0.442-4.707-1.321-6.039-0.453-0.453-0.921-0.839-1.402-1.16-2.105-0.347-3.426-0.519-3.961-0.519-0.691 0-2.117 0.504-4.277 1.519 1.84 0 3.414 0.438 4.719 1.321 1.308 0.878 1.96 1.933 1.96 3.16l1-0.563 0.481 0.16 0.117 0.16 0.199 1c-0.531-0.132-0.945-0.253-1.238-0.359-0.266-0.105-0.441-0.187-0.519-0.238 0.187 0.851 0.453 1.625 0.8 2.316zm-2.879 0.801-1.64-0.961c0.133 0.109 0.64 0.496 1.519 1.16l0.121-0.199zm-21.48-0.117 0.316 0.398c1.844 0.907 2.844 1.387 3 1.442l0.121-0.282-3.437-1.558zm21.359 5 0.282-0.602-0.403 0.199 0.121 0.403zm-3.199 17.199c0.32 0.051 0.641 0.387 0.957 1-0.769 0-1.25-0.16-1.437-0.48l0.48-0.52zm-14.281-40.402l-0.481 0.16c0.989-0.027 2.028-0.094 3.121-0.199 0.266 0 0.586 0.281 0.958 0.839 0.429 0.614 1.281 1.016 2.562 1.2 0.801 0.109 1.598 0.136 2.398 0.082 0.348 0.027 0.454 0.32 0.321 0.879 2.691 0.132 4.933 0.082 6.719-0.161l2.519-1.441v-0.117c-0.48-0.774-0.879-1.387-1.199-1.84-0.481-0.723-0.906-1.309-1.281-1.762 0.32 0.426 0.707 1 1.16 1.719l0.48 0.961c-1.652-1.305-3.078-2.133-4.281-2.48-1.438-0.399-4.012-0.598-7.719-0.598-0.797 0-1.613 0.371-2.441 1.117-0.957 0.883-1.903 1.43-2.836 1.641zm1.32-1.957 2.117-0.922c0.321-0.188 0.696-0.348 1.121-0.481l2.481-1.281c-0.641 0.082-1.399 0.309-2.277 0.684-1.204 0.504-2.348 1.172-3.442 2zm17.199-5.602c-0.16 0-0.293-0.039-0.398-0.121-0.133-0.078-0.199-0.172-0.199-0.277 0-0.11 0.066-0.203 0.199-0.282 0.105-0.082 0.238-0.121 0.398-0.121 0.161 0 0.309 0.039 0.442 0.121 0.105 0.079 0.16 0.172 0.16 0.282 0 0.105-0.055 0.199-0.16 0.277-0.133 0.082-0.281 0.121-0.442 0.121zm0.121-1.48c-0.187-0.215-0.281-0.481-0.281-0.801 0-0.317 0.094-0.598 0.281-0.84 0.161-0.211 0.36-0.316 0.598-0.316 0.242 0 0.457 0.105 0.645 0.316 0.156 0.242 0.238 0.52 0.238 0.84s-0.082 0.586-0.238 0.801c-0.188 0.242-0.403 0.359-0.645 0.359-0.238 0-0.437-0.117-0.598-0.359zm-3.082-2c-0.132-0.215-0.171-0.371-0.117-0.481 0.078-0.133 0.239-0.211 0.481-0.238 0.531 0.051 0.961 0.172 1.277 0.359l0.16 0.481-0.039 0.359c-0.906-0.133-1.414-0.238-1.519-0.32 1.015 1.172 1.746 2.426 2.199 3.762 0.215 0.664 0.762 1 1.64 1 0.747 0 1.254-0.137 1.52-0.403 0.453-0.426 0.613-1.32 0.48-2.68-0.132-1.066-0.253-1.773-0.359-2.121-0.879-1.785-2.348-2.679-4.398-2.679l-2.762 0.203c-0.188 0.879-0.039 1.558 0.441 2.039 0.239 0.266 0.575 0.504 1 0.719h-0.004zm9.762 2.879c-0.105-0.024-0.215-0.067-0.32-0.118-0.852-0.695-1.481-1.093-1.879-1.203l-0.039 0.801c0.133 0 0.437 0.121 0.918 0.359 0.348 0.082 0.785 0.137 1.32 0.161zm3.442-2.559c0.023 0.105 0.05 0.215 0.078 0.32h-1.758l-0.32-0.199c0.132-0.055 0.503-0.215 1.117-0.48 0.16-0.028 0.308-0.028 0.441 0-0.215-0.243-0.387-0.563-0.519-0.961 0.265 0 0.773-0.121 1.519-0.36h-0.883c-0.425 0.028-0.757 0.094-1 0.199 0.11-0.16 0.27-0.492 0.485-1 0.316-0.398 0.879-0.492 1.679-0.281l0.438 0.321v0.48c0.133-0.027 0.269-0.066 0.402-0.117 1.227-0.215 2.039 0.383 2.442 1.797-1.575 0.269-2.645 0.425-3.203 0.48-0.348 0.028-0.653-0.039-0.918-0.199zm-24.321 11.719c0.106-0.371 0.653-0.598 1.641-0.68l0.758 0.082-1 1.199-1.399-0.601zm9.879-18.16c-1.094 0.132-1.879 0.347-2.359 0.64l0.039 0.36c0.027 0 0.734 0.082 2.121 0.242 0.16 0 0.586-0.067 1.277-0.199 0.801-0.161 1.375-0.321 1.723-0.481-0.109-0.109-0.336-0.32-0.684-0.641-0.343-0.32-0.558-0.492-0.636-0.519 0.132 0.133 0.238 0.305 0.32 0.519-0.082-0.027-0.188-0.043-0.32-0.043 0.078 0.055 0.117 0.11 0.117 0.161 0 0.082-0.078 0.148-0.238 0.203-0.161 0.078-0.348 0.117-0.559 0.117-0.215 0-0.402-0.039-0.563-0.117-0.16-0.055-0.238-0.121-0.238-0.203v-0.039zm-3.121-5c0.16-0.106 0.375-0.161 0.641-0.161 0.265 0 0.492 0.055 0.679 0.161 0.161 0.132 0.243 0.281 0.243 0.441s-0.082 0.293-0.243 0.398c-0.183 0.137-0.414 0.204-0.679 0.204-0.266 0-0.481-0.067-0.641-0.204-0.184-0.105-0.277-0.238-0.277-0.398s0.09-0.309 0.277-0.441zm-0.48 1v0.203-0.203zm13.281 8.281c0.16-0.078 0.32-0.133 0.48-0.16 0.321 0.027 0.282 0.148-0.121 0.359-0.344 0.215-0.531 0.188-0.558-0.078l0.199-0.121zm4.558-12.121-0.636 0.84c0.851 0 1.636-0.118 2.359-0.36l-1.723-0.48zm11.602 0c0.055 0.054 0.078 0.109 0.078 0.16 0 0.055-0.023 0.109-0.078 0.16-0.078 0.055-0.172 0.082-0.281 0.082-0.106 0-0.184-0.027-0.239-0.082-0.082-0.051-0.121-0.105-0.121-0.16 0-0.051 0.039-0.106 0.121-0.16 0.051-0.051 0.133-0.078 0.239-0.078 0.109 0 0.203 0.027 0.281 0.078zm-8.719-0.918c0.239-0.242 1.028-0.375 2.36-0.403 0 0.43-0.106 0.922-0.321 1.481 0.453 0.348 1.094 0.535 1.918 0.562 0.453 0 1.082-0.015 1.883-0.043l0.602 0.161 0.117 0.16c-0.508 0.32-1.414 0.601-2.719 0.84-2.109 0.402-4.629 0.496-7.559 0.281l0.758 0.238 6.961-0.238c2.348-0.641 3.973-1 4.879-1.078 0.453-0.055 1.067-0.016 1.84 0.117l-0.359-0.442c-0.508-0.371-1.188-1.25-2.039-2.636l-1.282-0.282c0.106 0.321 0.16 0.708 0.16 1.161 0.215 0.027 0.055 0.039-0.48 0.039-0.266 0-1.055-0.2-2.359-0.598-1.332-0.375-2.133-0.562-2.403-0.562-0.343 0-0.57-0.04-0.679-0.122-0.079-0.078-0.161-0.144-0.239-0.199l-0.082-0.117c0.16-0.269 0.75-0.453 1.762-0.562l-0.32-0.04c-1.172 0.028-1.973-0.105-2.403-0.398-0.586-0.562-1.265-1.121-2.039-1.684v-0.039l-0.32 2.524-0.039 0.355 0.961 0.121c0.426-0.187 1.105-0.199 2.039-0.039v0.762l-0.402 0.117-0.2 0.563h0.004zm-2.359-6.121-0.043 0.199 1.441 0.043-1.359-0.602-0.039 0.36zm6.316 19.718c0.59-0.05 0.934-0.199 1.043-0.437 0.028-0.055 0.039-0.32 0.039-0.801l0.641-0.082c0.48 0.215 0.719 0.629 0.719 1.242 0 0.028 0.398 0.215 1.199 0.559 0.933 0.48 1.668 1.094 2.199 1.84-1.516 0-2.543-0.039-3.078-0.117-0.453-0.055-0.812-0.176-1.078-0.364l0.08 0.242c-0.133 0.321-0.68 0.399-1.641 0.243 0.426-0.215 0.653-0.364 0.68-0.442 0-0.133-0.387-0.402-1.16-0.801-0.184-0.054-0.344-0.093-0.481-0.121 0.293-0.023 0.641-0.066 1.043-0.117l-0.203-0.082-1.16 0.16 0.043-0.801c0.238 0.028 0.332-0.011 0.281-0.117 0.024-0.004 0.305-0.004 0.836-0.004zm-0.4-13.519c0.32-0.051 0.668-0.039 1.039 0.043l-1.2 0.801-0.282-0.563c0.055-0.133 0.204-0.226 0.442-0.281zm-63.918 33.402 0.476-0.16c0.321-0.082 0.641-0.121 0.961-0.121 0.188 0 0.321 0.078 0.403 0.238 0.16 0.27 0.398 0.496 0.718 0.684l-2 0.039c-0.082-0.027-0.175-0.067-0.281-0.121-0.187-0.133-0.277-0.321-0.277-0.559zm-1.641 0.238-0.402-0.597c0.641-0.082 1.176-0.067 1.601 0.039 0.106 0.078 0.172 0.199 0.2 0.359l-1.399 0.199zm-0.722-1.359c-0.106 0.133-0.227 0.199-0.36 0.199s-0.254-0.066-0.359-0.199c-0.106-0.105-0.16-0.254-0.16-0.441 0-0.184 0.054-0.344 0.16-0.481 0.105-0.105 0.226-0.16 0.359-0.16s0.254 0.055 0.36 0.16c0.109 0.137 0.16 0.297 0.16 0.481 0 0.187-0.051 0.336-0.16 0.441zm13.043 7.961c-0.375 0-0.68-0.055-0.922-0.16-0.266-0.106-0.399-0.242-0.399-0.402 0-0.161 0.133-0.293 0.399-0.399 0.242-0.105 0.547-0.16 0.922-0.16 0.371 0 0.691 0.055 0.957 0.16 0.242 0.106 0.363 0.238 0.363 0.399 0 0.16-0.121 0.296-0.363 0.402-0.266 0.105-0.586 0.16-0.957 0.16zm5.476-1v0.598h-0.598v-0.598h0.598zm-10.199 0.957c0-0.184 0.148-0.344 0.441-0.476 0.266-0.137 0.586-0.204 0.961-0.204 0.371 0 0.707 0.067 1 0.204 0.266 0.132 0.399 0.292 0.399 0.476 0 0.188-0.133 0.348-0.399 0.481-0.293 0.136-0.629 0.203-1 0.203-0.375 0-0.695-0.067-0.961-0.203-0.293-0.133-0.441-0.293-0.441-0.481zm14.441-2.238-1.16-0.602c-3.066-1.812-4.828-2.769-5.281-2.879-0.879 0.106-1.559 0.2-2.039 0.282-0.828 0.16-1.652 0.398-2.481 0.718l4.403-0.757c0.718 0.105 1.304 0.32 1.758 0.636 0.96 0.723 2.558 1.59 4.8 2.602zm2.36 14.679v0.602l-3.602-1.199c-0.105-0.856 0.375-1.188 1.442-1 0.132-0.16 0.242-0.27 0.32-0.32 0.133-0.083 0.387-0.122 0.762-0.122 0.718 0 1.277 0.614 1.679 1.84l-0.601 0.199zm-3.52-12.281c0.613 0.188 0.934 0.629 0.961 1.321-0.32 0-0.75-0.305-1.281-0.918l0.32-0.403zm-43.48-5.316-0.2 0.797c-0.214-0.184-0.347-0.36-0.402-0.52-0.051-0.16 0.016-0.277 0.203-0.359l0.399 0.082zm-5.078-5.961c1.543 0.238 3 0.492 4.359 0.758-1.309-0.504-2.762-0.758-4.359-0.758zm19.277 16.117c0.242-0.078 0.547-0.117 0.922-0.117 0.371 0 0.691 0.039 0.961 0.117 0.238 0.109 0.359 0.227 0.359 0.363 0 0.133-0.121 0.239-0.359 0.321-0.27 0.105-0.59 0.16-0.961 0.16-0.375 0-0.68-0.055-0.922-0.16-0.266-0.082-0.399-0.188-0.399-0.321 0-0.136 0.133-0.254 0.399-0.363zm2.601 0.441c0.293-0.292 0.625-0.441 1-0.441 0.106 0.055 0.172 0.137 0.2 0.242l-1.2 0.199zm9-19.121c-1.253-1.089-2.558-1.812-3.921-2.16 0.027 0.028 1.336 0.75 3.921 2.16zm-2.96 4.161c-0.532-0.266-1.239-0.774-2.122-1.52-0.16-0.211-0.796-0.504-1.918-0.879-1.335-0.398-2.265-0.695-2.8-0.883 0.132-0.156 0.32-0.425 0.558-0.797 0.403-0.293 1.137-0.441 2.203-0.441 1.946 0 3.786 0.48 5.52 1.441 1.414 0.774 2.117 1.387 2.117 1.84 0 0.321-0.066 0.746-0.199 1.278l-0.199 0.722c-1.2-0.082-2.227-0.32-3.078-0.722-0.028 0.004-0.055-0.012-0.082-0.039zm-23.04 0.363c0.801 0 1.282 0.344 1.442 1.039 0.133 0.266 0.25 0.586 0.359 0.961-1.336-0.961-2.054-1.469-2.16-1.524-0.133-0.05-0.652-0.093-1.562-0.117 0.48-0.242 1.121-0.359 1.921-0.359z" inkscape:connector-curvature="0"/>
      <path id="path24" style="fill-rule:evenodd;fill:#bdb9ae" d="m105.28 42.721c-0.801-0.161-1.508-0.094-2.121 0.199-0.933 0.453-2.348 0.746-4.238 0.879h-0.043l3.203 2.203c3.199-1.602 4.797-2.481 4.797-2.641l-0.719-0.359-0.879-0.281zm-31.402-23.719 0.922-0.242 1.16-0.243c0.398-0.05 0.824-0.039 1.277 0.043 0.453 0.079 0.762 0.2 0.922 0.36l-0.082-0.199-0.68-0.36c-0.371-0.187-0.89-0.281-1.558-0.281-0.641 0-1.426 0.105-2.36 0.32l0.301 0.457 0.098 0.145zm2.32 5.519 0.36 1.481 0.242-0.723c0.48-0.293 1.265-0.508 2.359-0.64 0.028-0.051 0.106-0.118 0.238-0.2 0.161-0.05 0.348-0.082 0.563-0.082 0.211 0 0.398 0.028 0.559 0.082 0.054 0.028 0.093 0.055 0.121 0.082 0.132 0 0.238 0.012 0.32 0.039-0.082-0.214-0.188-0.386-0.32-0.519-0.215-0.266-0.735-0.399-1.563-0.399-0.316 0-0.773 0.079-1.359 0.239-0.641 0.187-1.145 0.398-1.52 0.64zm4.602 7.481c0.531 0.719 1.027 1.68 1.48 2.879 0.051 0.187 0.172 0.437 0.36 0.758 0.082 0.16 0.16 0.308 0.238 0.441l0.043 0.039c0.453 0.215 1.012 0.336 1.68 0.359h0.121l0.957-0.277c0.027 0 0.082-0.027 0.16-0.082l0.359-0.238c0.426-0.27 0.789-0.547 1.082-0.84v-0.16c-0.027-0.563-0.109-1.11-0.242-1.641l-0.32-1.281c-0.078 0.187-0.16 0.402-0.239 0.64 0.133 1.36-0.027 2.254-0.48 2.68-0.266 0.27-0.773 0.403-1.52 0.403-0.882 0-1.425-0.336-1.64-1-0.453-1.336-1.188-2.586-2.199-3.762h-0.043l-0.2-0.16c-0.425-0.211-0.757-0.453-1-0.719-0.48-0.481-0.625-1.16-0.437-2.039l2.758-0.199c2.054 0 3.519 0.89 4.402 2.679l0.438 0.52c-0.027-0.082-0.265-0.547-0.718-1.399-0.481-0.828-0.762-1.296-0.84-1.402-0.109-0.105-0.453-0.375-1.039-0.801-0.668-0.453-1.07-0.707-1.203-0.758l-0.117-0.039c-0.133-0.027-1.133-0.027-3 0-1.582 0-2.563-0.082-2.942-0.242h-0.019c0 0.028 0.011 0.055 0.039 0.082l0.359 1.239c0.27 0.613 0.656 1.238 1.16 1.878 0.481 0.559 0.95 1.055 1.403 1.481l1.16 0.961zm-75.32 12.918c-0.96 0.133-1.519 0.293-1.679 0.48-0.133 0.239-0.321 0.508-0.563 0.801-0.023 0.051-0.066 0.106-0.117 0.16l2.359 1.84c-0.105-0.109-0.214-0.254-0.32-0.441-0.187-0.321-0.281-0.653-0.281-1 0-0.719 0.762-1.078 2.281-1.078 1.652 0 3.188 0.144 4.602 0.437 0.531 0.133 1.066 0.281 1.597 0.441l-0.839-0.441c-0.508-0.105-1.028-0.211-1.559-0.32-1.359-0.266-2.816-0.52-4.359-0.758h-0.122l-1-0.121zm1.758 3.922c-0.797-0.188-1.211-0.282-1.238-0.282l1.602 1.161c0.21 0.265 0.796 0.679 1.757 1.238 0.028 0.027 0.055 0.043 0.082 0.043 0.825 0.453 1.481 0.773 1.957 0.957-0.453-0.504-1-0.934-1.636-1.277-0.696-0.403-1.067-0.629-1.121-0.68l-1.36-1.121-0.043-0.039zm18.442 9.277c-0.055-0.078-0.094-0.117-0.121-0.117-0.079-0.028-0.293-0.043-0.637-0.043-0.883 0-1.988 0.574-3.32 1.723-0.055 0.05 0.132 0.425 0.558 1.117l0.199-0.278c0.481-0.668 0.907-1 1.282-1 0.531 0 2.492 0.094 5.879 0.278h0.718l-0.957-0.481-0.601-0.117h-0.52l-1.441-0.48c-0.426-0.348-0.774-0.547-1.039-0.602zm7.16 4.48c-0.32-0.05-0.625-0.066-0.918-0.039-0.563 0.028-1.203 0.332-1.922 0.918 1.012 0 1.961-0.293 2.84-0.879zm27.281-7.441c-1.176-0.266-2.441-0.68-3.801-1.238-2.242-1.012-3.84-1.879-4.8-2.602-0.454-0.316-1.04-0.531-1.758-0.636l-4.403 0.757-1.839 0.2c-1.735 0-3.215 0.375-4.442 1.121-1.223 0.773-1.84 1.707-1.84 2.8l0.203 0.161c0.161-0.641 0.864-1.387 2.118-2.243 1.336-0.906 2.546-1.359 3.64-1.359 0.266 0 0.469-0.012 0.602-0.039-0.028 0.105-0.039 0.293-0.039 0.559 0 0.347 0.383 0.519 1.16 0.519 0.398 0.027 0.973 0.016 1.719-0.039 0.531 0 1.398-0.051 2.597-0.16l-0.597-0.238-2.442-0.563 0.403-0.039c0.265-0.051 0.863-0.199 1.796-0.437 0.774-0.188 1.309-0.282 1.602-0.282 0.238 0 1.375 0.692 3.398 2.078 2.403 1.414 4.614 2.121 6.641 2.121 0.535 0 0.856-0.011 0.961-0.039l-0.559-0.32-0.32-0.082zm-10.601 9.441 0.16 0.282c0.425 0.586 1.879 3.093 4.359 7.519 2.856 4.321 5.816 7 8.883 8.039 0.586-0.613 1.664-1.519 3.238-2.718 1.387-1.469 2.375-3.68 2.961-6.641l-0.641 0.238c-0.691 0.242-1.535 1.387-2.519 3.442-0.883 1.812-2.227 2.718-4.039 2.718-1.176 0-2.442-0.636-3.801-1.918-0.586-0.668-0.933-1.066-1.043-1.199-0.156-0.16-0.492-0.773-1-1.84l-0.039-0.922c0-0.347-0.934-1.531-2.801-3.558-1.863-2.055-3.105-3.199-3.718-3.442zm37.199 11.879c-0.321 1.629-0.707 3.161-1.16 4.602-0.879 2.879-1.825 4.32-2.84 4.32-1.442 0-2.957-0.746-4.559-2.242-1.812-1.652-3.308-2.613-4.48-2.879l0.082 0.16c1.863 2.481 3.183 4.121 3.957 4.922 1.254 1.278 2.668 2.305 4.242 3.078l0.199-0.078c0.266-0.187 1.012-0.855 2.238-2 1.176-1.094 1.868-1.75 2.082-1.961 0.082-0.133 0.161-0.293 0.243-0.48 0.183-0.453 0.316-1.039 0.398-1.762 0-0.211 0.012-0.453 0.039-0.719v-1.078c-0.055-1.359-0.199-2.656-0.441-3.883zm-8.918-24.117c2.16-1.015 3.586-1.519 4.277-1.519 0.535 0 1.856 0.172 3.961 0.519-0.184-0.187-0.758-0.519-1.719-1-1.093-0.535-1.933-0.816-2.519-0.84l-3.52 0.278 1.199 0.441c-0.078-0.027-0.214-0.027-0.398 0-0.375 0.106-1.309 0.547-2.801 1.32l-1.84 0.961-0.441 0.321-0.32 0.316 0.121 0.242h0.078c0.293-0.027 1.601-0.375 3.922-1.039zm-9.602 17.078c-0.558-0.773-1.851-2.199-3.879-4.281-1.652-1.68-2.601-2.851-2.84-3.519l-1-1.68c-0.027-0.078-0.308-0.414-0.839-1-0.508-0.559-0.817-0.879-0.922-0.957v0.68c0.109 0.343 0.269 1.238 0.48 2.679 0.16 0.957 0.36 1.574 0.602 1.84l1.679 1.359-0.402-0.199-1.355-0.562-0.844-0.36c-1.305-0.371-3.117-0.547-5.438-0.519-2.562 0.054-4 0.398-4.32 1.039h0.918c1.039 0 1.641-0.051 1.801-0.16 0.105-0.078 0.16-0.16 0.16-0.239 0.32-0.082 3.547 0.305 9.68 1.161 0.16 0.238 0.613 0.945 1.359 2.121 0.535 0.851 0.906 1.359 1.121 1.519 0.051 0.051 1.492 0.641 4.32 1.758l-0.281-0.68zm21.961-3.679c-0.48-0.293-1.055-0.559-1.719-0.801-0.613-0.238-1.066-0.36-1.363-0.36-0.637 0-1.133 0.055-1.476 0.161-0.774 0.187-1.442 0.601-2 1.242h4c1.25 0 2.476 0.265 3.679 0.797l-1.121-1.039zm-5.398-4.602 1.437 0.203c0.906-0.137 1.508-0.402 1.801-0.801 0.293-0.402 0.441-1.132 0.441-2.199 0-0.668-0.054-1.441-0.16-2.32v0.598c-0.64 1.226-1.386 1.546-2.242 0.96-0.266 0.879-0.504 1.454-0.719 1.719-0.398 0.215-1.187 0.364-2.359 0.442l-0.641 0.16 0.16 0.121c0.399 0.32 1.161 0.691 2.282 1.117zm-0.282-4.316v0.117c-0.105-0.024-0.093-0.012 0.04 0.043 0.082 0.051 0.253 0.133 0.519 0.238 0.293 0.106 0.707 0.227 1.242 0.359l-0.203-1-0.117-0.16-0.481-0.16-1 0.563zm-15.082-18.403c-0.425 0.133-0.796 0.293-1.117 0.481-0.32 0.32-0.828 0.679-1.519 1.082-0.907 0.504-1.801 0.879-2.684 1.117l-0.117 0.039v0.481c0.348 0.109 0.641 0.16 0.879 0.16 0.933-0.211 1.883-0.758 2.84-1.641 0.828-0.746 1.64-1.117 2.441-1.117 3.707 0 6.281 0.199 7.719 0.598 1.199 0.347 2.629 1.175 4.281 2.48l-0.48-0.961c-0.453-0.719-0.84-1.289-1.161-1.719l-0.16-0.16c-0.957-0.691-1.718-1.039-2.281-1.039l-0.918 0.039c-0.961-0.051-2.281-0.027-3.961 0.082-1.652-0.16-2.906-0.133-3.758 0.078h-0.004zm18.563-6.121c0.398 0.11 1.027 0.508 1.879 1.203 0.105 0.051 0.215 0.094 0.32 0.118 0.934 0.082 2.215 0.082 3.84 0l10.078 0.281-0.797-0.078c-9.573-1.496-14.401-2.243-14.479-2.243l-0.84 0.083v0.636zm1.559-8.277v0.117l0.679-0.199-0.679 0.082zm3.64 6.68c0.188 0.05 0.332 0.171 0.442 0.359 0.265 0.16 0.57 0.227 0.918 0.199 0.558-0.051 1.625-0.211 3.199-0.48-0.399-1.414-1.211-2.012-2.442-1.797-0.132 0.051-0.265 0.09-0.398 0.117v0.281h-0.719c-0.746 0.239-1.254 0.36-1.519 0.36 0.132 0.398 0.304 0.718 0.519 0.961zm-10.398-20.52-0.121-0.082c-0.215-0.133-0.852-0.215-1.918-0.238-1.094-0.055-1.922-0.016-2.485 0.117-0.16 0.109-0.304 0.254-0.437 0.441l-0.16 0.239c-0.055-0.293-0.082-0.172-0.082 0.363 0 0.476 0.187 0.906 0.562 1.277l0.52 0.281c0.293 0.106 0.613 0.161 0.961 0.161l0.558 0.199 0.16-0.039h0.039l0.243-0.199c-1.309-0.215-1.989-0.336-2.043-0.364 0.293-1.09 0.976-1.73 2.043-1.918 0.613-0.082 1.519-0.066 2.718 0.039l-0.558-0.277zm13.718 5.117 0.399-0.117v-0.762c-0.934-0.16-1.613-0.144-2.039 0.043 0 0.239 0.16 0.438 0.48 0.598 0.321 0.16 0.707 0.238 1.16 0.238zm-0.199 0.563-1.16 1.398c-0.723 0.242-1.508 0.36-2.359 0.36l-0.762 1.082 0.559 0.199c2.933 0.215 5.453 0.121 7.562-0.281 1.305-0.239 2.211-0.52 2.719-0.84l-0.121-0.16-0.598-0.161c-0.801 0.028-1.43 0.043-1.883 0.043-0.824-0.027-1.465-0.214-1.918-0.562 0.215-0.559 0.321-1.051 0.321-1.481-1.332 0.028-2.121 0.161-2.36 0.403zm8.719 0.918c-0.078-0.051-0.172-0.078-0.281-0.078-0.106 0-0.184 0.023-0.239 0.078-0.082 0.054-0.121 0.109-0.121 0.16 0 0.055 0.039 0.109 0.121 0.16 0.051 0.055 0.133 0.082 0.239 0.082 0.109 0 0.203-0.027 0.281-0.082 0.055-0.051 0.078-0.105 0.078-0.16 0-0.051-0.023-0.106-0.078-0.16zm-1.68-2.2-4.32-0.96c-1.012 0.109-1.602 0.293-1.762 0.562l0.082 0.117c0.082 0.055 0.16 0.121 0.242 0.199 0.106 0.082 0.333 0.122 0.68 0.122 0.266 0 1.067 0.187 2.399 0.562 1.308 0.398 2.093 0.598 2.359 0.598 0.535 0 0.695-0.012 0.48-0.039 0-0.453-0.054-0.84-0.16-1.161zm-1.398 16.719c0.266 0.188 0.625 0.309 1.078 0.364 0.535 0.078 1.559 0.117 3.078 0.117-0.531-0.746-1.266-1.36-2.199-1.84-0.801-0.348-1.199-0.531-1.199-0.559 0-0.613-0.239-1.027-0.719-1.242l-0.641 0.082c0 0.481-0.011 0.746-0.039 0.801-0.109 0.238-0.453 0.387-1.043 0.437 0 0.481-0.238 0.547-0.718 0.204l0.718 0.558 0.203 0.078c0.454 0.16 0.946 0.496 1.481 1zm-45.563 41.043 1.762-0.043c0.293 0 0.906 0.348 1.84 1.043l0.519 0.438c-0.375-1.012-0.761-1.625-1.16-1.84-0.242-0.133-0.855-0.199-1.84-0.199-0.375 0-0.64 0.054-0.8 0.16-0.106 0.054-0.242 0.199-0.403 0.441h0.082zm-25.076-13.562c-0.562-0.399-0.961-0.731-1.203-1 0.055-0.16 0.188-0.321 0.402-0.481 0.774-0.023 1.426 0 1.961 0.082l-0.242-0.16c-0.238-0.133-0.48-0.238-0.719-0.32-0.16 0-0.32-0.012-0.48-0.039h-0.121c-0.984 0-1.801 0.238-2.438 0.718 0.797 0.907 1.266 1.403 1.399 1.481 0.027 0 0.84 0.305 2.441 0.922l-0.722-0.883-0.278-0.32zm1.039 2.121c-0.132 0-0.414 0.039-0.84 0.121l0.04 0.277c0.105 0.215 0.359 0.442 0.761 0.684l0.199-0.883-0.16-0.199zm19.758-5.719h-0.598v0.598h0.598v-0.598zm-1.277 2.16c-0.188-0.054 0.172-0.043 1.078 0.039-0.106-0.398-0.387-0.668-0.84-0.801-0.641 0.083-1.051 0.2-1.238 0.36l0.679 0.32 0.321 0.082zm-8.922-1.203c0 0.188 0.148 0.348 0.441 0.481 0.266 0.136 0.586 0.203 0.961 0.203 0.371 0 0.707-0.067 1-0.203 0.266-0.133 0.399-0.293 0.399-0.481 0-0.184-0.133-0.344-0.399-0.476-0.293-0.137-0.629-0.204-1-0.204-0.375 0-0.695 0.067-0.961 0.204-0.293 0.132-0.441 0.292-0.441 0.476zm-2.84-10.359 2.281 2.679c0.321-1.039 0.039-2.371-0.84-4-0.453-0.425-1.082-0.879-1.878-1.359-0.696-0.426-1.067-0.641-1.122-0.641-2.585-1.41-3.894-2.132-3.921-2.16-0.454-0.211-2.797-0.344-7.039-0.398-2.028-0.106-3.813-0.106-5.36 0l-1.039 0.121 0.559 0.316 1.718 0.203c0.243 0.028 1 0.266 2.282 0.719 1.386 0.426 2.558 0.629 3.519 0.602 2.934-0.082 4.746-0.055 5.442 0.078 1.734 0.402 3.425 1.547 5.078 3.441 0.027 0.055 0.066 0.106 0.121 0.16l0.199 0.239zm17.481 21.203-0.04 0.199c0.321 0.184 0.813 0.426 1.481 0.719 0.238 0.105 0.48 0.332 0.719 0.679l0.601-0.199c-0.402-1.226-0.961-1.84-1.679-1.84-0.375 0-0.629 0.039-0.762 0.122-0.078 0.05-0.188 0.16-0.32 0.32zm-46.442-18.203-0.156 0.082 0.039 0.519h1.277l0.043-0.121v-0.48h-1.203zm26.203-2.957 0.117 0.16 0.282-0.801c-0.266-0.082-0.442-0.133-0.52-0.16-0.105-0.027-0.32-0.039-0.64-0.039-0.321 0-0.52 0.023-0.598 0.078l-0.043 0.078h1.402v0.684zm-24.801 1.16c-0.8 0-1.441 0.117-1.921 0.359 0.906 0.024 1.429 0.067 1.562 0.117 0.106 0.055 0.824 0.563 2.16 1.524-0.109-0.375-0.226-0.695-0.359-0.961-0.16-0.695-0.641-1.039-1.442-1.039zm47.04-0.203c0.292 0 0.546-0.039 0.757-0.117 0.188-0.083 0.282-0.188 0.282-0.321 0-0.137-0.094-0.242-0.282-0.32-0.211-0.082-0.465-0.121-0.757-0.121-0.293 0-0.532 0.039-0.719 0.121-0.215 0.078-0.321 0.183-0.321 0.32 0 0.133 0.106 0.238 0.321 0.321 0.187 0.078 0.426 0.117 0.719 0.117zm-7.961-0.719c-0.161 0.32-0.254 0.625-0.278 0.922 0.16-0.082 0.852-0.055 2.078 0.078 1.547 0 3.188-0.293 4.918-0.879-1.73-0.535-3.343-0.801-4.839-0.801l-1.637 0.16c0 0.028-0.082 0.2-0.242 0.52zm-17.079-2.879-0.359-0.242c-0.613-0.078-1.215-0.012-1.801 0.199l2.16 0.043z" inkscape:connector-curvature="0"/>
      <path id="path26" style="fill-rule:evenodd;fill:#939087" d="m81.039 82.959 0.242 0.441 0.797-0.601-0.598-0.239c-0.214 0.106-0.359 0.239-0.441 0.399zm1.402-22.84-0.121 0.199c-0.215 0.375-0.347 0.641-0.398 0.801-0.11 0.215-0.16 0.496-0.16 0.84 0 0.828 0.183 1.64 0.558 2.441l0.2-0.121c0-0.719 0.386-1.332 1.16-1.84 0.773-0.48 1.707-0.718 2.8-0.718l0.559-0.039 0.359-0.083-0.918 0.04c-0.585-0.106-1.054-0.227-1.402-0.36l-0.316-0.121c-1.121-0.426-1.883-0.797-2.282-1.117l-0.039 0.078zm2.079 3.082c0-0.133-0.055-0.242-0.161-0.32-0.132-0.082-0.281-0.121-0.437-0.121-0.16 0-0.297 0.039-0.402 0.121-0.133 0.078-0.2 0.187-0.2 0.32s0.067 0.238 0.2 0.32c0.105 0.078 0.242 0.118 0.402 0.118 0.156 0 0.305-0.04 0.437-0.118 0.106-0.082 0.161-0.187 0.161-0.32zm-2.918 13.238c-2.215 0.989-3.68 1.614-4.403 1.879-1.039 0.375-2.293 0.457-3.758 0.242l-0.882 0.079-0.68 0.16h1l0.398 0.16c0.778 0.055 1.789 0.32 3.043 0.801 1.118 0.425 2.078 0.64 2.879 0.64 2.801 0 4.613-0.961 5.442-2.879 0.293-0.695 0.507-2.386 0.64-5.082l-0.242 0.801c-0.906 1.387-1.387 2.121-1.437 2.199-0.668 0.481-1.336 0.813-2 1zm-2.481 5.762-0.48 0.52c0.187 0.32 0.668 0.48 1.437 0.48-0.316-0.613-0.637-0.949-0.957-1zm-27.562-19.883-0.039 0.043-0.559 0.399c0.879 0.082 2.359 0.093 4.437 0.039 1.204-0.051 2.442 0.187 3.723 0.722l0.598 0.278 1.359 0.562-1.277-1.16c-0.641-0.613-1.469-1.066-2.481-1.359-0.082 0-0.656-0.094-1.722-0.282-1.52-0.054-2.387-0.066-2.598-0.039-0.586 0.078-1.066 0.344-1.441 0.797zm29.281-3.679c-0.028-0.321-0.028-0.825 0-1.52-0.028-0.613-0.149-1.105-0.36-1.48-0.64-1.067-2.492-1.747-5.558-2.04-0.027 0.266 0 0.547 0.078 0.84l0.121 0.403c0.586 0.371 1.145 0.691 1.68 0.957 0.293 0.136 0.586 0.269 0.879 0.402 0.402 0.184 0.828 0.359 1.281 0.52 0.027 0.027 0.055 0.039 0.082 0.039l0.281 0.281c0.235 0.293 0.742 0.824 1.516 1.598zm-6.961-12.637-0.156-0.242c-0.43 0-0.778 0.082-1.043 0.242h1.199zm-2.481 0.879c0.161 0.054 0.387 0.121 0.68 0.199 1.203 0.348 1.551 0.238 1.043-0.32-0.082-0.188-0.266-0.414-0.559-0.68l-1.164 0.801zm0.524 0.437c-0.297-0.133-0.508-0.238-0.645-0.316l-0.117 0.078 0.762 0.238zm-10.481 27.16-0.32 0.524 0.16 0.597 1-1-0.441-0.281-0.399 0.16zm-3.32 0.204c0.133 0.105 0.305 0.16 0.52 0.16 0.211 0 0.398-0.055 0.558-0.16 0.133-0.11 0.199-0.243 0.199-0.403s-0.066-0.293-0.199-0.398c-0.16-0.106-0.347-0.16-0.558-0.16-0.215 0-0.387 0.054-0.52 0.16-0.16 0.105-0.242 0.238-0.242 0.398s0.082 0.293 0.242 0.403zm-9.922-15.442 0.281 0.559 1.2-0.797-0.16-0.242-0.559-0.078c-0.375 0.16-0.629 0.343-0.762 0.558zm-1.277 0.719c-0.297 0.133-0.442 0.281-0.442 0.441s0.145 0.293 0.442 0.399c0.266 0.136 0.586 0.203 0.957 0.203 0.375 0 0.707-0.067 1-0.203 0.266-0.106 0.402-0.239 0.402-0.399s-0.136-0.308-0.402-0.441c-0.293-0.106-0.625-0.16-1-0.16-0.371 0-0.691 0.054-0.957 0.16zm-38.043-11.117 0.082 0.316c0.211 0.027 0.531-0.066 0.961-0.277l0.156-0.082 0.203-0.36c-0.242-0.105-0.547-0.172-0.922-0.199h-0.437l-0.043 0.602zm23-4.723c0.109 0.082 0.254 0.121 0.441 0.121 0.188 0 0.348-0.039 0.481-0.121 0.105-0.051 0.16-0.133 0.16-0.238 0-0.106-0.055-0.199-0.16-0.282-0.133-0.054-0.293-0.082-0.481-0.082-0.187 0-0.332 0.028-0.441 0.082-0.133 0.083-0.199 0.172-0.199 0.282 0 0.105 0.066 0.187 0.199 0.238zm4.519 1.883-0.117-0.16c-0.32-0.082-0.695-0.137-1.121-0.16-0.293-0.028-0.652 0.05-1.082 0.238 0.027 0.16 0.11 0.32 0.242 0.48 0.078 0.078 0.149 0.16 0.2 0.239l1.878-0.637z" inkscape:connector-curvature="0"/>
      <path id="path28" style="fill-rule:evenodd;fill:#a7a499" d="m42.641 58.799c0.187 0.136 0.839 0.535 1.961 1.203 0.824 0.504 1.796 1.238 2.918 2.199l0.441 0.457 0.437 0.461c1.282-0.027 1.961-0.16 2.043-0.398 0.079-0.266 0.266-0.403 0.559-0.403h0.559c0.375-0.449 0.855-0.719 1.441-0.797 0.215-0.027 1.078-0.015 2.602 0.039-1.469-0.265-2.469-0.519-3-0.761l1.918-1.239c-0.481-0.187-0.719-0.293-0.719-0.32l-2.961 0.121c0.105-0.109 0.387-0.336 0.84-0.679 0.453-0.297 0.718-0.469 0.8-0.524-0.054-0.211-0.253-0.453-0.601-0.719l-1.078-0.078-0.321-0.082c-1.199 0.055-2.695 0.055-4.48 0-1.895-0.027-3-0.039-3.32-0.039l-0.16 0.84 0.121 0.719zm3.961-2.598c0.371 0 0.691-0.055 0.957-0.16 0.242-0.106 0.363-0.242 0.363-0.402 0-0.161-0.121-0.293-0.363-0.399-0.266-0.105-0.586-0.16-0.957-0.16-0.375 0-0.68 0.055-0.922 0.16-0.266 0.106-0.399 0.238-0.399 0.399 0 0.16 0.133 0.296 0.399 0.402 0.242 0.105 0.547 0.16 0.922 0.16zm17.796 5.117c-0.906-1.519-1.558-2.558-1.957-3.117-0.668-0.961-1.574-1.441-2.718-1.441-0.403 0-0.883 0.093-1.442 0.281-0.586 0.183-0.922 0.359-1 0.519 0.879 0.586 1.36 0.961 1.442 1.122v-0.68c0.105 0.078 0.41 0.398 0.918 0.957 0.531 0.586 0.812 0.922 0.839 1l0.2 0.043h0.281l3.437 1.558 0.043-0.199-0.043-0.043zm16.403-2.16 1.64 0.961 0.039-0.078-0.16-0.121 0.758-0.321-0.117 0.161c1.172-0.078 1.961-0.227 2.359-0.442-0.347-0.691-0.613-1.465-0.8-2.316-0.133-0.055-0.149-0.067-0.04-0.043v-0.117c0-1.231-0.652-2.282-1.96-3.16-1.309-0.883-2.879-1.321-4.719-1.321-2.321 0.664-3.629 1.012-3.922 1.039v0.16c0.293 0.454 0.707 0.879 1.242 1.282l-0.121-0.403c-0.078-0.293-0.105-0.574-0.078-0.84 3.066 0.293 4.918 0.973 5.558 2.04 0.215 0.375 0.332 0.867 0.36 1.48-0.028 0.695-0.028 1.199 0 1.52l-0.442 0.441 0.403 0.078zm3.359 6.961 0.918-0.078-1.48-0.039c0.562-0.641 1.226-1.055 2-1.242 0.347-0.106 0.84-0.161 1.48-0.161 0.293 0 0.75 0.122 1.36 0.36 0.667 0.242 1.242 0.508 1.722 0.801l1.078 0.359c-1.117-0.641-2.011-1.16-2.679-1.559-1.254-0.746-1.946-1.695-2.082-2.839-1.09 0-2.024 0.238-2.797 0.718-0.774 0.508-1.16 1.121-1.16 1.84l0.078 0.121-0.278 0.602h-0.242v0.918l2.082 0.199zm-12.238-18.801 0.637 0.524h0.203l1.758-0.082c1.386-0.215 2.468-0.746 3.242-1.602l2.679-1.559c-1.789 0.243-4.027 0.293-6.718 0.161 0.132-0.559 0.023-0.852-0.321-0.879-0.8 0.054-1.601 0.027-2.402-0.082-1.277-0.184-2.133-0.586-2.559-1.2-0.375-0.558-0.695-0.839-0.961-0.839-1.093 0.105-2.132 0.172-3.117 0.199h-0.484l-0.199 0.801c0.265 0.132 0.828 0.359 1.679 0.679 0.829 0.403 1.453 0.934 1.883 1.602 0.266 0.051 0.731 0.332 1.399 0.84 0.64 0.211 1.105 0.398 1.398 0.558 0.188 0.106 0.43 0.282 0.723 0.52l0.398 0.121 0.121-0.078c0.133 0.078 0.344 0.183 0.641 0.316zm-0.524-0.437 1.161-0.801c0.293 0.266 0.48 0.492 0.562 0.68 0.504 0.558 0.156 0.668-1.043 0.32-0.293-0.078-0.519-0.145-0.68-0.199zm4.883 4.679c0.293-0.16 0.414-0.281 0.36-0.359-0.852 0.426-1.586 0.867-2.2 1.32l1.84-0.961zm8.239 11.641c0 0.133-0.055 0.238-0.161 0.32-0.132 0.078-0.281 0.118-0.437 0.118-0.16 0-0.297-0.04-0.402-0.118-0.133-0.082-0.2-0.187-0.2-0.32s0.067-0.242 0.2-0.32c0.105-0.082 0.242-0.121 0.402-0.121 0.156 0 0.305 0.039 0.437 0.121 0.106 0.078 0.161 0.187 0.161 0.32zm1.96-1.562-0.281-0.278-1.437-0.203 0.316 0.121c0.348 0.133 0.817 0.254 1.402 0.36zm-3.121-27.399c0.161 0 0.309-0.039 0.442-0.121 0.105-0.078 0.16-0.172 0.16-0.277 0-0.11-0.055-0.203-0.16-0.282-0.133-0.082-0.281-0.121-0.442-0.121-0.16 0-0.293 0.039-0.398 0.121-0.133 0.079-0.199 0.172-0.199 0.282 0 0.105 0.066 0.199 0.199 0.277 0.105 0.082 0.238 0.121 0.398 0.121zm-2.961-3.48 0.204 0.16h0.039c0.105 0.082 0.613 0.187 1.519 0.32l0.039-0.359-0.16-0.481c-0.316-0.187-0.746-0.308-1.277-0.359-0.242 0.027-0.403 0.105-0.485 0.238-0.05 0.11-0.011 0.266 0.121 0.481zm3.082 2c0.161 0.242 0.36 0.359 0.598 0.359 0.242 0 0.457-0.117 0.645-0.359 0.156-0.215 0.238-0.481 0.238-0.801 0-0.317-0.082-0.598-0.238-0.84-0.188-0.211-0.403-0.316-0.645-0.316-0.238 0-0.437 0.105-0.598 0.316-0.187 0.242-0.281 0.52-0.281 0.84s0.094 0.586 0.281 0.801zm4.719-2.481-0.238 1.32c0.293 0.055 0.625 0.028 1-0.082 0.348-0.105 0.559-0.25 0.641-0.437 0.05-0.188-0.043-0.359-0.282-0.52-0.242-0.16-0.613-0.253-1.121-0.281zm5.403 0.801c-0.11-0.188-0.254-0.309-0.442-0.359-0.133-0.028-0.281-0.028-0.441 0-0.614 0.265-0.985 0.425-1.117 0.48l0.32 0.199h1.758c-0.028-0.105-0.055-0.215-0.078-0.32zm0.558-1.68h0.719v-0.761l-0.441-0.321c-0.797-0.211-1.36-0.117-1.68 0.281-0.211 0.508-0.371 0.84-0.481 1 0.243-0.105 0.575-0.171 1-0.199h0.883zm-20.281 16.602h-1.199c0.265-0.16 0.613-0.242 1.043-0.242l0.156 0.242zm-4.598-3.203 1.399 0.601 1-1.199-0.758-0.082c-0.988 0.082-1.535 0.309-1.641 0.68zm11.36-18.278c-0.028-0.027-0.067-0.054-0.121-0.082-0.161-0.05-0.348-0.082-0.559-0.082-0.215 0-0.399 0.028-0.559 0.082-0.136 0.082-0.214 0.149-0.242 0.2v0.043c0 0.078 0.082 0.144 0.242 0.199 0.16 0.078 0.344 0.121 0.559 0.121 0.211 0 0.398-0.043 0.559-0.121 0.16-0.055 0.242-0.121 0.242-0.199 0-0.055-0.043-0.11-0.121-0.161zm-4.602-4.882c-0.184 0.132-0.277 0.281-0.277 0.441s0.09 0.293 0.277 0.398c0.16 0.137 0.375 0.204 0.641 0.204 0.265 0 0.492-0.067 0.679-0.204 0.161-0.105 0.243-0.238 0.243-0.398s-0.082-0.309-0.243-0.441c-0.183-0.106-0.414-0.161-0.679-0.161-0.266 0-0.481 0.055-0.641 0.161zm-1.238-0.879c-0.028 0.082 0.16 0.066 0.558-0.039 0.215-0.055 0.414-0.122 0.602-0.2l-1.16 0.239zm7.879-8.641 0.082 0.082 0.558 0.281c-1.199-0.109-2.105-0.121-2.718-0.043-1.067 0.188-1.747 0.828-2.04 1.922 0.051 0.028 0.731 0.145 2.04 0.36 2.371-0.161 3.613-0.332 3.718-0.52 0.106-0.187 0.16-0.426 0.16-0.719-0.132-1.015-0.734-1.468-1.8-1.363zm6.16 18.801-0.199 0.121c0.027 0.266 0.214 0.293 0.558 0.078 0.403-0.211 0.442-0.332 0.121-0.359-0.16 0.027-0.32 0.082-0.48 0.16zm6.281-11.641 1.156-1.398 0.203-0.563c-0.453 0-0.839-0.078-1.16-0.238-0.32-0.16-0.48-0.359-0.48-0.602l-0.961-0.117-0.121 0.52-0.36 1.918 1.723 0.48zm5.117 12.961-0.718-0.558c0.48 0.343 0.718 0.277 0.718-0.204h-0.84c0.055 0.11-0.039 0.149-0.277 0.121l-0.043 0.801 1.16-0.16zm1.684 1.078c-0.535-0.504-1.027-0.84-1.484-1-0.399 0.055-0.747 0.094-1.04 0.121 0.133 0.028 0.293 0.067 0.481 0.121 0.773 0.399 1.16 0.664 1.16 0.797-0.027 0.082-0.254 0.231-0.68 0.442 0.961 0.16 1.508 0.082 1.641-0.239l-0.082-0.242h0.004zm-2.08-15.359c-0.238 0.055-0.387 0.148-0.442 0.281l0.282 0.563 1.199-0.801c-0.37-0.082-0.72-0.094-1.04-0.043zm-38.399 58.519 0.399-0.16 0.441 0.281-0.922 0.922 0.121 1.078c0-0.16 0.415-0.281 1.239-0.359 0.402-0.027 0.801-0.039 1.203-0.039v-1.359c-0.59-0.59-1.082-0.883-1.484-0.883-0.344 0-0.586 0.055-0.719 0.16-0.028 0-0.117 0.121-0.278 0.359zm-5.082-2.117-0.281 0.16c0.508 1.067 0.844 1.68 1 1.84 0.11 0.133 0.453 0.531 1.043 1.199 0.238 0.028 0.758 0.172 1.559 0.442 0.293-0.856 0.386-1.735 0.281-2.641-0.934-0.695-1.547-1.043-1.84-1.043l-1.762 0.043zm1.762 2.321c-0.16-0.11-0.242-0.243-0.242-0.403s0.082-0.293 0.242-0.398c0.133-0.106 0.305-0.16 0.52-0.16 0.211 0 0.398 0.054 0.558 0.16 0.133 0.105 0.199 0.238 0.199 0.398s-0.066 0.293-0.199 0.403c-0.16 0.105-0.347 0.16-0.558 0.16-0.215 0-0.387-0.055-0.52-0.16zm-11.199-14.723c0.266-0.106 0.586-0.16 0.957-0.16 0.375 0 0.707 0.054 1 0.16 0.266 0.133 0.402 0.281 0.402 0.441s-0.136 0.293-0.402 0.399c-0.293 0.136-0.625 0.203-1 0.203-0.371 0-0.691-0.067-0.957-0.203-0.297-0.106-0.442-0.239-0.442-0.399s0.145-0.308 0.442-0.441zm1.277-0.719c0.133-0.215 0.387-0.398 0.762-0.558l0.559 0.078 0.16 0.242-1.2 0.797-0.281-0.559zm-13.918-9.641 1.399-0.199c-0.028-0.16-0.094-0.281-0.2-0.359-0.425-0.106-0.96-0.121-1.601-0.039l0.402 0.597zm1.641-0.238c0 0.238 0.09 0.426 0.277 0.559 0.106 0.054 0.199 0.094 0.281 0.121l2-0.039c-0.32-0.188-0.558-0.414-0.718-0.684-0.082-0.16-0.215-0.238-0.403-0.238-0.32 0-0.64 0.039-0.961 0.121l-0.476 0.16zm20.598 17.641c-1.067-0.188-1.547 0.144-1.442 1l3.602 1.199v-0.602c-0.242-0.347-0.481-0.574-0.719-0.679-0.668-0.293-1.16-0.535-1.481-0.719l0.04-0.199zm-1.36-10.684-0.32 0.403c0.535 0.613 0.961 0.918 1.281 0.918-0.027-0.692-0.348-1.133-0.961-1.321zm-43.48-5.316-0.399-0.082c-0.187 0.082-0.254 0.199-0.203 0.359 0.055 0.16 0.188 0.336 0.402 0.52l0.2-0.797zm-4.442-2.16 0.043 0.039 0.438 0.32 1.16-0.359 0.043-0.602h0.437c0.375 0.027 0.68 0.094 0.922 0.199l0.797-0.238c-1.305-0.215-2.266-0.215-2.879 0-0.238 0.078-0.558 0.293-0.961 0.641zm18.641 12.316c-0.266 0.109-0.399 0.227-0.399 0.363 0 0.133 0.133 0.239 0.399 0.321 0.242 0.105 0.547 0.16 0.922 0.16 0.371 0 0.691-0.055 0.961-0.16 0.238-0.082 0.359-0.188 0.359-0.321 0-0.136-0.121-0.254-0.359-0.363-0.27-0.078-0.59-0.117-0.961-0.117-0.375 0-0.68 0.039-0.922 0.117zm2.601 0.441 1.2-0.199c-0.028-0.105-0.094-0.187-0.2-0.242-0.375 0-0.707 0.149-1 0.441zm3.079-2.48 0.519-0.52-0.797 0.2 0.278 0.32zm0.32-15c-0.133-0.051-0.199-0.133-0.199-0.238 0-0.106 0.066-0.199 0.199-0.282 0.109-0.054 0.254-0.082 0.441-0.082 0.188 0 0.348 0.028 0.481 0.082 0.105 0.083 0.16 0.172 0.16 0.282 0 0.105-0.055 0.187-0.16 0.238-0.133 0.082-0.293 0.121-0.481 0.121-0.187 0-0.332-0.039-0.441-0.121zm2.641 2.52c-0.051-0.079-0.122-0.161-0.2-0.239-0.132-0.16-0.215-0.32-0.242-0.48 0.43-0.188 0.789-0.266 1.082-0.238 0.426 0.023 0.801 0.078 1.121 0.16v-0.684h-1.402l0.043-0.078c0.078-0.055 0.277-0.078 0.598-0.078 0.32 0 0.535 0.012 0.64 0.039 0.078 0.027 0.254 0.078 0.52 0.16l-0.282 0.801-1.878 0.637c0.027 0.027 0.054 0.043 0.082 0.043 0.851 0.398 1.878 0.636 3.078 0.718l0.199-0.718c0.133-0.536 0.199-0.961 0.199-1.282 0-0.453-0.703-1.066-2.117-1.84-1.734-0.961-3.574-1.441-5.52-1.441-1.066 0-1.8 0.148-2.203 0.441-0.238 0.375-0.426 0.641-0.558 0.801 0.535 0.184 1.465 0.481 2.8 0.879 1.122 0.375 1.758 0.668 1.918 0.879 0.883 0.746 1.59 1.254 2.122 1.52zm-0.961 1.601c0.109-0.105 0.16-0.254 0.16-0.441 0-0.184-0.051-0.344-0.16-0.481-0.106-0.105-0.227-0.16-0.36-0.16s-0.254 0.055-0.359 0.16c-0.106 0.137-0.16 0.297-0.16 0.481 0 0.187 0.054 0.336 0.16 0.441 0.105 0.133 0.226 0.199 0.359 0.199s0.254-0.066 0.36-0.199zm5.16-2.84c-0.133-0.054-0.344-0.121-0.641-0.199l1 1.598c0.082-0.211 0.067-0.547-0.039-1l-0.199-0.239c-0.055-0.054-0.094-0.105-0.121-0.16zm-5.239-2.199-2.16-0.043c0.586-0.211 1.188-0.277 1.801-0.199l0.359 0.242z" inkscape:connector-curvature="0"/>
      <path id="path30" style="fill-rule:evenodd;fill:#908e83" d="m79.719 17.56c0 0.321 0.109 0.586 0.32 0.801 0.215 0.211 0.481 0.321 0.801 0.321s0.586-0.11 0.801-0.321c0.211-0.215 0.32-0.48 0.32-0.801 0-0.32-0.109-0.586-0.32-0.8-0.215-0.215-0.481-0.321-0.801-0.321s-0.586 0.11-0.801 0.321c-0.215 0.214-0.32 0.48-0.32 0.8zm1.16-4.32c0.453 0.266 0.922 0.801 1.402 1.602 0.371 0.613 0.797 0.918 1.281 0.918 0.797 0 1.36-0.106 1.68-0.321 0.504-0.347 0.758-1 0.758-1.961 0-1.171-0.348-2.199-1.039-3.078-0.906-1.148-2.227-1.718-3.961-1.718-0.906 0-1.559 0.144-1.961 0.437-0.344 0.375-0.613 0.668-0.797 0.883 0.559-0.133 1.387-0.176 2.481-0.121 1.066 0.027 1.707 0.105 1.918 0.238h0.039c1.066-0.105 1.668 0.348 1.8 1.363 0 0.293-0.05 0.532-0.16 0.719-0.105 0.188-1.347 0.359-3.718 0.52l-0.239 0.199 0.199 0.121 0.317 0.16v0.039z" inkscape:connector-curvature="0"/>
      <g id="g32" transform="matrix(1 0 0 -1 0 88.463)">
        <path id="path34" style="stroke-linejoin:round;stroke:#a7a499;stroke-linecap:round;stroke-miterlimit:3;stroke-width:.08;fill:none" d="m75.559 67.824v-0.203" inkscape:connector-curvature="0"/>
      </g>
    </g>
  </g>
<metadata><rdf:RDF><cc:Work><dc:format>image/svg+xml</dc:format><dc:type rdf:resource="http://purl.org/dc/dcmitype/StillImage"/><cc:license rdf:resource="http://creativecommons.org/licenses/publicdomain/"/><dc:publisher><cc:Agent rdf:about="http://openclipart.org/"><dc:title>Openclipart</dc:title></cc:Agent></dc:publisher></cc:Work><cc:License rdf:about="http://creativecommons.org/licenses/publicdomain/"><cc:permits rdf:resource="http://creativecommons.org/ns#Reproduction"/><cc:permits rdf:resource="http://creativecommons.org/ns#Distribution"/><cc:permits rdf:resource="http://creativecommons.org/ns#DerivativeWorks"/></cc:License></rdf:RDF></metadata></svg>
